<?xml version="1.0" encoding="utf-8" standalone="no"?>
<!DOCTYPE svg PUBLIC "-//W3C//DTD SVG 1.1//EN"
  "http://www.w3.org/Graphics/SVG/1.1/DTD/svg11.dtd">
<!-- Created with matplotlib (http://matplotlib.org/) -->
<svg height="345.6pt" version="1.1" viewBox="0 0 460.8 345.6" width="460.8pt" xmlns="http://www.w3.org/2000/svg" xmlns:xlink="http://www.w3.org/1999/xlink">
 <defs>
  <style type="text/css">
*{stroke-linecap:butt;stroke-linejoin:round;}
  </style>
 </defs>
 <g id="figure_1">
  <g id="patch_1">
   <path d="M 0 345.6 
L 460.8 345.6 
L 460.8 0 
L 0 0 
z
" style="fill:#ffffff;"/>
  </g>
  <g id="axes_1">
   <g id="patch_2">
    <path d="M 57.6 307.584 
L 414.72 307.584 
L 414.72 41.472 
L 57.6 41.472 
z
" style="fill:#ffffff;"/>
   </g>
   <g id="matplotlib.axis_1">
    <g id="xtick_1">
     <g id="line2d_1">
      <path clip-path="url(#p3d2f9f42a8)" d="M 73.832727 307.584 
L 73.832727 41.472 
" style="fill:none;stroke:#b0b0b0;stroke-linecap:square;stroke-width:0.8;"/>
     </g>
     <g id="line2d_2">
      <defs>
       <path d="M 0 0 
L 0 3.5 
" id="m0f42152dfe" style="stroke:#000000;stroke-width:0.8;"/>
      </defs>
      <g>
       <use style="stroke:#000000;stroke-width:0.8;" x="73.832727" xlink:href="#m0f42152dfe" y="307.584"/>
      </g>
     </g>
     <g id="text_1">
      <!-- 0 -->
      <defs>
       <path d="M 31.78125 66.40625 
Q 24.171875 66.40625 20.328125 58.90625 
Q 16.5 51.421875 16.5 36.375 
Q 16.5 21.390625 20.328125 13.890625 
Q 24.171875 6.390625 31.78125 6.390625 
Q 39.453125 6.390625 43.28125 13.890625 
Q 47.125 21.390625 47.125 36.375 
Q 47.125 51.421875 43.28125 58.90625 
Q 39.453125 66.40625 31.78125 66.40625 
z
M 31.78125 74.21875 
Q 44.046875 74.21875 50.515625 64.515625 
Q 56.984375 54.828125 56.984375 36.375 
Q 56.984375 17.96875 50.515625 8.265625 
Q 44.046875 -1.421875 31.78125 -1.421875 
Q 19.53125 -1.421875 13.0625 8.265625 
Q 6.59375 17.96875 6.59375 36.375 
Q 6.59375 54.828125 13.0625 64.515625 
Q 19.53125 74.21875 31.78125 74.21875 
z
" id="DejaVuSans-30"/>
      </defs>
      <g transform="translate(70.651477 322.182437)scale(0.1 -0.1)">
       <use xlink:href="#DejaVuSans-30"/>
      </g>
     </g>
    </g>
    <g id="xtick_2">
     <g id="line2d_3">
      <path clip-path="url(#p3d2f9f42a8)" d="M 140.910113 307.584 
L 140.910113 41.472 
" style="fill:none;stroke:#b0b0b0;stroke-linecap:square;stroke-width:0.8;"/>
     </g>
     <g id="line2d_4">
      <g>
       <use style="stroke:#000000;stroke-width:0.8;" x="140.910113" xlink:href="#m0f42152dfe" y="307.584"/>
      </g>
     </g>
     <g id="text_2">
      <!-- 50 -->
      <defs>
       <path d="M 10.796875 72.90625 
L 49.515625 72.90625 
L 49.515625 64.59375 
L 19.828125 64.59375 
L 19.828125 46.734375 
Q 21.96875 47.46875 24.109375 47.828125 
Q 26.265625 48.1875 28.421875 48.1875 
Q 40.625 48.1875 47.75 41.5 
Q 54.890625 34.8125 54.890625 23.390625 
Q 54.890625 11.625 47.5625 5.09375 
Q 40.234375 -1.421875 26.90625 -1.421875 
Q 22.3125 -1.421875 17.546875 -0.640625 
Q 12.796875 0.140625 7.71875 1.703125 
L 7.71875 11.625 
Q 12.109375 9.234375 16.796875 8.0625 
Q 21.484375 6.890625 26.703125 6.890625 
Q 35.15625 6.890625 40.078125 11.328125 
Q 45.015625 15.765625 45.015625 23.390625 
Q 45.015625 31 40.078125 35.4375 
Q 35.15625 39.890625 26.703125 39.890625 
Q 22.75 39.890625 18.8125 39.015625 
Q 14.890625 38.140625 10.796875 36.28125 
z
" id="DejaVuSans-35"/>
      </defs>
      <g transform="translate(134.547613 322.182437)scale(0.1 -0.1)">
       <use xlink:href="#DejaVuSans-35"/>
       <use x="63.623047" xlink:href="#DejaVuSans-30"/>
      </g>
     </g>
    </g>
    <g id="xtick_3">
     <g id="line2d_5">
      <path clip-path="url(#p3d2f9f42a8)" d="M 207.987498 307.584 
L 207.987498 41.472 
" style="fill:none;stroke:#b0b0b0;stroke-linecap:square;stroke-width:0.8;"/>
     </g>
     <g id="line2d_6">
      <g>
       <use style="stroke:#000000;stroke-width:0.8;" x="207.987498" xlink:href="#m0f42152dfe" y="307.584"/>
      </g>
     </g>
     <g id="text_3">
      <!-- 100 -->
      <defs>
       <path d="M 12.40625 8.296875 
L 28.515625 8.296875 
L 28.515625 63.921875 
L 10.984375 60.40625 
L 10.984375 69.390625 
L 28.421875 72.90625 
L 38.28125 72.90625 
L 38.28125 8.296875 
L 54.390625 8.296875 
L 54.390625 0 
L 12.40625 0 
z
" id="DejaVuSans-31"/>
      </defs>
      <g transform="translate(198.443748 322.182437)scale(0.1 -0.1)">
       <use xlink:href="#DejaVuSans-31"/>
       <use x="63.623047" xlink:href="#DejaVuSans-30"/>
       <use x="127.246094" xlink:href="#DejaVuSans-30"/>
      </g>
     </g>
    </g>
    <g id="xtick_4">
     <g id="line2d_7">
      <path clip-path="url(#p3d2f9f42a8)" d="M 275.064884 307.584 
L 275.064884 41.472 
" style="fill:none;stroke:#b0b0b0;stroke-linecap:square;stroke-width:0.8;"/>
     </g>
     <g id="line2d_8">
      <g>
       <use style="stroke:#000000;stroke-width:0.8;" x="275.064884" xlink:href="#m0f42152dfe" y="307.584"/>
      </g>
     </g>
     <g id="text_4">
      <!-- 150 -->
      <g transform="translate(265.521134 322.182437)scale(0.1 -0.1)">
       <use xlink:href="#DejaVuSans-31"/>
       <use x="63.623047" xlink:href="#DejaVuSans-35"/>
       <use x="127.246094" xlink:href="#DejaVuSans-30"/>
      </g>
     </g>
    </g>
    <g id="xtick_5">
     <g id="line2d_9">
      <path clip-path="url(#p3d2f9f42a8)" d="M 342.142269 307.584 
L 342.142269 41.472 
" style="fill:none;stroke:#b0b0b0;stroke-linecap:square;stroke-width:0.8;"/>
     </g>
     <g id="line2d_10">
      <g>
       <use style="stroke:#000000;stroke-width:0.8;" x="342.142269" xlink:href="#m0f42152dfe" y="307.584"/>
      </g>
     </g>
     <g id="text_5">
      <!-- 200 -->
      <defs>
       <path d="M 19.1875 8.296875 
L 53.609375 8.296875 
L 53.609375 0 
L 7.328125 0 
L 7.328125 8.296875 
Q 12.9375 14.109375 22.625 23.890625 
Q 32.328125 33.6875 34.8125 36.53125 
Q 39.546875 41.84375 41.421875 45.53125 
Q 43.3125 49.21875 43.3125 52.78125 
Q 43.3125 58.59375 39.234375 62.25 
Q 35.15625 65.921875 28.609375 65.921875 
Q 23.96875 65.921875 18.8125 64.3125 
Q 13.671875 62.703125 7.8125 59.421875 
L 7.8125 69.390625 
Q 13.765625 71.78125 18.9375 73 
Q 24.125 74.21875 28.421875 74.21875 
Q 39.75 74.21875 46.484375 68.546875 
Q 53.21875 62.890625 53.21875 53.421875 
Q 53.21875 48.921875 51.53125 44.890625 
Q 49.859375 40.875 45.40625 35.40625 
Q 44.1875 33.984375 37.640625 27.21875 
Q 31.109375 20.453125 19.1875 8.296875 
z
" id="DejaVuSans-32"/>
      </defs>
      <g transform="translate(332.598519 322.182437)scale(0.1 -0.1)">
       <use xlink:href="#DejaVuSans-32"/>
       <use x="63.623047" xlink:href="#DejaVuSans-30"/>
       <use x="127.246094" xlink:href="#DejaVuSans-30"/>
      </g>
     </g>
    </g>
    <g id="xtick_6">
     <g id="line2d_11">
      <path clip-path="url(#p3d2f9f42a8)" d="M 409.219654 307.584 
L 409.219654 41.472 
" style="fill:none;stroke:#b0b0b0;stroke-linecap:square;stroke-width:0.8;"/>
     </g>
     <g id="line2d_12">
      <g>
       <use style="stroke:#000000;stroke-width:0.8;" x="409.219654" xlink:href="#m0f42152dfe" y="307.584"/>
      </g>
     </g>
     <g id="text_6">
      <!-- 250 -->
      <g transform="translate(399.675904 322.182437)scale(0.1 -0.1)">
       <use xlink:href="#DejaVuSans-32"/>
       <use x="63.623047" xlink:href="#DejaVuSans-35"/>
       <use x="127.246094" xlink:href="#DejaVuSans-30"/>
      </g>
     </g>
    </g>
    <g id="text_7">
     <!-- Generations -->
     <defs>
      <path d="M 59.515625 10.40625 
L 59.515625 29.984375 
L 43.40625 29.984375 
L 43.40625 38.09375 
L 69.28125 38.09375 
L 69.28125 6.78125 
Q 63.578125 2.734375 56.6875 0.65625 
Q 49.8125 -1.421875 42 -1.421875 
Q 24.90625 -1.421875 15.25 8.5625 
Q 5.609375 18.5625 5.609375 36.375 
Q 5.609375 54.25 15.25 64.234375 
Q 24.90625 74.21875 42 74.21875 
Q 49.125 74.21875 55.546875 72.453125 
Q 61.96875 70.703125 67.390625 67.28125 
L 67.390625 56.78125 
Q 61.921875 61.421875 55.765625 63.765625 
Q 49.609375 66.109375 42.828125 66.109375 
Q 29.4375 66.109375 22.71875 58.640625 
Q 16.015625 51.171875 16.015625 36.375 
Q 16.015625 21.625 22.71875 14.15625 
Q 29.4375 6.6875 42.828125 6.6875 
Q 48.046875 6.6875 52.140625 7.59375 
Q 56.25 8.5 59.515625 10.40625 
z
" id="DejaVuSans-47"/>
      <path d="M 56.203125 29.59375 
L 56.203125 25.203125 
L 14.890625 25.203125 
Q 15.484375 15.921875 20.484375 11.0625 
Q 25.484375 6.203125 34.421875 6.203125 
Q 39.59375 6.203125 44.453125 7.46875 
Q 49.3125 8.734375 54.109375 11.28125 
L 54.109375 2.78125 
Q 49.265625 0.734375 44.1875 -0.34375 
Q 39.109375 -1.421875 33.890625 -1.421875 
Q 20.796875 -1.421875 13.15625 6.1875 
Q 5.515625 13.8125 5.515625 26.8125 
Q 5.515625 40.234375 12.765625 48.109375 
Q 20.015625 56 32.328125 56 
Q 43.359375 56 49.78125 48.890625 
Q 56.203125 41.796875 56.203125 29.59375 
z
M 47.21875 32.234375 
Q 47.125 39.59375 43.09375 43.984375 
Q 39.0625 48.390625 32.421875 48.390625 
Q 24.90625 48.390625 20.390625 44.140625 
Q 15.875 39.890625 15.1875 32.171875 
z
" id="DejaVuSans-65"/>
      <path d="M 54.890625 33.015625 
L 54.890625 0 
L 45.90625 0 
L 45.90625 32.71875 
Q 45.90625 40.484375 42.875 44.328125 
Q 39.84375 48.1875 33.796875 48.1875 
Q 26.515625 48.1875 22.3125 43.546875 
Q 18.109375 38.921875 18.109375 30.90625 
L 18.109375 0 
L 9.078125 0 
L 9.078125 54.6875 
L 18.109375 54.6875 
L 18.109375 46.1875 
Q 21.34375 51.125 25.703125 53.5625 
Q 30.078125 56 35.796875 56 
Q 45.21875 56 50.046875 50.171875 
Q 54.890625 44.34375 54.890625 33.015625 
z
" id="DejaVuSans-6e"/>
      <path d="M 41.109375 46.296875 
Q 39.59375 47.171875 37.8125 47.578125 
Q 36.03125 48 33.890625 48 
Q 26.265625 48 22.1875 43.046875 
Q 18.109375 38.09375 18.109375 28.8125 
L 18.109375 0 
L 9.078125 0 
L 9.078125 54.6875 
L 18.109375 54.6875 
L 18.109375 46.1875 
Q 20.953125 51.171875 25.484375 53.578125 
Q 30.03125 56 36.53125 56 
Q 37.453125 56 38.578125 55.875 
Q 39.703125 55.765625 41.0625 55.515625 
z
" id="DejaVuSans-72"/>
      <path d="M 34.28125 27.484375 
Q 23.390625 27.484375 19.1875 25 
Q 14.984375 22.515625 14.984375 16.5 
Q 14.984375 11.71875 18.140625 8.90625 
Q 21.296875 6.109375 26.703125 6.109375 
Q 34.1875 6.109375 38.703125 11.40625 
Q 43.21875 16.703125 43.21875 25.484375 
L 43.21875 27.484375 
z
M 52.203125 31.203125 
L 52.203125 0 
L 43.21875 0 
L 43.21875 8.296875 
Q 40.140625 3.328125 35.546875 0.953125 
Q 30.953125 -1.421875 24.3125 -1.421875 
Q 15.921875 -1.421875 10.953125 3.296875 
Q 6 8.015625 6 15.921875 
Q 6 25.140625 12.171875 29.828125 
Q 18.359375 34.515625 30.609375 34.515625 
L 43.21875 34.515625 
L 43.21875 35.40625 
Q 43.21875 41.609375 39.140625 45 
Q 35.0625 48.390625 27.6875 48.390625 
Q 23 48.390625 18.546875 47.265625 
Q 14.109375 46.140625 10.015625 43.890625 
L 10.015625 52.203125 
Q 14.9375 54.109375 19.578125 55.046875 
Q 24.21875 56 28.609375 56 
Q 40.484375 56 46.34375 49.84375 
Q 52.203125 43.703125 52.203125 31.203125 
z
" id="DejaVuSans-61"/>
      <path d="M 18.3125 70.21875 
L 18.3125 54.6875 
L 36.8125 54.6875 
L 36.8125 47.703125 
L 18.3125 47.703125 
L 18.3125 18.015625 
Q 18.3125 11.328125 20.140625 9.421875 
Q 21.96875 7.515625 27.59375 7.515625 
L 36.8125 7.515625 
L 36.8125 0 
L 27.59375 0 
Q 17.1875 0 13.234375 3.875 
Q 9.28125 7.765625 9.28125 18.015625 
L 9.28125 47.703125 
L 2.6875 47.703125 
L 2.6875 54.6875 
L 9.28125 54.6875 
L 9.28125 70.21875 
z
" id="DejaVuSans-74"/>
      <path d="M 9.421875 54.6875 
L 18.40625 54.6875 
L 18.40625 0 
L 9.421875 0 
z
M 9.421875 75.984375 
L 18.40625 75.984375 
L 18.40625 64.59375 
L 9.421875 64.59375 
z
" id="DejaVuSans-69"/>
      <path d="M 30.609375 48.390625 
Q 23.390625 48.390625 19.1875 42.75 
Q 14.984375 37.109375 14.984375 27.296875 
Q 14.984375 17.484375 19.15625 11.84375 
Q 23.34375 6.203125 30.609375 6.203125 
Q 37.796875 6.203125 41.984375 11.859375 
Q 46.1875 17.53125 46.1875 27.296875 
Q 46.1875 37.015625 41.984375 42.703125 
Q 37.796875 48.390625 30.609375 48.390625 
z
M 30.609375 56 
Q 42.328125 56 49.015625 48.375 
Q 55.71875 40.765625 55.71875 27.296875 
Q 55.71875 13.875 49.015625 6.21875 
Q 42.328125 -1.421875 30.609375 -1.421875 
Q 18.84375 -1.421875 12.171875 6.21875 
Q 5.515625 13.875 5.515625 27.296875 
Q 5.515625 40.765625 12.171875 48.375 
Q 18.84375 56 30.609375 56 
z
" id="DejaVuSans-6f"/>
      <path d="M 44.28125 53.078125 
L 44.28125 44.578125 
Q 40.484375 46.53125 36.375 47.5 
Q 32.28125 48.484375 27.875 48.484375 
Q 21.1875 48.484375 17.84375 46.4375 
Q 14.5 44.390625 14.5 40.28125 
Q 14.5 37.15625 16.890625 35.375 
Q 19.28125 33.59375 26.515625 31.984375 
L 29.59375 31.296875 
Q 39.15625 29.25 43.1875 25.515625 
Q 47.21875 21.78125 47.21875 15.09375 
Q 47.21875 7.46875 41.1875 3.015625 
Q 35.15625 -1.421875 24.609375 -1.421875 
Q 20.21875 -1.421875 15.453125 -0.5625 
Q 10.6875 0.296875 5.421875 2 
L 5.421875 11.28125 
Q 10.40625 8.6875 15.234375 7.390625 
Q 20.0625 6.109375 24.8125 6.109375 
Q 31.15625 6.109375 34.5625 8.28125 
Q 37.984375 10.453125 37.984375 14.40625 
Q 37.984375 18.0625 35.515625 20.015625 
Q 33.0625 21.96875 24.703125 23.78125 
L 21.578125 24.515625 
Q 13.234375 26.265625 9.515625 29.90625 
Q 5.8125 33.546875 5.8125 39.890625 
Q 5.8125 47.609375 11.28125 51.796875 
Q 16.75 56 26.8125 56 
Q 31.78125 56 36.171875 55.265625 
Q 40.578125 54.546875 44.28125 53.078125 
z
" id="DejaVuSans-73"/>
     </defs>
     <g transform="translate(205.662344 335.860562)scale(0.1 -0.1)">
      <use xlink:href="#DejaVuSans-47"/>
      <use x="77.490234" xlink:href="#DejaVuSans-65"/>
      <use x="139.013672" xlink:href="#DejaVuSans-6e"/>
      <use x="202.392578" xlink:href="#DejaVuSans-65"/>
      <use x="263.916016" xlink:href="#DejaVuSans-72"/>
      <use x="305.029297" xlink:href="#DejaVuSans-61"/>
      <use x="366.308594" xlink:href="#DejaVuSans-74"/>
      <use x="405.517578" xlink:href="#DejaVuSans-69"/>
      <use x="433.300781" xlink:href="#DejaVuSans-6f"/>
      <use x="494.482422" xlink:href="#DejaVuSans-6e"/>
      <use x="557.861328" xlink:href="#DejaVuSans-73"/>
     </g>
    </g>
   </g>
   <g id="matplotlib.axis_2">
    <g id="ytick_1">
     <g id="line2d_13">
      <path clip-path="url(#p3d2f9f42a8)" d="M 57.6 308.036376 
L 414.72 308.036376 
" style="fill:none;stroke:#b0b0b0;stroke-linecap:square;stroke-width:0.8;"/>
     </g>
     <g id="line2d_14">
      <defs>
       <path d="M 0 0 
L -3.5 0 
" id="m54df30e3e4" style="stroke:#000000;stroke-width:0.8;"/>
      </defs>
      <g>
       <use style="stroke:#000000;stroke-width:0.8;" x="57.6" xlink:href="#m54df30e3e4" y="308.036376"/>
      </g>
     </g>
     <g id="text_8">
      <!-- −200 -->
      <defs>
       <path d="M 10.59375 35.5 
L 73.1875 35.5 
L 73.1875 27.203125 
L 10.59375 27.203125 
z
" id="DejaVuSans-2212"/>
      </defs>
      <g transform="translate(23.132812 311.835595)scale(0.1 -0.1)">
       <use xlink:href="#DejaVuSans-2212"/>
       <use x="83.789062" xlink:href="#DejaVuSans-32"/>
       <use x="147.412109" xlink:href="#DejaVuSans-30"/>
       <use x="211.035156" xlink:href="#DejaVuSans-30"/>
      </g>
     </g>
    </g>
    <g id="ytick_2">
     <g id="line2d_15">
      <path clip-path="url(#p3d2f9f42a8)" d="M 57.6 271.972264 
L 414.72 271.972264 
" style="fill:none;stroke:#b0b0b0;stroke-linecap:square;stroke-width:0.8;"/>
     </g>
     <g id="line2d_16">
      <g>
       <use style="stroke:#000000;stroke-width:0.8;" x="57.6" xlink:href="#m54df30e3e4" y="271.972264"/>
      </g>
     </g>
     <g id="text_9">
      <!-- 0 -->
      <g transform="translate(44.2375 275.771483)scale(0.1 -0.1)">
       <use xlink:href="#DejaVuSans-30"/>
      </g>
     </g>
    </g>
    <g id="ytick_3">
     <g id="line2d_17">
      <path clip-path="url(#p3d2f9f42a8)" d="M 57.6 235.908152 
L 414.72 235.908152 
" style="fill:none;stroke:#b0b0b0;stroke-linecap:square;stroke-width:0.8;"/>
     </g>
     <g id="line2d_18">
      <g>
       <use style="stroke:#000000;stroke-width:0.8;" x="57.6" xlink:href="#m54df30e3e4" y="235.908152"/>
      </g>
     </g>
     <g id="text_10">
      <!-- 200 -->
      <g transform="translate(31.5125 239.70737)scale(0.1 -0.1)">
       <use xlink:href="#DejaVuSans-32"/>
       <use x="63.623047" xlink:href="#DejaVuSans-30"/>
       <use x="127.246094" xlink:href="#DejaVuSans-30"/>
      </g>
     </g>
    </g>
    <g id="ytick_4">
     <g id="line2d_19">
      <path clip-path="url(#p3d2f9f42a8)" d="M 57.6 199.844039 
L 414.72 199.844039 
" style="fill:none;stroke:#b0b0b0;stroke-linecap:square;stroke-width:0.8;"/>
     </g>
     <g id="line2d_20">
      <g>
       <use style="stroke:#000000;stroke-width:0.8;" x="57.6" xlink:href="#m54df30e3e4" y="199.844039"/>
      </g>
     </g>
     <g id="text_11">
      <!-- 400 -->
      <defs>
       <path d="M 37.796875 64.3125 
L 12.890625 25.390625 
L 37.796875 25.390625 
z
M 35.203125 72.90625 
L 47.609375 72.90625 
L 47.609375 25.390625 
L 58.015625 25.390625 
L 58.015625 17.1875 
L 47.609375 17.1875 
L 47.609375 0 
L 37.796875 0 
L 37.796875 17.1875 
L 4.890625 17.1875 
L 4.890625 26.703125 
z
" id="DejaVuSans-34"/>
      </defs>
      <g transform="translate(31.5125 203.643258)scale(0.1 -0.1)">
       <use xlink:href="#DejaVuSans-34"/>
       <use x="63.623047" xlink:href="#DejaVuSans-30"/>
       <use x="127.246094" xlink:href="#DejaVuSans-30"/>
      </g>
     </g>
    </g>
    <g id="ytick_5">
     <g id="line2d_21">
      <path clip-path="url(#p3d2f9f42a8)" d="M 57.6 163.779927 
L 414.72 163.779927 
" style="fill:none;stroke:#b0b0b0;stroke-linecap:square;stroke-width:0.8;"/>
     </g>
     <g id="line2d_22">
      <g>
       <use style="stroke:#000000;stroke-width:0.8;" x="57.6" xlink:href="#m54df30e3e4" y="163.779927"/>
      </g>
     </g>
     <g id="text_12">
      <!-- 600 -->
      <defs>
       <path d="M 33.015625 40.375 
Q 26.375 40.375 22.484375 35.828125 
Q 18.609375 31.296875 18.609375 23.390625 
Q 18.609375 15.53125 22.484375 10.953125 
Q 26.375 6.390625 33.015625 6.390625 
Q 39.65625 6.390625 43.53125 10.953125 
Q 47.40625 15.53125 47.40625 23.390625 
Q 47.40625 31.296875 43.53125 35.828125 
Q 39.65625 40.375 33.015625 40.375 
z
M 52.59375 71.296875 
L 52.59375 62.3125 
Q 48.875 64.0625 45.09375 64.984375 
Q 41.3125 65.921875 37.59375 65.921875 
Q 27.828125 65.921875 22.671875 59.328125 
Q 17.53125 52.734375 16.796875 39.40625 
Q 19.671875 43.65625 24.015625 45.921875 
Q 28.375 48.1875 33.59375 48.1875 
Q 44.578125 48.1875 50.953125 41.515625 
Q 57.328125 34.859375 57.328125 23.390625 
Q 57.328125 12.15625 50.6875 5.359375 
Q 44.046875 -1.421875 33.015625 -1.421875 
Q 20.359375 -1.421875 13.671875 8.265625 
Q 6.984375 17.96875 6.984375 36.375 
Q 6.984375 53.65625 15.1875 63.9375 
Q 23.390625 74.21875 37.203125 74.21875 
Q 40.921875 74.21875 44.703125 73.484375 
Q 48.484375 72.75 52.59375 71.296875 
z
" id="DejaVuSans-36"/>
      </defs>
      <g transform="translate(31.5125 167.579146)scale(0.1 -0.1)">
       <use xlink:href="#DejaVuSans-36"/>
       <use x="63.623047" xlink:href="#DejaVuSans-30"/>
       <use x="127.246094" xlink:href="#DejaVuSans-30"/>
      </g>
     </g>
    </g>
    <g id="ytick_6">
     <g id="line2d_23">
      <path clip-path="url(#p3d2f9f42a8)" d="M 57.6 127.715815 
L 414.72 127.715815 
" style="fill:none;stroke:#b0b0b0;stroke-linecap:square;stroke-width:0.8;"/>
     </g>
     <g id="line2d_24">
      <g>
       <use style="stroke:#000000;stroke-width:0.8;" x="57.6" xlink:href="#m54df30e3e4" y="127.715815"/>
      </g>
     </g>
     <g id="text_13">
      <!-- 800 -->
      <defs>
       <path d="M 31.78125 34.625 
Q 24.75 34.625 20.71875 30.859375 
Q 16.703125 27.09375 16.703125 20.515625 
Q 16.703125 13.921875 20.71875 10.15625 
Q 24.75 6.390625 31.78125 6.390625 
Q 38.8125 6.390625 42.859375 10.171875 
Q 46.921875 13.96875 46.921875 20.515625 
Q 46.921875 27.09375 42.890625 30.859375 
Q 38.875 34.625 31.78125 34.625 
z
M 21.921875 38.8125 
Q 15.578125 40.375 12.03125 44.71875 
Q 8.5 49.078125 8.5 55.328125 
Q 8.5 64.0625 14.71875 69.140625 
Q 20.953125 74.21875 31.78125 74.21875 
Q 42.671875 74.21875 48.875 69.140625 
Q 55.078125 64.0625 55.078125 55.328125 
Q 55.078125 49.078125 51.53125 44.71875 
Q 48 40.375 41.703125 38.8125 
Q 48.828125 37.15625 52.796875 32.3125 
Q 56.78125 27.484375 56.78125 20.515625 
Q 56.78125 9.90625 50.3125 4.234375 
Q 43.84375 -1.421875 31.78125 -1.421875 
Q 19.734375 -1.421875 13.25 4.234375 
Q 6.78125 9.90625 6.78125 20.515625 
Q 6.78125 27.484375 10.78125 32.3125 
Q 14.796875 37.15625 21.921875 38.8125 
z
M 18.3125 54.390625 
Q 18.3125 48.734375 21.84375 45.5625 
Q 25.390625 42.390625 31.78125 42.390625 
Q 38.140625 42.390625 41.71875 45.5625 
Q 45.3125 48.734375 45.3125 54.390625 
Q 45.3125 60.0625 41.71875 63.234375 
Q 38.140625 66.40625 31.78125 66.40625 
Q 25.390625 66.40625 21.84375 63.234375 
Q 18.3125 60.0625 18.3125 54.390625 
z
" id="DejaVuSans-38"/>
      </defs>
      <g transform="translate(31.5125 131.515034)scale(0.1 -0.1)">
       <use xlink:href="#DejaVuSans-38"/>
       <use x="63.623047" xlink:href="#DejaVuSans-30"/>
       <use x="127.246094" xlink:href="#DejaVuSans-30"/>
      </g>
     </g>
    </g>
    <g id="ytick_7">
     <g id="line2d_25">
      <path clip-path="url(#p3d2f9f42a8)" d="M 57.6 91.651703 
L 414.72 91.651703 
" style="fill:none;stroke:#b0b0b0;stroke-linecap:square;stroke-width:0.8;"/>
     </g>
     <g id="line2d_26">
      <g>
       <use style="stroke:#000000;stroke-width:0.8;" x="57.6" xlink:href="#m54df30e3e4" y="91.651703"/>
      </g>
     </g>
     <g id="text_14">
      <!-- 1000 -->
      <g transform="translate(25.15 95.450921)scale(0.1 -0.1)">
       <use xlink:href="#DejaVuSans-31"/>
       <use x="63.623047" xlink:href="#DejaVuSans-30"/>
       <use x="127.246094" xlink:href="#DejaVuSans-30"/>
       <use x="190.869141" xlink:href="#DejaVuSans-30"/>
      </g>
     </g>
    </g>
    <g id="ytick_8">
     <g id="line2d_27">
      <path clip-path="url(#p3d2f9f42a8)" d="M 57.6 55.58759 
L 414.72 55.58759 
" style="fill:none;stroke:#b0b0b0;stroke-linecap:square;stroke-width:0.8;"/>
     </g>
     <g id="line2d_28">
      <g>
       <use style="stroke:#000000;stroke-width:0.8;" x="57.6" xlink:href="#m54df30e3e4" y="55.58759"/>
      </g>
     </g>
     <g id="text_15">
      <!-- 1200 -->
      <g transform="translate(25.15 59.386809)scale(0.1 -0.1)">
       <use xlink:href="#DejaVuSans-31"/>
       <use x="63.623047" xlink:href="#DejaVuSans-32"/>
       <use x="127.246094" xlink:href="#DejaVuSans-30"/>
       <use x="190.869141" xlink:href="#DejaVuSans-30"/>
      </g>
     </g>
    </g>
    <g id="text_16">
     <!-- Fitness -->
     <defs>
      <path d="M 9.8125 72.90625 
L 51.703125 72.90625 
L 51.703125 64.59375 
L 19.671875 64.59375 
L 19.671875 43.109375 
L 48.578125 43.109375 
L 48.578125 34.8125 
L 19.671875 34.8125 
L 19.671875 0 
L 9.8125 0 
z
" id="DejaVuSans-46"/>
     </defs>
     <g transform="translate(17.053125 192.202219)rotate(-90)scale(0.1 -0.1)">
      <use xlink:href="#DejaVuSans-46"/>
      <use x="57.410156" xlink:href="#DejaVuSans-69"/>
      <use x="85.193359" xlink:href="#DejaVuSans-74"/>
      <use x="124.402344" xlink:href="#DejaVuSans-6e"/>
      <use x="187.78125" xlink:href="#DejaVuSans-65"/>
      <use x="249.304688" xlink:href="#DejaVuSans-73"/>
      <use x="301.404297" xlink:href="#DejaVuSans-73"/>
     </g>
    </g>
   </g>
   <g id="line2d_29">
    <path clip-path="url(#p3d2f9f42a8)" d="M 73.832727 266.667594 
L 75.174275 266.234464 
L 76.515823 264.373916 
L 77.85737 265.47279 
L 79.198918 263.944753 
L 80.540466 265.188244 
L 81.882014 263.462937 
L 83.223561 265.498756 
L 84.565109 258.119317 
L 85.906657 263.461855 
L 87.248204 257.933948 
L 88.589752 263.16685 
L 89.9313 255.877211 
L 91.272847 263.258093 
L 92.614395 249.060373 
L 93.955943 246.612341 
L 95.297491 255.447327 
L 96.639038 252.996049 
L 97.980586 257.655172 
L 99.322134 243.637773 
L 100.663681 256.651868 
L 102.005229 260.153694 
L 103.346777 257.60901 
L 104.688325 248.672323 
L 106.029872 252.325257 
L 107.37142 247.803538 
L 108.712968 254.247113 
L 110.054515 259.917474 
L 111.396063 248.933427 
L 112.737611 248.023169 
L 114.079159 253.320626 
L 115.420706 250.199277 
L 116.762254 243.307426 
L 118.103802 248.865266 
L 119.445349 243.237461 
L 120.786897 248.772942 
L 122.128445 252.026285 
L 123.469992 245.039585 
L 124.81154 246.098427 
L 126.153088 249.534616 
L 127.494636 249.310658 
L 128.836183 252.174509 
L 130.177731 247.138516 
L 131.519279 254.321405 
L 132.860826 245.363801 
L 134.202374 244.86828 
L 135.543922 246.932951 
L 136.88547 234.797738 
L 138.227017 250.904331 
L 139.568565 223.875721 
L 140.910113 247.255003 
L 142.25166 248.486232 
L 143.593208 239.367782 
L 144.934756 240.525801 
L 146.276304 236.398624 
L 147.617851 232.654808 
L 148.959399 226.769506 
L 150.300947 235.641277 
L 151.642494 228.730311 
L 152.984042 234.331429 
L 154.32559 237.705948 
L 155.667137 229.121246 
L 157.008685 232.564287 
L 158.350233 228.047618 
L 159.691781 237.053909 
L 161.033328 241.243476 
L 162.374876 229.503887 
L 163.716424 221.419755 
L 165.057971 230.552631 
L 166.399519 241.063877 
L 167.741067 223.528784 
L 169.082615 227.627832 
L 170.424162 233.381861 
L 171.76571 223.853722 
L 173.107258 224.717458 
L 174.448805 241.919679 
L 175.790353 218.811238 
L 177.131901 236.608156 
L 178.473449 236.553339 
L 179.814996 211.378424 
L 181.156544 218.67167 
L 182.498092 222.756652 
L 183.839639 222.965463 
L 185.181187 219.636746 
L 186.522735 229.315632 
L 187.864282 230.76036 
L 189.20583 221.712235 
L 190.547378 245.810996 
L 191.888926 238.576175 
L 193.230473 224.685361 
L 194.572021 234.580992 
L 195.913569 234.154715 
L 197.255116 239.852123 
L 198.596664 236.422787 
L 199.938212 218.476563 
L 201.27976 238.013575 
L 202.621307 236.524487 
L 203.962855 249.949714 
L 205.304403 248.94641 
L 206.64595 239.897203 
L 207.987498 240.326366 
L 209.329046 239.375716 
L 210.670594 239.308997 
L 212.012141 234.18032 
L 213.353689 248.452332 
L 214.695237 244.638913 
L 216.036784 237.710275 
L 217.378332 226.828651 
L 218.71988 226.488927 
L 220.061427 236.660088 
L 221.402975 243.149465 
L 222.744523 229.287502 
L 224.086071 238.392608 
L 225.427618 219.350396 
L 226.769166 233.37032 
L 228.110714 220.572609 
L 229.452261 251.566829 
L 230.793809 239.273294 
L 232.135357 229.183637 
L 233.476905 227.848905 
L 234.818452 229.663651 
L 236.16 241.309474 
L 237.501548 230.386375 
L 238.843095 209.247757 
L 240.184643 231.252635 
L 241.526191 244.254109 
L 242.867739 231.623014 
L 244.209286 241.360685 
L 245.550834 226.797996 
L 246.892382 239.288441 
L 248.233929 236.690022 
L 249.575477 230.150877 
L 250.917025 230.655053 
L 252.258573 220.529332 
L 253.60012 220.116759 
L 254.941668 240.087346 
L 256.283216 206.451345 
L 257.624763 233.078887 
L 258.966311 236.782706 
L 260.307859 236.511144 
L 261.649406 232.814933 
L 262.990954 213.22635 
L 264.332502 228.584973 
L 265.67405 230.735115 
L 267.015597 195.286618 
L 268.357145 230.247529 
L 269.698693 212.657618 
L 271.04024 223.805036 
L 272.381788 227.353023 
L 273.723336 226.745343 
L 275.064884 240.164078 
L 276.406431 239.117504 
L 277.747979 236.950765 
L 279.089527 240.440689 
L 280.431074 218.091759 
L 281.772622 231.65789 
L 283.11417 241.972933 
L 284.455718 237.147675 
L 285.797265 226.148121 
L 287.138813 240.687728 
L 288.480361 232.23394 
L 289.821908 234.543846 
L 291.163456 234.605155 
L 292.505004 220.413566 
L 293.846551 207.605036 
L 295.188099 226.003143 
L 296.529647 225.339245 
L 297.871195 217.735806 
L 299.212742 219.251316 
L 300.55429 256.713538 
L 301.895838 230.582204 
L 303.237385 231.130017 
L 304.578933 237.577708 
L 305.920481 245.822897 
L 308.603576 209.571252 
L 309.945124 222.448304 
L 311.286672 222.591839 
L 312.628219 233.158984 
L 313.969767 234.321331 
L 315.311315 241.957376 
L 316.652863 230.556874 
L 317.99441 229.698272 
L 319.335958 197.451186 
L 320.677506 226.705179 
L 322.019053 235.48311 
L 323.360601 222.848159 
L 324.702149 219.062965 
L 326.043696 227.572653 
L 327.385244 223.435121 
L 328.726792 217.310478 
L 330.06834 241.61133 
L 331.409887 216.252503 
L 332.751435 226.687407 
L 334.092983 222.27772 
L 335.43453 214.367057 
L 336.776078 238.82682 
L 338.117626 237.225574 
L 339.459174 222.130579 
L 340.800721 239.661344 
L 342.142269 222.414764 
L 343.483817 230.904977 
L 344.825364 221.143143 
L 346.166912 200.521684 
L 347.50846 202.654155 
L 348.850008 219.244368 
L 350.191555 214.538723 
L 351.533103 217.948945 
L 352.874651 244.615471 
L 354.216198 228.872765 
L 355.557746 218.752453 
L 356.899294 204.617125 
L 358.240841 188.535776 
L 359.582389 204.599453 
L 360.923937 216.496283 
L 362.265485 201.933233 
L 363.607032 232.043161 
L 364.94858 231.415226 
L 366.290128 211.662249 
L 367.631675 238.053259 
L 368.973223 223.054478 
L 370.314771 205.669475 
L 371.656319 228.782965 
L 372.997866 228.472814 
L 374.339414 219.727627 
L 375.680962 215.974435 
L 377.022509 239.099826 
L 378.364057 219.419279 
L 379.705605 213.437685 
L 381.047153 225.797217 
L 382.3887 241.380704 
L 383.730248 231.689711 
L 385.071796 231.977899 
L 386.413343 228.136696 
L 387.754891 259.979143 
L 389.096439 231.967617 
L 390.437986 227.139884 
L 391.779534 216.571296 
L 393.121082 223.288598 
L 394.46263 219.325873 
L 395.804177 240.128374 
L 397.145725 248.652488 
L 398.487273 211.084141 
L 398.487273 211.084141 
" style="fill:none;stroke:#0000ff;stroke-linecap:square;stroke-width:1.5;"/>
   </g>
   <g id="line2d_30">
    <path clip-path="url(#p3d2f9f42a8)" d="M 73.832727 268.051961 
L 75.174275 267.354479 
L 76.515823 273.723417 
L 77.85737 270.537819 
L 80.540466 268.080755 
L 81.882014 267.636544 
L 83.223561 268.803154 
L 84.565109 277.140145 
L 85.906657 283.310905 
L 87.248204 279.794475 
L 88.589752 281.889084 
L 89.9313 271.33705 
L 91.272847 277.978275 
L 92.614395 269.407439 
L 93.955943 272.380712 
L 96.639038 284.710752 
L 97.980586 286.002299 
L 99.322134 274.6109 
L 100.663681 270.695511 
L 102.005229 288.619323 
L 103.346777 280.8274 
L 104.688325 274.232419 
L 106.029872 285.783891 
L 107.37142 276.194094 
L 108.712968 288.23688 
L 110.054515 285.618328 
L 111.396063 272.871537 
L 112.737611 278.393722 
L 114.079159 285.955683 
L 115.420706 283.719332 
L 116.762254 278.922117 
L 118.103802 286.678087 
L 119.445349 277.022485 
L 120.786897 283.168231 
L 122.128445 290.4757 
L 123.469992 281.209005 
L 124.81154 290.481854 
L 126.153088 291.292505 
L 127.494636 287.393581 
L 128.836183 289.379561 
L 130.177731 287.727954 
L 131.519279 283.279032 
L 132.860826 285.767619 
L 134.202374 266.018342 
L 135.543922 286.067131 
L 136.88547 270.062984 
L 138.227017 285.53825 
L 139.568565 277.338806 
L 140.910113 291.013597 
L 142.25166 293.616621 
L 143.593208 288.585277 
L 144.934756 293.464833 
L 146.276304 286.361241 
L 147.617851 280.310254 
L 148.959399 285.066597 
L 150.300947 291.248328 
L 151.642494 291.559363 
L 152.984042 295.488 
L 154.32559 287.97399 
L 155.667137 287.270009 
L 157.008685 280.942709 
L 158.350233 280.149892 
L 159.691781 289.814747 
L 161.033328 270.503412 
L 162.374876 277.222089 
L 163.716424 277.231647 
L 165.057971 267.82149 
L 166.399519 284.917184 
L 167.741067 286.127449 
L 169.082615 281.439656 
L 170.424162 278.855229 
L 171.76571 287.488794 
L 173.107258 277.524866 
L 174.448805 283.998702 
L 175.790353 280.952789 
L 177.131901 282.819697 
L 178.473449 283.47689 
L 179.814996 272.880205 
L 181.156544 274.366101 
L 182.498092 284.323988 
L 183.839639 274.306648 
L 185.181187 271.561386 
L 186.522735 283.797282 
L 189.20583 270.043797 
L 190.547378 290.301702 
L 191.888926 283.922026 
L 193.230473 287.411372 
L 194.572021 280.041875 
L 195.913569 277.39873 
L 197.255116 282.775198 
L 198.596664 293.472493 
L 199.938212 267.956299 
L 201.27976 282.753443 
L 202.621307 283.928252 
L 203.962855 286.227116 
L 205.304403 272.930285 
L 206.64595 280.156539 
L 207.987498 286.438269 
L 209.329046 281.013215 
L 210.670594 280.099324 
L 212.012141 273.036758 
L 213.353689 272.796116 
L 214.695237 282.376286 
L 216.036784 275.211243 
L 217.378332 271.83687 
L 218.71988 275.727548 
L 220.061427 277.252711 
L 221.402975 273.389703 
L 222.744523 275.665294 
L 224.086071 283.237423 
L 225.427618 286.26491 
L 226.769166 286.211946 
L 228.110714 285.569701 
L 229.452261 267.952208 
L 230.793809 281.174292 
L 232.135357 286.108458 
L 233.476905 268.646802 
L 234.818452 279.898063 
L 236.16 280.931572 
L 237.501548 278.810557 
L 238.843095 266.440475 
L 240.184643 260.87287 
L 241.526191 280.464897 
L 242.867739 268.29499 
L 244.209286 287.12161 
L 245.550834 280.617089 
L 246.892382 276.280823 
L 248.233929 286.966442 
L 249.575477 279.820803 
L 250.917025 293.101846 
L 252.258573 264.384482 
L 253.60012 281.362956 
L 254.941668 285.255455 
L 256.283216 282.110606 
L 257.624763 289.793926 
L 258.966311 284.9764 
L 260.307859 289.078573 
L 261.649406 276.48837 
L 262.990954 268.864046 
L 264.332502 281.419317 
L 265.67405 282.197942 
L 267.015597 260.644258 
L 268.357145 292.312698 
L 269.698693 289.086079 
L 271.04024 270.111462 
L 272.381788 286.212181 
L 273.723336 270.116658 
L 275.064884 269.098381 
L 276.406431 278.940175 
L 277.747979 287.206703 
L 279.089527 279.182022 
L 280.431074 278.851725 
L 281.772622 295.071623 
L 283.11417 285.472339 
L 284.455718 291.505914 
L 285.797265 289.522514 
L 287.138813 289.588452 
L 288.480361 283.62563 
L 289.821908 276.316729 
L 291.163456 278.27091 
L 292.505004 289.399926 
L 293.846551 273.36144 
L 295.188099 275.053028 
L 296.529647 273.391052 
L 297.871195 277.47253 
L 299.212742 266.963718 
L 300.55429 274.317258 
L 301.895838 279.735432 
L 303.237385 275.407225 
L 304.578933 267.70839 
L 307.262029 292.067701 
L 308.603576 274.009772 
L 309.945124 271.315812 
L 311.286672 282.837262 
L 312.628219 270.930768 
L 313.969767 282.86164 
L 315.311315 280.507503 
L 316.652863 285.995716 
L 317.99441 281.230135 
L 319.335958 270.017863 
L 320.677506 279.125312 
L 322.019053 271.522257 
L 323.360601 290.696955 
L 324.702149 281.027348 
L 326.043696 280.698256 
L 327.385244 284.33129 
L 328.726792 276.52834 
L 330.06834 284.472806 
L 331.409887 288.751996 
L 332.751435 269.618676 
L 334.092983 283.244724 
L 335.43453 277.774857 
L 336.776078 270.892276 
L 338.117626 285.470397 
L 339.459174 281.017505 
L 340.800721 271.549981 
L 342.142269 284.972193 
L 343.483817 281.148481 
L 344.825364 273.228332 
L 346.166912 275.063758 
L 347.50846 260.107636 
L 348.850008 272.101474 
L 350.191555 282.886136 
L 351.533103 270.013629 
L 352.874651 272.95247 
L 354.216198 279.733453 
L 355.557746 284.539898 
L 356.899294 283.578738 
L 358.240841 258.553597 
L 359.582389 270.31749 
L 360.923937 269.660987 
L 362.265485 264.751453 
L 363.607032 270.621528 
L 364.94858 277.977008 
L 366.290128 262.094148 
L 367.631675 284.76682 
L 368.973223 267.475371 
L 370.314771 277.47762 
L 371.656319 283.221403 
L 372.997866 283.47021 
L 374.339414 279.418744 
L 375.680962 282.923082 
L 377.022509 279.715514 
L 378.364057 283.49803 
L 379.705605 282.212881 
L 381.047153 284.942034 
L 382.3887 274.058406 
L 383.730248 272.34834 
L 385.071796 283.039479 
L 386.413343 286.150405 
L 387.754891 267.12623 
L 389.096439 294.590257 
L 391.779534 267.353422 
L 393.121082 287.538029 
L 394.46263 286.967004 
L 395.804177 290.36985 
L 397.145725 270.873987 
L 398.487273 279.39257 
L 398.487273 279.39257 
" style="fill:none;stroke:#008000;stroke-dasharray:9.6,2.4,1.5,2.4;stroke-dashoffset:0;stroke-width:1.5;"/>
   </g>
   <g id="line2d_31">
    <path clip-path="url(#p3d2f9f42a8)" d="M 73.832727 265.283226 
L 75.174275 265.114448 
L 76.515823 255.024416 
L 77.85737 260.40776 
L 79.198918 258.605383 
L 80.540466 262.295733 
L 81.882014 259.289329 
L 83.223561 262.194358 
L 84.565109 239.09849 
L 85.906657 243.612805 
L 87.248204 236.07342 
L 88.589752 244.444617 
L 89.9313 240.417373 
L 91.272847 248.53791 
L 92.614395 228.713306 
L 93.955943 220.84397 
L 95.297491 232.41591 
L 96.639038 221.281347 
L 97.980586 229.308045 
L 99.322134 212.664646 
L 100.663681 242.608226 
L 102.005229 231.688064 
L 103.346777 234.39062 
L 104.688325 223.112227 
L 106.029872 218.866623 
L 107.37142 219.412982 
L 108.712968 220.257347 
L 110.054515 234.216619 
L 111.396063 224.995317 
L 112.737611 217.652616 
L 114.079159 220.68557 
L 115.420706 216.679223 
L 116.762254 207.692734 
L 118.103802 211.052445 
L 119.445349 209.452437 
L 120.786897 214.377653 
L 122.128445 213.57687 
L 123.469992 208.870165 
L 124.81154 201.715 
L 126.153088 207.776727 
L 128.836183 214.969457 
L 130.177731 206.549078 
L 131.519279 225.363779 
L 132.860826 204.959984 
L 134.202374 223.718219 
L 135.543922 207.798771 
L 136.88547 199.532491 
L 138.227017 216.270411 
L 139.568565 170.412637 
L 140.910113 203.49641 
L 142.25166 203.355843 
L 143.593208 190.150287 
L 144.934756 187.586769 
L 146.276304 186.436006 
L 147.617851 184.999362 
L 148.959399 168.472414 
L 150.300947 180.034226 
L 151.642494 165.90126 
L 152.984042 173.174857 
L 154.32559 187.437905 
L 155.667137 170.972484 
L 157.008685 184.185865 
L 158.350233 175.945344 
L 159.691781 184.29307 
L 161.033328 211.983541 
L 162.374876 181.785684 
L 163.716424 165.607864 
L 165.057971 193.283772 
L 166.399519 197.210571 
L 167.741067 160.93012 
L 169.082615 173.816007 
L 170.424162 187.908493 
L 171.76571 160.21865 
L 173.107258 171.910049 
L 174.448805 199.840655 
L 175.790353 156.669687 
L 177.131901 190.396616 
L 178.473449 189.629787 
L 179.814996 149.876644 
L 181.156544 162.977239 
L 182.498092 161.189315 
L 183.839639 171.624279 
L 185.181187 167.712105 
L 186.522735 174.833982 
L 187.864282 184.625855 
L 189.20583 173.380673 
L 190.547378 201.32029 
L 191.888926 193.230323 
L 193.230473 161.959349 
L 194.572021 189.12011 
L 195.913569 190.9107 
L 197.255116 196.929048 
L 198.596664 179.37308 
L 199.938212 168.996827 
L 201.27976 193.273706 
L 202.621307 189.120722 
L 203.962855 213.672312 
L 205.304403 224.962535 
L 206.64595 199.637867 
L 207.987498 194.214463 
L 209.329046 197.738218 
L 210.670594 198.518671 
L 212.012141 195.323882 
L 213.353689 224.108548 
L 214.695237 206.901539 
L 216.036784 200.209308 
L 217.378332 181.820431 
L 218.71988 177.250306 
L 220.061427 196.067466 
L 221.402975 212.909227 
L 222.744523 182.90971 
L 224.086071 193.547793 
L 225.427618 152.435883 
L 226.769166 180.528694 
L 228.110714 155.575517 
L 229.452261 235.181449 
L 230.793809 197.372296 
L 232.135357 172.258817 
L 233.476905 187.051007 
L 234.818452 179.429239 
L 236.16 201.687376 
L 237.501548 181.962194 
L 238.843095 152.055038 
L 240.184643 201.632401 
L 241.526191 208.04332 
L 242.867739 194.951038 
L 244.209286 195.59976 
L 245.550834 172.978903 
L 246.892382 202.296058 
L 248.233929 186.413601 
L 249.575477 180.480951 
L 250.917025 168.20826 
L 252.258573 176.674183 
L 253.60012 158.870562 
L 254.941668 194.919237 
L 256.283216 130.792085 
L 257.624763 176.363847 
L 258.966311 188.589013 
L 260.307859 183.943714 
L 261.649406 189.141495 
L 262.990954 157.588653 
L 264.332502 175.750629 
L 265.67405 179.272289 
L 267.015597 129.928977 
L 268.357145 168.182359 
L 269.698693 136.229158 
L 271.04024 177.49861 
L 272.381788 168.493865 
L 273.723336 183.374028 
L 275.064884 211.229774 
L 277.747979 186.694828 
L 279.089527 201.699357 
L 280.431074 157.331793 
L 281.772622 168.244157 
L 283.11417 198.473527 
L 284.455718 182.789437 
L 285.797265 162.773728 
L 287.138813 191.787005 
L 288.480361 180.84225 
L 289.821908 192.770964 
L 291.163456 190.9394 
L 292.505004 151.427207 
L 293.846551 141.848633 
L 295.188099 176.953258 
L 296.529647 177.287438 
L 297.871195 157.999083 
L 299.212742 171.538914 
L 300.55429 239.109818 
L 301.895838 181.428975 
L 303.237385 186.85281 
L 304.578933 207.447026 
L 305.920481 212.205647 
L 307.262029 164.160251 
L 308.603576 145.132732 
L 309.945124 173.580796 
L 311.286672 162.346415 
L 312.628219 195.387201 
L 313.969767 185.781021 
L 315.311315 203.40725 
L 316.652863 175.118032 
L 317.99441 178.16641 
L 319.335958 124.884508 
L 320.677506 174.285046 
L 322.019053 199.443964 
L 323.360601 154.999363 
L 324.702149 157.098583 
L 326.043696 174.44705 
L 327.385244 162.538952 
L 328.726792 158.092616 
L 330.06834 198.749854 
L 331.409887 143.753011 
L 332.751435 183.756137 
L 334.092983 161.310717 
L 335.43453 150.959258 
L 336.776078 206.761365 
L 338.117626 188.98075 
L 339.459174 163.243652 
L 340.800721 207.772707 
L 342.142269 159.857335 
L 343.483817 180.661473 
L 344.825364 169.057955 
L 346.166912 125.979611 
L 347.50846 145.200674 
L 348.850008 166.387261 
L 350.191555 146.191309 
L 351.533103 165.884261 
L 352.874651 216.278472 
L 354.216198 178.012076 
L 355.557746 152.965009 
L 356.899294 125.655511 
L 358.240841 118.517956 
L 359.582389 138.881417 
L 360.923937 163.331578 
L 362.265485 139.115014 
L 363.607032 193.464794 
L 364.94858 184.853443 
L 366.290128 161.23035 
L 367.631675 191.339698 
L 368.973223 178.633584 
L 370.314771 133.861331 
L 371.656319 174.344527 
L 372.997866 173.475418 
L 374.339414 160.03651 
L 375.680962 149.025788 
L 377.022509 198.484137 
L 378.364057 155.340528 
L 379.705605 144.66249 
L 381.047153 166.652401 
L 382.3887 208.703002 
L 383.730248 191.031083 
L 386.413343 170.122987 
L 387.754891 252.832057 
L 389.096439 169.344977 
L 390.437986 173.064112 
L 394.46263 151.684742 
L 397.145725 226.430988 
L 398.487273 142.775713 
L 398.487273 142.775713 
" style="fill:none;stroke:#008000;stroke-dasharray:9.6,2.4,1.5,2.4;stroke-dashoffset:0;stroke-width:1.5;"/>
   </g>
   <g id="line2d_32">
    <path clip-path="url(#p3d2f9f42a8)" d="M 73.832727 257.20401 
L 75.174275 262.036601 
L 76.515823 200.330905 
L 77.85737 232.247644 
L 79.198918 251.073111 
L 80.540466 258.754767 
L 81.882014 257.618747 
L 83.223561 243.427519 
L 84.565109 151.391905 
L 85.906657 124.668397 
L 87.248204 111.108291 
L 88.589752 132.368085 
L 89.9313 195.083577 
L 91.272847 162.157042 
L 92.614395 135.379439 
L 93.955943 156.729393 
L 95.297491 161.543952 
L 96.639038 117.004773 
L 97.980586 145.856063 
L 99.322134 116.409716 
L 100.663681 178.908822 
L 102.005229 95.40237 
L 103.346777 146.288833 
L 104.688325 121.476723 
L 106.029872 116.319555 
L 107.37142 175.789277 
L 108.712968 103.228283 
L 110.054515 135.776144 
L 111.396063 145.874095 
L 112.737611 161.52592 
L 114.079159 159.885003 
L 115.420706 132.836919 
L 116.762254 135.451567 
L 119.445349 164.032376 
L 120.786897 139.815325 
L 122.128445 109.990304 
L 123.469992 161.886561 
L 124.81154 123.929083 
L 126.153088 134.712253 
L 127.494636 153.844264 
L 128.836183 138.517016 
L 130.177731 129.789501 
L 131.519279 115.580241 
L 132.860826 132.259893 
L 134.202374 202.7472 
L 135.543922 135.595823 
L 136.88547 121.440659 
L 138.227017 156.621201 
L 139.568565 105.446226 
L 140.910113 125.101167 
L 142.25166 54.487635 
L 143.593208 103.228283 
L 144.934756 126.940436 
L 146.276304 143.962697 
L 147.617851 132.981175 
L 148.959399 105.969155 
L 150.300947 87.197785 
L 151.642494 105.301969 
L 152.984042 107.447784 
L 154.32559 126.399475 
L 155.667137 88.946894 
L 157.008685 129.969822 
L 158.350233 138.012119 
L 159.691781 73.096717 
L 161.033328 173.499205 
L 162.374876 137.290837 
L 163.716424 132.187765 
L 165.057971 170.704237 
L 166.399519 159.794843 
L 167.741067 122.143909 
L 169.082615 99.712032 
L 170.424162 123.712698 
L 171.76571 78.65059 
L 173.107258 135.559759 
L 174.448805 143.728281 
L 175.790353 86.710919 
L 177.131901 151.283712 
L 178.473449 154.186873 
L 179.814996 110.946003 
L 181.156544 126.165058 
L 182.498092 105.464258 
L 183.839639 96.53839 
L 185.181187 133.125432 
L 186.522735 113.885228 
L 187.864282 132.079572 
L 189.20583 58.671072 
L 190.547378 127.012565 
L 191.888926 135.902368 
L 193.230473 92.481177 
L 194.572021 165.29462 
L 195.913569 131.646803 
L 197.255116 116.44578 
L 198.596664 107.6822 
L 199.938212 129.627213 
L 201.27976 132.458246 
L 202.621307 130.186207 
L 203.962855 129.933758 
L 205.304403 181.415278 
L 206.64595 132.404149 
L 207.987498 131.538611 
L 209.329046 162.373427 
L 210.670594 156.96381 
L 212.012141 168.251877 
L 213.353689 162.445555 
L 214.695237 138.138343 
L 216.036784 175.663052 
L 217.378332 127.283045 
L 218.71988 135.090926 
L 220.061427 97.349832 
L 221.402975 156.404816 
L 222.744523 118.194889 
L 224.086071 73.006557 
L 225.427618 83.861854 
L 226.769166 87.035496 
L 228.110714 118.880107 
L 229.452261 229.596932 
L 230.793809 140.572671 
L 232.135357 110.206688 
L 233.476905 128.978059 
L 234.818452 123.586474 
L 236.16 166.881441 
L 237.501548 147.731397 
L 238.843095 121.873429 
L 240.184643 197.535936 
L 241.526191 143.746313 
L 242.867739 172.164833 
L 244.209286 132.782823 
L 245.550834 132.422181 
L 246.892382 157.198227 
L 248.233929 118.699787 
L 249.575477 138.661273 
L 250.917025 108.619867 
L 252.258573 161.417728 
L 253.60012 116.103171 
L 254.941668 119.439101 
L 256.283216 99.585807 
L 257.624763 131.628771 
L 258.966311 142.970934 
L 260.307859 95.204018 
L 261.649406 166.773248 
L 262.990954 121.963589 
L 264.332502 104.851168 
L 265.67405 142.808646 
L 267.015597 102.434872 
L 268.357145 105.518354 
L 269.698693 53.568 
L 271.04024 161.363632 
L 272.381788 118.916171 
L 273.723336 153.339367 
L 275.064884 161.237407 
L 276.406431 143.097159 
L 277.747979 121.71114 
L 279.089527 158.857176 
L 280.431074 107.664168 
L 281.772622 107.159271 
L 283.11417 149.137898 
L 284.455718 105.013456 
L 285.797265 113.8131 
L 287.138813 134.477836 
L 288.480361 135.12699 
L 289.821908 102.921738 
L 291.163456 150.778815 
L 292.505004 96.736742 
L 293.846551 75.170403 
L 295.188099 162.211138 
L 296.529647 134.694221 
L 297.871195 94.266351 
L 300.55429 223.574225 
L 301.895838 80.616084 
L 303.237385 172.832019 
L 304.578933 197.121199 
L 305.920481 162.93242 
L 307.262029 83.104508 
L 308.603576 121.206243 
L 309.945124 151.572225 
L 311.286672 99.892352 
L 312.628219 148.72316 
L 313.969767 132.169733 
L 315.311315 159.830907 
L 316.652863 121.675076 
L 317.99441 150.544398 
L 319.335958 100.325122 
L 320.677506 121.909493 
L 322.019053 184.318439 
L 323.360601 112.893465 
L 324.702149 135.108958 
L 326.043696 143.151255 
L 327.385244 65.360965 
L 328.726792 99.315326 
L 330.06834 161.778369 
L 331.409887 89.740305 
L 332.751435 161.958689 
L 334.092983 91.200901 
L 335.43453 108.169066 
L 336.776078 198.00477 
L 339.459174 110.22472 
L 340.800721 199.267014 
L 342.142269 94.031934 
L 343.483817 155.845822 
L 344.825364 126.525699 
L 346.166912 103.282379 
L 347.50846 137.308869 
L 348.850008 125.029038 
L 350.191555 91.651703 
L 352.874651 161.543952 
L 354.216198 107.6822 
L 355.557746 99.315326 
L 356.899294 91.669735 
L 358.240841 106.041283 
L 359.582389 123.929083 
L 360.923937 158.785048 
L 362.265485 81.463591 
L 363.607032 170.271467 
L 364.94858 151.427969 
L 366.290128 97.259672 
L 367.631675 154.655707 
L 368.973223 164.356953 
L 370.314771 91.056645 
L 371.656319 110.008336 
L 372.997866 97.584249 
L 374.339414 121.584916 
L 375.680962 95.258114 
L 377.022509 79.011231 
L 378.364057 72.393467 
L 379.705605 111.342708 
L 381.047153 121.53082 
L 382.3887 184.534824 
L 383.730248 140.157934 
L 385.071796 134.838477 
L 386.413343 116.644132 
L 387.754891 250.71247 
L 389.096439 88.928862 
L 390.437986 132.115637 
L 391.779534 132.692662 
L 393.121082 92.300857 
L 394.46263 105.356065 
L 395.804177 132.999207 
L 397.145725 214.107396 
L 398.487273 101.749654 
L 398.487273 101.749654 
" style="fill:none;stroke:#ff0000;stroke-linecap:square;stroke-width:1.5;"/>
   </g>
   <g id="patch_3">
    <path d="M 57.6 307.584 
L 57.6 41.472 
" style="fill:none;stroke:#000000;stroke-linecap:square;stroke-linejoin:miter;stroke-width:0.8;"/>
   </g>
   <g id="patch_4">
    <path d="M 414.72 307.584 
L 414.72 41.472 
" style="fill:none;stroke:#000000;stroke-linecap:square;stroke-linejoin:miter;stroke-width:0.8;"/>
   </g>
   <g id="patch_5">
    <path d="M 57.6 307.584 
L 414.72 307.584 
" style="fill:none;stroke:#000000;stroke-linecap:square;stroke-linejoin:miter;stroke-width:0.8;"/>
   </g>
   <g id="patch_6">
    <path d="M 57.6 41.472 
L 414.72 41.472 
" style="fill:none;stroke:#000000;stroke-linecap:square;stroke-linejoin:miter;stroke-width:0.8;"/>
   </g>
   <g id="text_17">
    <!-- Population's average and best fitness -->
    <defs>
     <path d="M 19.671875 64.796875 
L 19.671875 37.40625 
L 32.078125 37.40625 
Q 38.96875 37.40625 42.71875 40.96875 
Q 46.484375 44.53125 46.484375 51.125 
Q 46.484375 57.671875 42.71875 61.234375 
Q 38.96875 64.796875 32.078125 64.796875 
z
M 9.8125 72.90625 
L 32.078125 72.90625 
Q 44.34375 72.90625 50.609375 67.359375 
Q 56.890625 61.8125 56.890625 51.125 
Q 56.890625 40.328125 50.609375 34.8125 
Q 44.34375 29.296875 32.078125 29.296875 
L 19.671875 29.296875 
L 19.671875 0 
L 9.8125 0 
z
" id="DejaVuSans-50"/>
     <path d="M 18.109375 8.203125 
L 18.109375 -20.796875 
L 9.078125 -20.796875 
L 9.078125 54.6875 
L 18.109375 54.6875 
L 18.109375 46.390625 
Q 20.953125 51.265625 25.265625 53.625 
Q 29.59375 56 35.59375 56 
Q 45.5625 56 51.78125 48.09375 
Q 58.015625 40.1875 58.015625 27.296875 
Q 58.015625 14.40625 51.78125 6.484375 
Q 45.5625 -1.421875 35.59375 -1.421875 
Q 29.59375 -1.421875 25.265625 0.953125 
Q 20.953125 3.328125 18.109375 8.203125 
z
M 48.6875 27.296875 
Q 48.6875 37.203125 44.609375 42.84375 
Q 40.53125 48.484375 33.40625 48.484375 
Q 26.265625 48.484375 22.1875 42.84375 
Q 18.109375 37.203125 18.109375 27.296875 
Q 18.109375 17.390625 22.1875 11.75 
Q 26.265625 6.109375 33.40625 6.109375 
Q 40.53125 6.109375 44.609375 11.75 
Q 48.6875 17.390625 48.6875 27.296875 
z
" id="DejaVuSans-70"/>
     <path d="M 8.5 21.578125 
L 8.5 54.6875 
L 17.484375 54.6875 
L 17.484375 21.921875 
Q 17.484375 14.15625 20.5 10.265625 
Q 23.53125 6.390625 29.59375 6.390625 
Q 36.859375 6.390625 41.078125 11.03125 
Q 45.3125 15.671875 45.3125 23.6875 
L 45.3125 54.6875 
L 54.296875 54.6875 
L 54.296875 0 
L 45.3125 0 
L 45.3125 8.40625 
Q 42.046875 3.421875 37.71875 1 
Q 33.40625 -1.421875 27.6875 -1.421875 
Q 18.265625 -1.421875 13.375 4.4375 
Q 8.5 10.296875 8.5 21.578125 
z
M 31.109375 56 
z
" id="DejaVuSans-75"/>
     <path d="M 9.421875 75.984375 
L 18.40625 75.984375 
L 18.40625 0 
L 9.421875 0 
z
" id="DejaVuSans-6c"/>
     <path d="M 17.921875 72.90625 
L 17.921875 45.796875 
L 9.625 45.796875 
L 9.625 72.90625 
z
" id="DejaVuSans-27"/>
     <path id="DejaVuSans-20"/>
     <path d="M 2.984375 54.6875 
L 12.5 54.6875 
L 29.59375 8.796875 
L 46.6875 54.6875 
L 56.203125 54.6875 
L 35.6875 0 
L 23.484375 0 
z
" id="DejaVuSans-76"/>
     <path d="M 45.40625 27.984375 
Q 45.40625 37.75 41.375 43.109375 
Q 37.359375 48.484375 30.078125 48.484375 
Q 22.859375 48.484375 18.828125 43.109375 
Q 14.796875 37.75 14.796875 27.984375 
Q 14.796875 18.265625 18.828125 12.890625 
Q 22.859375 7.515625 30.078125 7.515625 
Q 37.359375 7.515625 41.375 12.890625 
Q 45.40625 18.265625 45.40625 27.984375 
z
M 54.390625 6.78125 
Q 54.390625 -7.171875 48.1875 -13.984375 
Q 42 -20.796875 29.203125 -20.796875 
Q 24.46875 -20.796875 20.265625 -20.09375 
Q 16.0625 -19.390625 12.109375 -17.921875 
L 12.109375 -9.1875 
Q 16.0625 -11.328125 19.921875 -12.34375 
Q 23.78125 -13.375 27.78125 -13.375 
Q 36.625 -13.375 41.015625 -8.765625 
Q 45.40625 -4.15625 45.40625 5.171875 
L 45.40625 9.625 
Q 42.625 4.78125 38.28125 2.390625 
Q 33.9375 0 27.875 0 
Q 17.828125 0 11.671875 7.65625 
Q 5.515625 15.328125 5.515625 27.984375 
Q 5.515625 40.671875 11.671875 48.328125 
Q 17.828125 56 27.875 56 
Q 33.9375 56 38.28125 53.609375 
Q 42.625 51.21875 45.40625 46.390625 
L 45.40625 54.6875 
L 54.390625 54.6875 
z
" id="DejaVuSans-67"/>
     <path d="M 45.40625 46.390625 
L 45.40625 75.984375 
L 54.390625 75.984375 
L 54.390625 0 
L 45.40625 0 
L 45.40625 8.203125 
Q 42.578125 3.328125 38.25 0.953125 
Q 33.9375 -1.421875 27.875 -1.421875 
Q 17.96875 -1.421875 11.734375 6.484375 
Q 5.515625 14.40625 5.515625 27.296875 
Q 5.515625 40.1875 11.734375 48.09375 
Q 17.96875 56 27.875 56 
Q 33.9375 56 38.25 53.625 
Q 42.578125 51.265625 45.40625 46.390625 
z
M 14.796875 27.296875 
Q 14.796875 17.390625 18.875 11.75 
Q 22.953125 6.109375 30.078125 6.109375 
Q 37.203125 6.109375 41.296875 11.75 
Q 45.40625 17.390625 45.40625 27.296875 
Q 45.40625 37.203125 41.296875 42.84375 
Q 37.203125 48.484375 30.078125 48.484375 
Q 22.953125 48.484375 18.875 42.84375 
Q 14.796875 37.203125 14.796875 27.296875 
z
" id="DejaVuSans-64"/>
     <path d="M 48.6875 27.296875 
Q 48.6875 37.203125 44.609375 42.84375 
Q 40.53125 48.484375 33.40625 48.484375 
Q 26.265625 48.484375 22.1875 42.84375 
Q 18.109375 37.203125 18.109375 27.296875 
Q 18.109375 17.390625 22.1875 11.75 
Q 26.265625 6.109375 33.40625 6.109375 
Q 40.53125 6.109375 44.609375 11.75 
Q 48.6875 17.390625 48.6875 27.296875 
z
M 18.109375 46.390625 
Q 20.953125 51.265625 25.265625 53.625 
Q 29.59375 56 35.59375 56 
Q 45.5625 56 51.78125 48.09375 
Q 58.015625 40.1875 58.015625 27.296875 
Q 58.015625 14.40625 51.78125 6.484375 
Q 45.5625 -1.421875 35.59375 -1.421875 
Q 29.59375 -1.421875 25.265625 0.953125 
Q 20.953125 3.328125 18.109375 8.203125 
L 18.109375 0 
L 9.078125 0 
L 9.078125 75.984375 
L 18.109375 75.984375 
z
" id="DejaVuSans-62"/>
     <path d="M 37.109375 75.984375 
L 37.109375 68.5 
L 28.515625 68.5 
Q 23.6875 68.5 21.796875 66.546875 
Q 19.921875 64.59375 19.921875 59.515625 
L 19.921875 54.6875 
L 34.71875 54.6875 
L 34.71875 47.703125 
L 19.921875 47.703125 
L 19.921875 0 
L 10.890625 0 
L 10.890625 47.703125 
L 2.296875 47.703125 
L 2.296875 54.6875 
L 10.890625 54.6875 
L 10.890625 58.5 
Q 10.890625 67.625 15.140625 71.796875 
Q 19.390625 75.984375 28.609375 75.984375 
z
" id="DejaVuSans-66"/>
    </defs>
    <g transform="translate(123.315 35.472)scale(0.12 -0.12)">
     <use xlink:href="#DejaVuSans-50"/>
     <use x="60.255859" xlink:href="#DejaVuSans-6f"/>
     <use x="121.4375" xlink:href="#DejaVuSans-70"/>
     <use x="184.914062" xlink:href="#DejaVuSans-75"/>
     <use x="248.292969" xlink:href="#DejaVuSans-6c"/>
     <use x="276.076172" xlink:href="#DejaVuSans-61"/>
     <use x="337.355469" xlink:href="#DejaVuSans-74"/>
     <use x="376.564453" xlink:href="#DejaVuSans-69"/>
     <use x="404.347656" xlink:href="#DejaVuSans-6f"/>
     <use x="465.529297" xlink:href="#DejaVuSans-6e"/>
     <use x="528.908203" xlink:href="#DejaVuSans-27"/>
     <use x="556.398438" xlink:href="#DejaVuSans-73"/>
     <use x="608.498047" xlink:href="#DejaVuSans-20"/>
     <use x="640.285156" xlink:href="#DejaVuSans-61"/>
     <use x="701.564453" xlink:href="#DejaVuSans-76"/>
     <use x="760.744141" xlink:href="#DejaVuSans-65"/>
     <use x="822.267578" xlink:href="#DejaVuSans-72"/>
     <use x="863.380859" xlink:href="#DejaVuSans-61"/>
     <use x="924.660156" xlink:href="#DejaVuSans-67"/>
     <use x="988.136719" xlink:href="#DejaVuSans-65"/>
     <use x="1049.660156" xlink:href="#DejaVuSans-20"/>
     <use x="1081.447266" xlink:href="#DejaVuSans-61"/>
     <use x="1142.726562" xlink:href="#DejaVuSans-6e"/>
     <use x="1206.105469" xlink:href="#DejaVuSans-64"/>
     <use x="1269.582031" xlink:href="#DejaVuSans-20"/>
     <use x="1301.369141" xlink:href="#DejaVuSans-62"/>
     <use x="1364.845703" xlink:href="#DejaVuSans-65"/>
     <use x="1426.369141" xlink:href="#DejaVuSans-73"/>
     <use x="1478.46875" xlink:href="#DejaVuSans-74"/>
     <use x="1517.677734" xlink:href="#DejaVuSans-20"/>
     <use x="1549.464844" xlink:href="#DejaVuSans-66"/>
     <use x="1584.669922" xlink:href="#DejaVuSans-69"/>
     <use x="1612.453125" xlink:href="#DejaVuSans-74"/>
     <use x="1651.662109" xlink:href="#DejaVuSans-6e"/>
     <use x="1715.041016" xlink:href="#DejaVuSans-65"/>
     <use x="1776.564453" xlink:href="#DejaVuSans-73"/>
     <use x="1828.664062" xlink:href="#DejaVuSans-73"/>
    </g>
   </g>
   <g id="legend_1">
    <g id="patch_7">
     <path d="M 64.6 108.1845 
L 137.540625 108.1845 
Q 139.540625 108.1845 139.540625 106.1845 
L 139.540625 48.472 
Q 139.540625 46.472 137.540625 46.472 
L 64.6 46.472 
Q 62.6 46.472 62.6 48.472 
L 62.6 106.1845 
Q 62.6 108.1845 64.6 108.1845 
z
" style="fill:#ffffff;opacity:0.8;stroke:#cccccc;stroke-linejoin:miter;"/>
    </g>
    <g id="line2d_33">
     <path d="M 66.6 54.570438 
L 86.6 54.570438 
" style="fill:none;stroke:#0000ff;stroke-linecap:square;stroke-width:1.5;"/>
    </g>
    <g id="line2d_34"/>
    <g id="text_18">
     <!-- average -->
     <g transform="translate(94.6 58.070438)scale(0.1 -0.1)">
      <use xlink:href="#DejaVuSans-61"/>
      <use x="61.279297" xlink:href="#DejaVuSans-76"/>
      <use x="120.458984" xlink:href="#DejaVuSans-65"/>
      <use x="181.982422" xlink:href="#DejaVuSans-72"/>
      <use x="223.095703" xlink:href="#DejaVuSans-61"/>
      <use x="284.375" xlink:href="#DejaVuSans-67"/>
      <use x="347.851562" xlink:href="#DejaVuSans-65"/>
     </g>
    </g>
    <g id="line2d_35">
     <path d="M 66.6 69.248563 
L 86.6 69.248563 
" style="fill:none;stroke:#008000;stroke-dasharray:9.6,2.4,1.5,2.4;stroke-dashoffset:0;stroke-width:1.5;"/>
    </g>
    <g id="line2d_36"/>
    <g id="text_19">
     <!-- -1 sd -->
     <defs>
      <path d="M 4.890625 31.390625 
L 31.203125 31.390625 
L 31.203125 23.390625 
L 4.890625 23.390625 
z
" id="DejaVuSans-2d"/>
     </defs>
     <g transform="translate(94.6 72.748563)scale(0.1 -0.1)">
      <use xlink:href="#DejaVuSans-2d"/>
      <use x="36.083984" xlink:href="#DejaVuSans-31"/>
      <use x="99.707031" xlink:href="#DejaVuSans-20"/>
      <use x="131.494141" xlink:href="#DejaVuSans-73"/>
      <use x="183.59375" xlink:href="#DejaVuSans-64"/>
     </g>
    </g>
    <g id="line2d_37">
     <path d="M 66.6 83.926688 
L 86.6 83.926688 
" style="fill:none;stroke:#008000;stroke-dasharray:9.6,2.4,1.5,2.4;stroke-dashoffset:0;stroke-width:1.5;"/>
    </g>
    <g id="line2d_38"/>
    <g id="text_20">
     <!-- +1 sd -->
     <defs>
      <path d="M 46 62.703125 
L 46 35.5 
L 73.1875 35.5 
L 73.1875 27.203125 
L 46 27.203125 
L 46 0 
L 37.796875 0 
L 37.796875 27.203125 
L 10.59375 27.203125 
L 10.59375 35.5 
L 37.796875 35.5 
L 37.796875 62.703125 
z
" id="DejaVuSans-2b"/>
     </defs>
     <g transform="translate(94.6 87.426688)scale(0.1 -0.1)">
      <use xlink:href="#DejaVuSans-2b"/>
      <use x="83.789062" xlink:href="#DejaVuSans-31"/>
      <use x="147.412109" xlink:href="#DejaVuSans-20"/>
      <use x="179.199219" xlink:href="#DejaVuSans-73"/>
      <use x="231.298828" xlink:href="#DejaVuSans-64"/>
     </g>
    </g>
    <g id="line2d_39">
     <path d="M 66.6 98.604813 
L 86.6 98.604813 
" style="fill:none;stroke:#ff0000;stroke-linecap:square;stroke-width:1.5;"/>
    </g>
    <g id="line2d_40"/>
    <g id="text_21">
     <!-- best -->
     <g transform="translate(94.6 102.104813)scale(0.1 -0.1)">
      <use xlink:href="#DejaVuSans-62"/>
      <use x="63.476562" xlink:href="#DejaVuSans-65"/>
      <use x="125" xlink:href="#DejaVuSans-73"/>
      <use x="177.099609" xlink:href="#DejaVuSans-74"/>
     </g>
    </g>
   </g>
  </g>
 </g>
 <defs>
  <clipPath id="p3d2f9f42a8">
   <rect height="266.112" width="357.12" x="57.6" y="41.472"/>
  </clipPath>
 </defs>
</svg>
