<?xml version="1.0" encoding="utf-8" standalone="no"?>
<!DOCTYPE svg PUBLIC "-//W3C//DTD SVG 1.1//EN"
  "http://www.w3.org/Graphics/SVG/1.1/DTD/svg11.dtd">
<!-- Created with matplotlib (http://matplotlib.org/) -->
<svg height="345.6pt" version="1.1" viewBox="0 0 460.8 345.6" width="460.8pt" xmlns="http://www.w3.org/2000/svg" xmlns:xlink="http://www.w3.org/1999/xlink">
 <defs>
  <style type="text/css">
*{stroke-linecap:butt;stroke-linejoin:round;}
  </style>
 </defs>
 <g id="figure_1">
  <g id="patch_1">
   <path d="M 0 345.6 
L 460.8 345.6 
L 460.8 0 
L 0 0 
z
" style="fill:#ffffff;"/>
  </g>
  <g id="axes_1">
   <g id="patch_2">
    <path d="M 57.6 307.584 
L 414.72 307.584 
L 414.72 41.472 
L 57.6 41.472 
z
" style="fill:#ffffff;"/>
   </g>
   <g id="matplotlib.axis_1">
    <g id="xtick_1">
     <g id="line2d_1">
      <path clip-path="url(#pc6550f4abc)" d="M 73.832727 307.584 
L 73.832727 41.472 
" style="fill:none;stroke:#b0b0b0;stroke-linecap:square;stroke-width:0.8;"/>
     </g>
     <g id="line2d_2">
      <defs>
       <path d="M 0 0 
L 0 3.5 
" id="md52a682723" style="stroke:#000000;stroke-width:0.8;"/>
      </defs>
      <g>
       <use style="stroke:#000000;stroke-width:0.8;" x="73.832727" xlink:href="#md52a682723" y="307.584"/>
      </g>
     </g>
     <g id="text_1">
      <!-- 0 -->
      <defs>
       <path d="M 31.78125 66.40625 
Q 24.171875 66.40625 20.328125 58.90625 
Q 16.5 51.421875 16.5 36.375 
Q 16.5 21.390625 20.328125 13.890625 
Q 24.171875 6.390625 31.78125 6.390625 
Q 39.453125 6.390625 43.28125 13.890625 
Q 47.125 21.390625 47.125 36.375 
Q 47.125 51.421875 43.28125 58.90625 
Q 39.453125 66.40625 31.78125 66.40625 
z
M 31.78125 74.21875 
Q 44.046875 74.21875 50.515625 64.515625 
Q 56.984375 54.828125 56.984375 36.375 
Q 56.984375 17.96875 50.515625 8.265625 
Q 44.046875 -1.421875 31.78125 -1.421875 
Q 19.53125 -1.421875 13.0625 8.265625 
Q 6.59375 17.96875 6.59375 36.375 
Q 6.59375 54.828125 13.0625 64.515625 
Q 19.53125 74.21875 31.78125 74.21875 
z
" id="DejaVuSans-30"/>
      </defs>
      <g transform="translate(70.651477 322.182437)scale(0.1 -0.1)">
       <use xlink:href="#DejaVuSans-30"/>
      </g>
     </g>
    </g>
    <g id="xtick_2">
     <g id="line2d_3">
      <path clip-path="url(#pc6550f4abc)" d="M 139.953816 307.584 
L 139.953816 41.472 
" style="fill:none;stroke:#b0b0b0;stroke-linecap:square;stroke-width:0.8;"/>
     </g>
     <g id="line2d_4">
      <g>
       <use style="stroke:#000000;stroke-width:0.8;" x="139.953816" xlink:href="#md52a682723" y="307.584"/>
      </g>
     </g>
     <g id="text_2">
      <!-- 100 -->
      <defs>
       <path d="M 12.40625 8.296875 
L 28.515625 8.296875 
L 28.515625 63.921875 
L 10.984375 60.40625 
L 10.984375 69.390625 
L 28.421875 72.90625 
L 38.28125 72.90625 
L 38.28125 8.296875 
L 54.390625 8.296875 
L 54.390625 0 
L 12.40625 0 
z
" id="DejaVuSans-31"/>
      </defs>
      <g transform="translate(130.410066 322.182437)scale(0.1 -0.1)">
       <use xlink:href="#DejaVuSans-31"/>
       <use x="63.623047" xlink:href="#DejaVuSans-30"/>
       <use x="127.246094" xlink:href="#DejaVuSans-30"/>
      </g>
     </g>
    </g>
    <g id="xtick_3">
     <g id="line2d_5">
      <path clip-path="url(#pc6550f4abc)" d="M 206.074905 307.584 
L 206.074905 41.472 
" style="fill:none;stroke:#b0b0b0;stroke-linecap:square;stroke-width:0.8;"/>
     </g>
     <g id="line2d_6">
      <g>
       <use style="stroke:#000000;stroke-width:0.8;" x="206.074905" xlink:href="#md52a682723" y="307.584"/>
      </g>
     </g>
     <g id="text_3">
      <!-- 200 -->
      <defs>
       <path d="M 19.1875 8.296875 
L 53.609375 8.296875 
L 53.609375 0 
L 7.328125 0 
L 7.328125 8.296875 
Q 12.9375 14.109375 22.625 23.890625 
Q 32.328125 33.6875 34.8125 36.53125 
Q 39.546875 41.84375 41.421875 45.53125 
Q 43.3125 49.21875 43.3125 52.78125 
Q 43.3125 58.59375 39.234375 62.25 
Q 35.15625 65.921875 28.609375 65.921875 
Q 23.96875 65.921875 18.8125 64.3125 
Q 13.671875 62.703125 7.8125 59.421875 
L 7.8125 69.390625 
Q 13.765625 71.78125 18.9375 73 
Q 24.125 74.21875 28.421875 74.21875 
Q 39.75 74.21875 46.484375 68.546875 
Q 53.21875 62.890625 53.21875 53.421875 
Q 53.21875 48.921875 51.53125 44.890625 
Q 49.859375 40.875 45.40625 35.40625 
Q 44.1875 33.984375 37.640625 27.21875 
Q 31.109375 20.453125 19.1875 8.296875 
z
" id="DejaVuSans-32"/>
      </defs>
      <g transform="translate(196.531155 322.182437)scale(0.1 -0.1)">
       <use xlink:href="#DejaVuSans-32"/>
       <use x="63.623047" xlink:href="#DejaVuSans-30"/>
       <use x="127.246094" xlink:href="#DejaVuSans-30"/>
      </g>
     </g>
    </g>
    <g id="xtick_4">
     <g id="line2d_7">
      <path clip-path="url(#pc6550f4abc)" d="M 272.195993 307.584 
L 272.195993 41.472 
" style="fill:none;stroke:#b0b0b0;stroke-linecap:square;stroke-width:0.8;"/>
     </g>
     <g id="line2d_8">
      <g>
       <use style="stroke:#000000;stroke-width:0.8;" x="272.195993" xlink:href="#md52a682723" y="307.584"/>
      </g>
     </g>
     <g id="text_4">
      <!-- 300 -->
      <defs>
       <path d="M 40.578125 39.3125 
Q 47.65625 37.796875 51.625 33 
Q 55.609375 28.21875 55.609375 21.1875 
Q 55.609375 10.40625 48.1875 4.484375 
Q 40.765625 -1.421875 27.09375 -1.421875 
Q 22.515625 -1.421875 17.65625 -0.515625 
Q 12.796875 0.390625 7.625 2.203125 
L 7.625 11.71875 
Q 11.71875 9.328125 16.59375 8.109375 
Q 21.484375 6.890625 26.8125 6.890625 
Q 36.078125 6.890625 40.9375 10.546875 
Q 45.796875 14.203125 45.796875 21.1875 
Q 45.796875 27.640625 41.28125 31.265625 
Q 36.765625 34.90625 28.71875 34.90625 
L 20.21875 34.90625 
L 20.21875 43.015625 
L 29.109375 43.015625 
Q 36.375 43.015625 40.234375 45.921875 
Q 44.09375 48.828125 44.09375 54.296875 
Q 44.09375 59.90625 40.109375 62.90625 
Q 36.140625 65.921875 28.71875 65.921875 
Q 24.65625 65.921875 20.015625 65.03125 
Q 15.375 64.15625 9.8125 62.3125 
L 9.8125 71.09375 
Q 15.4375 72.65625 20.34375 73.4375 
Q 25.25 74.21875 29.59375 74.21875 
Q 40.828125 74.21875 47.359375 69.109375 
Q 53.90625 64.015625 53.90625 55.328125 
Q 53.90625 49.265625 50.4375 45.09375 
Q 46.96875 40.921875 40.578125 39.3125 
z
" id="DejaVuSans-33"/>
      </defs>
      <g transform="translate(262.652243 322.182437)scale(0.1 -0.1)">
       <use xlink:href="#DejaVuSans-33"/>
       <use x="63.623047" xlink:href="#DejaVuSans-30"/>
       <use x="127.246094" xlink:href="#DejaVuSans-30"/>
      </g>
     </g>
    </g>
    <g id="xtick_5">
     <g id="line2d_9">
      <path clip-path="url(#pc6550f4abc)" d="M 338.317082 307.584 
L 338.317082 41.472 
" style="fill:none;stroke:#b0b0b0;stroke-linecap:square;stroke-width:0.8;"/>
     </g>
     <g id="line2d_10">
      <g>
       <use style="stroke:#000000;stroke-width:0.8;" x="338.317082" xlink:href="#md52a682723" y="307.584"/>
      </g>
     </g>
     <g id="text_5">
      <!-- 400 -->
      <defs>
       <path d="M 37.796875 64.3125 
L 12.890625 25.390625 
L 37.796875 25.390625 
z
M 35.203125 72.90625 
L 47.609375 72.90625 
L 47.609375 25.390625 
L 58.015625 25.390625 
L 58.015625 17.1875 
L 47.609375 17.1875 
L 47.609375 0 
L 37.796875 0 
L 37.796875 17.1875 
L 4.890625 17.1875 
L 4.890625 26.703125 
z
" id="DejaVuSans-34"/>
      </defs>
      <g transform="translate(328.773332 322.182437)scale(0.1 -0.1)">
       <use xlink:href="#DejaVuSans-34"/>
       <use x="63.623047" xlink:href="#DejaVuSans-30"/>
       <use x="127.246094" xlink:href="#DejaVuSans-30"/>
      </g>
     </g>
    </g>
    <g id="xtick_6">
     <g id="line2d_11">
      <path clip-path="url(#pc6550f4abc)" d="M 404.438171 307.584 
L 404.438171 41.472 
" style="fill:none;stroke:#b0b0b0;stroke-linecap:square;stroke-width:0.8;"/>
     </g>
     <g id="line2d_12">
      <g>
       <use style="stroke:#000000;stroke-width:0.8;" x="404.438171" xlink:href="#md52a682723" y="307.584"/>
      </g>
     </g>
     <g id="text_6">
      <!-- 500 -->
      <defs>
       <path d="M 10.796875 72.90625 
L 49.515625 72.90625 
L 49.515625 64.59375 
L 19.828125 64.59375 
L 19.828125 46.734375 
Q 21.96875 47.46875 24.109375 47.828125 
Q 26.265625 48.1875 28.421875 48.1875 
Q 40.625 48.1875 47.75 41.5 
Q 54.890625 34.8125 54.890625 23.390625 
Q 54.890625 11.625 47.5625 5.09375 
Q 40.234375 -1.421875 26.90625 -1.421875 
Q 22.3125 -1.421875 17.546875 -0.640625 
Q 12.796875 0.140625 7.71875 1.703125 
L 7.71875 11.625 
Q 12.109375 9.234375 16.796875 8.0625 
Q 21.484375 6.890625 26.703125 6.890625 
Q 35.15625 6.890625 40.078125 11.328125 
Q 45.015625 15.765625 45.015625 23.390625 
Q 45.015625 31 40.078125 35.4375 
Q 35.15625 39.890625 26.703125 39.890625 
Q 22.75 39.890625 18.8125 39.015625 
Q 14.890625 38.140625 10.796875 36.28125 
z
" id="DejaVuSans-35"/>
      </defs>
      <g transform="translate(394.894421 322.182437)scale(0.1 -0.1)">
       <use xlink:href="#DejaVuSans-35"/>
       <use x="63.623047" xlink:href="#DejaVuSans-30"/>
       <use x="127.246094" xlink:href="#DejaVuSans-30"/>
      </g>
     </g>
    </g>
    <g id="text_7">
     <!-- Generations -->
     <defs>
      <path d="M 59.515625 10.40625 
L 59.515625 29.984375 
L 43.40625 29.984375 
L 43.40625 38.09375 
L 69.28125 38.09375 
L 69.28125 6.78125 
Q 63.578125 2.734375 56.6875 0.65625 
Q 49.8125 -1.421875 42 -1.421875 
Q 24.90625 -1.421875 15.25 8.5625 
Q 5.609375 18.5625 5.609375 36.375 
Q 5.609375 54.25 15.25 64.234375 
Q 24.90625 74.21875 42 74.21875 
Q 49.125 74.21875 55.546875 72.453125 
Q 61.96875 70.703125 67.390625 67.28125 
L 67.390625 56.78125 
Q 61.921875 61.421875 55.765625 63.765625 
Q 49.609375 66.109375 42.828125 66.109375 
Q 29.4375 66.109375 22.71875 58.640625 
Q 16.015625 51.171875 16.015625 36.375 
Q 16.015625 21.625 22.71875 14.15625 
Q 29.4375 6.6875 42.828125 6.6875 
Q 48.046875 6.6875 52.140625 7.59375 
Q 56.25 8.5 59.515625 10.40625 
z
" id="DejaVuSans-47"/>
      <path d="M 56.203125 29.59375 
L 56.203125 25.203125 
L 14.890625 25.203125 
Q 15.484375 15.921875 20.484375 11.0625 
Q 25.484375 6.203125 34.421875 6.203125 
Q 39.59375 6.203125 44.453125 7.46875 
Q 49.3125 8.734375 54.109375 11.28125 
L 54.109375 2.78125 
Q 49.265625 0.734375 44.1875 -0.34375 
Q 39.109375 -1.421875 33.890625 -1.421875 
Q 20.796875 -1.421875 13.15625 6.1875 
Q 5.515625 13.8125 5.515625 26.8125 
Q 5.515625 40.234375 12.765625 48.109375 
Q 20.015625 56 32.328125 56 
Q 43.359375 56 49.78125 48.890625 
Q 56.203125 41.796875 56.203125 29.59375 
z
M 47.21875 32.234375 
Q 47.125 39.59375 43.09375 43.984375 
Q 39.0625 48.390625 32.421875 48.390625 
Q 24.90625 48.390625 20.390625 44.140625 
Q 15.875 39.890625 15.1875 32.171875 
z
" id="DejaVuSans-65"/>
      <path d="M 54.890625 33.015625 
L 54.890625 0 
L 45.90625 0 
L 45.90625 32.71875 
Q 45.90625 40.484375 42.875 44.328125 
Q 39.84375 48.1875 33.796875 48.1875 
Q 26.515625 48.1875 22.3125 43.546875 
Q 18.109375 38.921875 18.109375 30.90625 
L 18.109375 0 
L 9.078125 0 
L 9.078125 54.6875 
L 18.109375 54.6875 
L 18.109375 46.1875 
Q 21.34375 51.125 25.703125 53.5625 
Q 30.078125 56 35.796875 56 
Q 45.21875 56 50.046875 50.171875 
Q 54.890625 44.34375 54.890625 33.015625 
z
" id="DejaVuSans-6e"/>
      <path d="M 41.109375 46.296875 
Q 39.59375 47.171875 37.8125 47.578125 
Q 36.03125 48 33.890625 48 
Q 26.265625 48 22.1875 43.046875 
Q 18.109375 38.09375 18.109375 28.8125 
L 18.109375 0 
L 9.078125 0 
L 9.078125 54.6875 
L 18.109375 54.6875 
L 18.109375 46.1875 
Q 20.953125 51.171875 25.484375 53.578125 
Q 30.03125 56 36.53125 56 
Q 37.453125 56 38.578125 55.875 
Q 39.703125 55.765625 41.0625 55.515625 
z
" id="DejaVuSans-72"/>
      <path d="M 34.28125 27.484375 
Q 23.390625 27.484375 19.1875 25 
Q 14.984375 22.515625 14.984375 16.5 
Q 14.984375 11.71875 18.140625 8.90625 
Q 21.296875 6.109375 26.703125 6.109375 
Q 34.1875 6.109375 38.703125 11.40625 
Q 43.21875 16.703125 43.21875 25.484375 
L 43.21875 27.484375 
z
M 52.203125 31.203125 
L 52.203125 0 
L 43.21875 0 
L 43.21875 8.296875 
Q 40.140625 3.328125 35.546875 0.953125 
Q 30.953125 -1.421875 24.3125 -1.421875 
Q 15.921875 -1.421875 10.953125 3.296875 
Q 6 8.015625 6 15.921875 
Q 6 25.140625 12.171875 29.828125 
Q 18.359375 34.515625 30.609375 34.515625 
L 43.21875 34.515625 
L 43.21875 35.40625 
Q 43.21875 41.609375 39.140625 45 
Q 35.0625 48.390625 27.6875 48.390625 
Q 23 48.390625 18.546875 47.265625 
Q 14.109375 46.140625 10.015625 43.890625 
L 10.015625 52.203125 
Q 14.9375 54.109375 19.578125 55.046875 
Q 24.21875 56 28.609375 56 
Q 40.484375 56 46.34375 49.84375 
Q 52.203125 43.703125 52.203125 31.203125 
z
" id="DejaVuSans-61"/>
      <path d="M 18.3125 70.21875 
L 18.3125 54.6875 
L 36.8125 54.6875 
L 36.8125 47.703125 
L 18.3125 47.703125 
L 18.3125 18.015625 
Q 18.3125 11.328125 20.140625 9.421875 
Q 21.96875 7.515625 27.59375 7.515625 
L 36.8125 7.515625 
L 36.8125 0 
L 27.59375 0 
Q 17.1875 0 13.234375 3.875 
Q 9.28125 7.765625 9.28125 18.015625 
L 9.28125 47.703125 
L 2.6875 47.703125 
L 2.6875 54.6875 
L 9.28125 54.6875 
L 9.28125 70.21875 
z
" id="DejaVuSans-74"/>
      <path d="M 9.421875 54.6875 
L 18.40625 54.6875 
L 18.40625 0 
L 9.421875 0 
z
M 9.421875 75.984375 
L 18.40625 75.984375 
L 18.40625 64.59375 
L 9.421875 64.59375 
z
" id="DejaVuSans-69"/>
      <path d="M 30.609375 48.390625 
Q 23.390625 48.390625 19.1875 42.75 
Q 14.984375 37.109375 14.984375 27.296875 
Q 14.984375 17.484375 19.15625 11.84375 
Q 23.34375 6.203125 30.609375 6.203125 
Q 37.796875 6.203125 41.984375 11.859375 
Q 46.1875 17.53125 46.1875 27.296875 
Q 46.1875 37.015625 41.984375 42.703125 
Q 37.796875 48.390625 30.609375 48.390625 
z
M 30.609375 56 
Q 42.328125 56 49.015625 48.375 
Q 55.71875 40.765625 55.71875 27.296875 
Q 55.71875 13.875 49.015625 6.21875 
Q 42.328125 -1.421875 30.609375 -1.421875 
Q 18.84375 -1.421875 12.171875 6.21875 
Q 5.515625 13.875 5.515625 27.296875 
Q 5.515625 40.765625 12.171875 48.375 
Q 18.84375 56 30.609375 56 
z
" id="DejaVuSans-6f"/>
      <path d="M 44.28125 53.078125 
L 44.28125 44.578125 
Q 40.484375 46.53125 36.375 47.5 
Q 32.28125 48.484375 27.875 48.484375 
Q 21.1875 48.484375 17.84375 46.4375 
Q 14.5 44.390625 14.5 40.28125 
Q 14.5 37.15625 16.890625 35.375 
Q 19.28125 33.59375 26.515625 31.984375 
L 29.59375 31.296875 
Q 39.15625 29.25 43.1875 25.515625 
Q 47.21875 21.78125 47.21875 15.09375 
Q 47.21875 7.46875 41.1875 3.015625 
Q 35.15625 -1.421875 24.609375 -1.421875 
Q 20.21875 -1.421875 15.453125 -0.5625 
Q 10.6875 0.296875 5.421875 2 
L 5.421875 11.28125 
Q 10.40625 8.6875 15.234375 7.390625 
Q 20.0625 6.109375 24.8125 6.109375 
Q 31.15625 6.109375 34.5625 8.28125 
Q 37.984375 10.453125 37.984375 14.40625 
Q 37.984375 18.0625 35.515625 20.015625 
Q 33.0625 21.96875 24.703125 23.78125 
L 21.578125 24.515625 
Q 13.234375 26.265625 9.515625 29.90625 
Q 5.8125 33.546875 5.8125 39.890625 
Q 5.8125 47.609375 11.28125 51.796875 
Q 16.75 56 26.8125 56 
Q 31.78125 56 36.171875 55.265625 
Q 40.578125 54.546875 44.28125 53.078125 
z
" id="DejaVuSans-73"/>
     </defs>
     <g transform="translate(205.662344 335.860562)scale(0.1 -0.1)">
      <use xlink:href="#DejaVuSans-47"/>
      <use x="77.490234" xlink:href="#DejaVuSans-65"/>
      <use x="139.013672" xlink:href="#DejaVuSans-6e"/>
      <use x="202.392578" xlink:href="#DejaVuSans-65"/>
      <use x="263.916016" xlink:href="#DejaVuSans-72"/>
      <use x="305.029297" xlink:href="#DejaVuSans-61"/>
      <use x="366.308594" xlink:href="#DejaVuSans-74"/>
      <use x="405.517578" xlink:href="#DejaVuSans-69"/>
      <use x="433.300781" xlink:href="#DejaVuSans-6f"/>
      <use x="494.482422" xlink:href="#DejaVuSans-6e"/>
      <use x="557.861328" xlink:href="#DejaVuSans-73"/>
     </g>
    </g>
   </g>
   <g id="matplotlib.axis_2">
    <g id="ytick_1">
     <g id="line2d_13">
      <path clip-path="url(#pc6550f4abc)" d="M 57.6 306.061345 
L 414.72 306.061345 
" style="fill:none;stroke:#b0b0b0;stroke-linecap:square;stroke-width:0.8;"/>
     </g>
     <g id="line2d_14">
      <defs>
       <path d="M 0 0 
L -3.5 0 
" id="meab4d08274" style="stroke:#000000;stroke-width:0.8;"/>
      </defs>
      <g>
       <use style="stroke:#000000;stroke-width:0.8;" x="57.6" xlink:href="#meab4d08274" y="306.061345"/>
      </g>
     </g>
     <g id="text_8">
      <!-- −200 -->
      <defs>
       <path d="M 10.59375 35.5 
L 73.1875 35.5 
L 73.1875 27.203125 
L 10.59375 27.203125 
z
" id="DejaVuSans-2212"/>
      </defs>
      <g transform="translate(23.132812 309.860563)scale(0.1 -0.1)">
       <use xlink:href="#DejaVuSans-2212"/>
       <use x="83.789062" xlink:href="#DejaVuSans-32"/>
       <use x="147.412109" xlink:href="#DejaVuSans-30"/>
       <use x="211.035156" xlink:href="#DejaVuSans-30"/>
      </g>
     </g>
    </g>
    <g id="ytick_2">
     <g id="line2d_15">
      <path clip-path="url(#pc6550f4abc)" d="M 57.6 270.27714 
L 414.72 270.27714 
" style="fill:none;stroke:#b0b0b0;stroke-linecap:square;stroke-width:0.8;"/>
     </g>
     <g id="line2d_16">
      <g>
       <use style="stroke:#000000;stroke-width:0.8;" x="57.6" xlink:href="#meab4d08274" y="270.27714"/>
      </g>
     </g>
     <g id="text_9">
      <!-- 0 -->
      <g transform="translate(44.2375 274.076359)scale(0.1 -0.1)">
       <use xlink:href="#DejaVuSans-30"/>
      </g>
     </g>
    </g>
    <g id="ytick_3">
     <g id="line2d_17">
      <path clip-path="url(#pc6550f4abc)" d="M 57.6 234.492936 
L 414.72 234.492936 
" style="fill:none;stroke:#b0b0b0;stroke-linecap:square;stroke-width:0.8;"/>
     </g>
     <g id="line2d_18">
      <g>
       <use style="stroke:#000000;stroke-width:0.8;" x="57.6" xlink:href="#meab4d08274" y="234.492936"/>
      </g>
     </g>
     <g id="text_10">
      <!-- 200 -->
      <g transform="translate(31.5125 238.292155)scale(0.1 -0.1)">
       <use xlink:href="#DejaVuSans-32"/>
       <use x="63.623047" xlink:href="#DejaVuSans-30"/>
       <use x="127.246094" xlink:href="#DejaVuSans-30"/>
      </g>
     </g>
    </g>
    <g id="ytick_4">
     <g id="line2d_19">
      <path clip-path="url(#pc6550f4abc)" d="M 57.6 198.708732 
L 414.72 198.708732 
" style="fill:none;stroke:#b0b0b0;stroke-linecap:square;stroke-width:0.8;"/>
     </g>
     <g id="line2d_20">
      <g>
       <use style="stroke:#000000;stroke-width:0.8;" x="57.6" xlink:href="#meab4d08274" y="198.708732"/>
      </g>
     </g>
     <g id="text_11">
      <!-- 400 -->
      <g transform="translate(31.5125 202.507951)scale(0.1 -0.1)">
       <use xlink:href="#DejaVuSans-34"/>
       <use x="63.623047" xlink:href="#DejaVuSans-30"/>
       <use x="127.246094" xlink:href="#DejaVuSans-30"/>
      </g>
     </g>
    </g>
    <g id="ytick_5">
     <g id="line2d_21">
      <path clip-path="url(#pc6550f4abc)" d="M 57.6 162.924528 
L 414.72 162.924528 
" style="fill:none;stroke:#b0b0b0;stroke-linecap:square;stroke-width:0.8;"/>
     </g>
     <g id="line2d_22">
      <g>
       <use style="stroke:#000000;stroke-width:0.8;" x="57.6" xlink:href="#meab4d08274" y="162.924528"/>
      </g>
     </g>
     <g id="text_12">
      <!-- 600 -->
      <defs>
       <path d="M 33.015625 40.375 
Q 26.375 40.375 22.484375 35.828125 
Q 18.609375 31.296875 18.609375 23.390625 
Q 18.609375 15.53125 22.484375 10.953125 
Q 26.375 6.390625 33.015625 6.390625 
Q 39.65625 6.390625 43.53125 10.953125 
Q 47.40625 15.53125 47.40625 23.390625 
Q 47.40625 31.296875 43.53125 35.828125 
Q 39.65625 40.375 33.015625 40.375 
z
M 52.59375 71.296875 
L 52.59375 62.3125 
Q 48.875 64.0625 45.09375 64.984375 
Q 41.3125 65.921875 37.59375 65.921875 
Q 27.828125 65.921875 22.671875 59.328125 
Q 17.53125 52.734375 16.796875 39.40625 
Q 19.671875 43.65625 24.015625 45.921875 
Q 28.375 48.1875 33.59375 48.1875 
Q 44.578125 48.1875 50.953125 41.515625 
Q 57.328125 34.859375 57.328125 23.390625 
Q 57.328125 12.15625 50.6875 5.359375 
Q 44.046875 -1.421875 33.015625 -1.421875 
Q 20.359375 -1.421875 13.671875 8.265625 
Q 6.984375 17.96875 6.984375 36.375 
Q 6.984375 53.65625 15.1875 63.9375 
Q 23.390625 74.21875 37.203125 74.21875 
Q 40.921875 74.21875 44.703125 73.484375 
Q 48.484375 72.75 52.59375 71.296875 
z
" id="DejaVuSans-36"/>
      </defs>
      <g transform="translate(31.5125 166.723747)scale(0.1 -0.1)">
       <use xlink:href="#DejaVuSans-36"/>
       <use x="63.623047" xlink:href="#DejaVuSans-30"/>
       <use x="127.246094" xlink:href="#DejaVuSans-30"/>
      </g>
     </g>
    </g>
    <g id="ytick_6">
     <g id="line2d_23">
      <path clip-path="url(#pc6550f4abc)" d="M 57.6 127.140324 
L 414.72 127.140324 
" style="fill:none;stroke:#b0b0b0;stroke-linecap:square;stroke-width:0.8;"/>
     </g>
     <g id="line2d_24">
      <g>
       <use style="stroke:#000000;stroke-width:0.8;" x="57.6" xlink:href="#meab4d08274" y="127.140324"/>
      </g>
     </g>
     <g id="text_13">
      <!-- 800 -->
      <defs>
       <path d="M 31.78125 34.625 
Q 24.75 34.625 20.71875 30.859375 
Q 16.703125 27.09375 16.703125 20.515625 
Q 16.703125 13.921875 20.71875 10.15625 
Q 24.75 6.390625 31.78125 6.390625 
Q 38.8125 6.390625 42.859375 10.171875 
Q 46.921875 13.96875 46.921875 20.515625 
Q 46.921875 27.09375 42.890625 30.859375 
Q 38.875 34.625 31.78125 34.625 
z
M 21.921875 38.8125 
Q 15.578125 40.375 12.03125 44.71875 
Q 8.5 49.078125 8.5 55.328125 
Q 8.5 64.0625 14.71875 69.140625 
Q 20.953125 74.21875 31.78125 74.21875 
Q 42.671875 74.21875 48.875 69.140625 
Q 55.078125 64.0625 55.078125 55.328125 
Q 55.078125 49.078125 51.53125 44.71875 
Q 48 40.375 41.703125 38.8125 
Q 48.828125 37.15625 52.796875 32.3125 
Q 56.78125 27.484375 56.78125 20.515625 
Q 56.78125 9.90625 50.3125 4.234375 
Q 43.84375 -1.421875 31.78125 -1.421875 
Q 19.734375 -1.421875 13.25 4.234375 
Q 6.78125 9.90625 6.78125 20.515625 
Q 6.78125 27.484375 10.78125 32.3125 
Q 14.796875 37.15625 21.921875 38.8125 
z
M 18.3125 54.390625 
Q 18.3125 48.734375 21.84375 45.5625 
Q 25.390625 42.390625 31.78125 42.390625 
Q 38.140625 42.390625 41.71875 45.5625 
Q 45.3125 48.734375 45.3125 54.390625 
Q 45.3125 60.0625 41.71875 63.234375 
Q 38.140625 66.40625 31.78125 66.40625 
Q 25.390625 66.40625 21.84375 63.234375 
Q 18.3125 60.0625 18.3125 54.390625 
z
" id="DejaVuSans-38"/>
      </defs>
      <g transform="translate(31.5125 130.939542)scale(0.1 -0.1)">
       <use xlink:href="#DejaVuSans-38"/>
       <use x="63.623047" xlink:href="#DejaVuSans-30"/>
       <use x="127.246094" xlink:href="#DejaVuSans-30"/>
      </g>
     </g>
    </g>
    <g id="ytick_7">
     <g id="line2d_25">
      <path clip-path="url(#pc6550f4abc)" d="M 57.6 91.35612 
L 414.72 91.35612 
" style="fill:none;stroke:#b0b0b0;stroke-linecap:square;stroke-width:0.8;"/>
     </g>
     <g id="line2d_26">
      <g>
       <use style="stroke:#000000;stroke-width:0.8;" x="57.6" xlink:href="#meab4d08274" y="91.35612"/>
      </g>
     </g>
     <g id="text_14">
      <!-- 1000 -->
      <g transform="translate(25.15 95.155338)scale(0.1 -0.1)">
       <use xlink:href="#DejaVuSans-31"/>
       <use x="63.623047" xlink:href="#DejaVuSans-30"/>
       <use x="127.246094" xlink:href="#DejaVuSans-30"/>
       <use x="190.869141" xlink:href="#DejaVuSans-30"/>
      </g>
     </g>
    </g>
    <g id="ytick_8">
     <g id="line2d_27">
      <path clip-path="url(#pc6550f4abc)" d="M 57.6 55.571915 
L 414.72 55.571915 
" style="fill:none;stroke:#b0b0b0;stroke-linecap:square;stroke-width:0.8;"/>
     </g>
     <g id="line2d_28">
      <g>
       <use style="stroke:#000000;stroke-width:0.8;" x="57.6" xlink:href="#meab4d08274" y="55.571915"/>
      </g>
     </g>
     <g id="text_15">
      <!-- 1200 -->
      <g transform="translate(25.15 59.371134)scale(0.1 -0.1)">
       <use xlink:href="#DejaVuSans-31"/>
       <use x="63.623047" xlink:href="#DejaVuSans-32"/>
       <use x="127.246094" xlink:href="#DejaVuSans-30"/>
       <use x="190.869141" xlink:href="#DejaVuSans-30"/>
      </g>
     </g>
    </g>
    <g id="text_16">
     <!-- Fitness -->
     <defs>
      <path d="M 9.8125 72.90625 
L 51.703125 72.90625 
L 51.703125 64.59375 
L 19.671875 64.59375 
L 19.671875 43.109375 
L 48.578125 43.109375 
L 48.578125 34.8125 
L 19.671875 34.8125 
L 19.671875 0 
L 9.8125 0 
z
" id="DejaVuSans-46"/>
     </defs>
     <g transform="translate(17.053125 192.202219)rotate(-90)scale(0.1 -0.1)">
      <use xlink:href="#DejaVuSans-46"/>
      <use x="57.410156" xlink:href="#DejaVuSans-69"/>
      <use x="85.193359" xlink:href="#DejaVuSans-74"/>
      <use x="124.402344" xlink:href="#DejaVuSans-6e"/>
      <use x="187.78125" xlink:href="#DejaVuSans-65"/>
      <use x="249.304688" xlink:href="#DejaVuSans-73"/>
      <use x="301.404297" xlink:href="#DejaVuSans-73"/>
     </g>
    </g>
   </g>
   <g id="line2d_29">
    <path clip-path="url(#pc6550f4abc)" d="M 73.832727 265.013642 
L 74.493938 264.583874 
L 75.155149 262.737766 
L 75.81636 263.828111 
L 76.477571 262.311934 
L 77.138782 263.545774 
L 77.799993 261.833857 
L 78.461203 263.853876 
L 79.122414 256.531712 
L 79.783625 261.832784 
L 80.444836 256.347781 
L 81.106047 261.540069 
L 81.767258 254.307008 
L 82.428469 261.630603 
L 83.08968 247.543078 
L 83.750891 245.114046 
L 84.412101 253.88046 
L 85.073312 251.448208 
L 85.734523 256.071169 
L 86.395734 242.162565 
L 87.056945 255.075653 
L 87.718156 258.550299 
L 88.379367 256.025365 
L 89.040578 247.15804 
L 89.701789 250.782622 
L 90.362999 246.295998 
L 91.685421 258.315912 
L 92.346632 247.417117 
L 93.007843 246.513924 
L 93.669054 251.770266 
L 94.330265 248.673143 
L 94.991476 241.834781 
L 95.652687 247.349485 
L 96.313897 241.76536 
L 96.975108 247.257878 
L 97.636319 250.485971 
L 98.29753 243.553497 
L 98.958741 244.604121 
L 99.619952 248.01364 
L 100.281163 247.79142 
L 100.942374 250.633044 
L 101.603585 245.636137 
L 102.264795 252.763277 
L 102.926006 243.875197 
L 103.587217 243.383522 
L 104.248428 245.432167 
L 104.909639 233.391141 
L 105.57085 249.372724 
L 106.232061 222.553894 
L 106.893272 245.75172 
L 107.554483 246.973393 
L 108.215693 237.925715 
L 108.876904 239.074746 
L 110.199326 231.264843 
L 110.860537 225.425219 
L 111.521748 234.228133 
L 112.182959 227.370806 
L 112.84417 232.928451 
L 113.50538 236.276779 
L 114.166591 227.758707 
L 114.827802 231.175025 
L 115.489013 226.693411 
L 116.150224 235.6298 
L 116.811435 239.786851 
L 117.472646 228.138377 
L 118.133857 220.11699 
L 119.456278 239.608646 
L 120.117489 222.20965 
L 120.7787 226.276883 
L 121.439911 231.986253 
L 122.101122 222.532066 
L 122.762333 223.389098 
L 123.423544 240.457805 
L 124.084755 217.528719 
L 124.745966 235.187508 
L 125.407176 235.133116 
L 126.068387 210.153594 
L 126.729598 217.390234 
L 127.390809 221.44351 
L 128.05202 221.650701 
L 128.713231 218.347819 
L 129.374442 227.951584 
L 130.035653 229.385099 
L 130.696864 220.4072 
L 131.358074 244.318921 
L 132.019285 237.140252 
L 132.680496 223.35725 
L 133.341707 233.176078 
L 134.002918 232.753108 
L 134.664129 238.406297 
L 135.32534 235.003577 
L 135.986551 217.196641 
L 136.647762 236.582018 
L 137.308972 235.104488 
L 137.970183 248.425516 
L 138.631394 247.43 
L 139.292605 238.451027 
L 139.953816 238.876859 
L 140.615027 237.933587 
L 141.276238 237.867387 
L 141.937449 232.778515 
L 142.59866 246.939756 
L 143.25987 243.155934 
L 143.921081 236.281073 
L 144.582292 225.483905 
L 145.243503 225.146818 
L 145.904714 235.239037 
L 146.565925 241.678047 
L 147.227136 227.923672 
L 147.888347 236.95811 
L 148.549557 218.063692 
L 149.210768 231.974802 
L 149.871979 219.276419 
L 150.53319 250.03008 
L 151.194401 237.83196 
L 151.855612 227.820614 
L 152.516823 226.49624 
L 153.178034 228.296901 
L 153.839245 239.852336 
L 154.500455 229.014017 
L 155.161666 208.039463 
L 155.822877 229.873553 
L 156.484088 242.774117 
L 157.145299 230.241057 
L 157.80651 239.90315 
L 158.467721 225.453488 
L 159.128932 237.84699 
L 159.790143 235.268738 
L 160.451353 228.780346 
L 161.112564 229.280609 
L 161.773775 219.233478 
L 162.434986 218.824107 
L 163.096197 238.639694 
L 163.757408 205.264756 
L 164.418619 231.68563 
L 165.07983 235.360703 
L 165.741041 235.091248 
L 166.402251 231.423725 
L 167.063462 211.987177 
L 167.724673 227.226596 
L 168.385884 229.36005 
L 169.047095 194.186682 
L 169.708306 228.876248 
L 170.369517 211.42286 
L 171.030728 222.483757 
L 171.691939 226.004207 
L 172.353149 225.401243 
L 173.01436 238.71583 
L 173.675571 237.67738 
L 174.336782 235.527458 
L 174.997993 238.990295 
L 175.659204 216.814824 
L 176.320415 230.275663 
L 176.981626 240.510647 
L 177.642837 235.722839 
L 178.304047 224.808657 
L 178.965258 239.235417 
L 179.626469 230.847242 
L 180.28768 233.13922 
L 180.948891 233.200053 
L 182.271313 206.409493 
L 182.932524 224.664805 
L 183.593734 224.006059 
L 184.254945 216.461634 
L 184.916156 217.965381 
L 185.577367 255.136844 
L 186.238578 229.208325 
L 186.899789 229.751887 
L 187.561 236.149534 
L 188.222211 244.33073 
L 189.544632 208.360448 
L 190.205843 221.137556 
L 190.867054 221.279977 
L 191.528265 231.765106 
L 192.189476 232.918431 
L 192.850687 240.49521 
L 193.511898 229.183192 
L 194.173109 228.331254 
L 194.83432 196.33445 
L 195.49553 225.361392 
L 196.156741 234.071194 
L 196.817952 221.534307 
L 197.479163 217.778492 
L 198.140374 226.222133 
L 198.801585 222.116714 
L 199.462796 216.039606 
L 200.124007 240.15185 
L 200.785218 214.989843 
L 201.446428 225.343757 
L 202.107639 220.968296 
L 202.76885 213.119031 
L 203.430061 237.388952 
L 204.091272 235.800133 
L 204.752483 220.822297 
L 205.413694 238.216998 
L 206.074905 221.104276 
L 206.736116 229.528594 
L 207.397326 219.842525 
L 208.058537 199.381117 
L 208.719748 201.497037 
L 209.380959 217.958487 
L 210.04217 213.289364 
L 210.703381 216.673118 
L 211.364592 243.132674 
L 212.025803 227.512154 
L 212.687014 217.47039 
L 214.009435 187.488237 
L 214.670646 203.427237 
L 215.331857 215.23173 
L 215.993068 200.781711 
L 216.654279 230.657943 
L 217.31549 230.034882 
L 217.976701 210.435216 
L 218.637911 236.621395 
L 219.960333 204.488955 
L 220.621544 227.423051 
L 221.282755 227.115307 
L 221.943966 218.437995 
L 222.605177 214.713933 
L 223.266388 237.659838 
L 223.927599 218.13204 
L 224.588809 212.196872 
L 225.25002 224.460477 
L 225.911231 239.923014 
L 226.572442 230.307237 
L 227.233653 230.593188 
L 227.894864 226.781798 
L 228.556075 258.377103 
L 229.217286 230.582986 
L 229.878497 225.792723 
L 230.539707 215.306162 
L 231.200918 221.971328 
L 231.862129 218.039359 
L 232.52334 238.680404 
L 233.184551 247.138358 
L 233.845762 209.861595 
L 234.506973 210.638112 
L 235.168184 220.100887 
L 235.829395 224.98722 
L 236.490605 204.484303 
L 237.151816 232.164458 
L 237.813027 206.770913 
L 238.474238 206.481061 
L 239.135449 212.076995 
L 239.79666 237.539246 
L 241.119082 207.67196 
L 241.780293 204.555871 
L 242.441503 216.634113 
L 243.102714 214.285596 
L 243.763925 218.437995 
L 244.425136 232.46755 
L 245.086347 215.252843 
L 245.747558 216.877635 
L 246.408769 194.527092 
L 247.06998 233.806099 
L 247.731191 244.789483 
L 248.392401 211.496673 
L 249.053612 215.734141 
L 250.376034 236.881174 
L 251.037245 197.592119 
L 251.698456 236.441744 
L 252.359667 245.729527 
L 253.020878 223.74294 
L 253.682089 239.923189 
L 254.343299 218.957329 
L 255.00451 234.45189 
L 255.665721 215.029136 
L 256.326932 215.607465 
L 256.988143 212.736505 
L 257.649354 223.760538 
L 258.310565 236.725155 
L 258.971776 238.368366 
L 259.632986 228.560827 
L 260.294197 236.897494 
L 261.616619 219.743045 
L 262.939041 236.039375 
L 263.600252 223.413073 
L 264.922674 242.638053 
L 265.583884 212.435553 
L 266.245095 226.752594 
L 266.906306 213.737733 
L 267.567517 223.108192 
L 268.228728 223.409853 
L 268.889939 211.678359 
L 269.55115 215.885866 
L 270.212361 207.119094 
L 270.873572 232.364492 
L 271.534782 196.78891 
L 272.195993 226.11657 
L 272.857204 222.678781 
L 273.518415 223.677518 
L 274.179626 246.554718 
L 274.840837 224.167762 
L 275.502048 241.087404 
L 276.163259 230.753838 
L 276.82447 211.614551 
L 277.48568 225.260254 
L 278.146891 247.74502 
L 278.808102 227.913203 
L 280.130524 207.35588 
L 280.791735 210.536485 
L 281.452946 227.943711 
L 282.114157 210.887411 
L 282.775368 219.338326 
L 283.436578 220.226132 
L 284.097789 211.549178 
L 284.759 196.289362 
L 285.420211 235.753803 
L 286.081422 230.218478 
L 286.742633 231.368975 
L 287.403844 217.428432 
L 288.065055 222.308415 
L 288.726266 210.984117 
L 289.387476 209.634723 
L 290.048687 211.758516 
L 290.709898 202.274986 
L 291.371109 224.52632 
L 292.03232 214.935043 
L 292.693531 209.022616 
L 293.354742 227.480953 
L 294.015953 229.054088 
L 294.677163 231.041481 
L 295.338374 206.290166 
L 295.999585 203.961643 
L 296.660796 221.852524 
L 297.322007 235.999809 
L 297.983218 210.495768 
L 298.644429 227.302816 
L 299.30564 226.342908 
L 299.966851 224.122183 
L 300.628061 233.786724 
L 301.289272 217.57989 
L 301.950483 218.721574 
L 302.611694 225.900791 
L 303.272905 212.086299 
L 303.934116 223.54619 
L 304.595327 230.854632 
L 305.256538 231.836675 
L 305.917749 221.061693 
L 306.578959 227.123216 
L 307.24017 210.101791 
L 307.901381 211.765672 
L 308.562592 220.793435 
L 309.223803 190.172479 
L 309.885014 215.033997 
L 310.546225 220.115917 
L 311.207436 221.491916 
L 311.868647 214.576922 
L 312.529857 215.695003 
L 313.191068 225.320954 
L 313.852279 259.549597 
L 314.51349 201.380268 
L 315.174701 241.989376 
L 315.835912 211.568944 
L 316.497123 223.309671 
L 317.158334 220.447994 
L 317.819545 206.359535 
L 318.480755 215.371647 
L 319.141966 200.512614 
L 319.803177 191.796767 
L 320.464388 222.003533 
L 321.125599 207.794061 
L 321.78681 199.363723 
L 322.448021 204.587165 
L 323.109232 237.914622 
L 323.770443 229.520392 
L 324.431653 246.185067 
L 325.092864 245.133369 
L 325.754075 223.65569 
L 326.415286 235.299512 
L 327.076497 214.852155 
L 327.737708 241.365258 
L 328.398919 242.171104 
L 329.06013 230.265748 
L 329.72134 228.105456 
L 330.382551 228.382068 
L 331.043762 221.764853 
L 331.704973 230.332665 
L 332.366184 208.041253 
L 333.027395 232.605502 
L 333.688606 215.137618 
L 334.349817 224.210455 
L 335.011028 208.784133 
L 335.672238 196.139988 
L 336.99466 236.64291 
L 337.655871 210.73473 
L 338.317082 204.012667 
L 338.978293 233.969771 
L 339.639504 232.402481 
L 340.300715 233.988671 
L 340.961926 216.953666 
L 341.623136 238.55919 
L 342.284347 222.393859 
L 342.945558 227.018332 
L 343.606769 214.59727 
L 344.26798 239.940008 
L 344.929191 253.052772 
L 345.590402 244.099564 
L 346.251613 215.647901 
L 346.912824 238.632811 
L 347.574034 223.427029 
L 348.235245 227.401938 
L 348.896456 232.543771 
L 349.557667 215.078932 
L 350.218878 232.474707 
L 350.880089 229.340727 
L 351.5413 208.367962 
L 352.202511 229.822382 
L 352.863722 228.232104 
L 353.524932 220.882056 
L 354.186143 217.998523 
L 354.847354 228.857998 
L 355.508565 222.784702 
L 356.169776 248.968012 
L 356.830987 234.500093 
L 357.492198 223.002986 
L 358.153409 234.044202 
L 358.81462 216.215796 
L 359.47583 226.335211 
L 360.137041 223.828513 
L 360.798252 234.599236 
L 361.459463 247.594165 
L 362.120674 207.324656 
L 362.781885 229.745088 
L 363.443096 234.182806 
L 364.104307 217.710502 
L 364.765517 239.842675 
L 365.426728 225.4713 
L 366.087939 238.52743 
L 366.74915 236.910124 
L 367.410361 230.483351 
L 368.071572 232.947059 
L 368.732783 234.601692 
L 369.393994 244.472077 
L 370.055205 225.744056 
L 370.716415 224.44389 
L 371.377626 211.125135 
L 372.038837 228.026373 
L 372.700048 213.237119 
L 373.361259 222.550133 
L 374.02247 203.012498 
L 374.683681 204.678253 
L 375.344892 215.251054 
L 376.006103 187.860154 
L 376.667313 203.831837 
L 377.328524 212.219774 
L 377.989735 232.508008 
L 378.650946 194.695891 
L 379.312157 205.919965 
L 379.973368 208.260559 
L 380.634579 234.723744 
L 381.29579 229.584775 
L 381.957001 214.868521 
L 382.618211 220.487357 
L 383.279422 221.326854 
L 383.940633 226.278314 
L 384.601844 203.7518 
L 385.263055 206.761609 
L 385.924266 219.975285 
L 386.585477 245.088281 
L 387.246688 218.868479 
L 387.907899 211.258968 
L 388.569109 206.400189 
L 389.23032 203.704207 
L 389.891531 243.640182 
L 390.552742 212.416587 
L 391.213953 192.458663 
L 391.875164 248.901446 
L 392.536375 210.955876 
L 393.858797 196.863039 
L 394.520007 219.828569 
L 395.181218 204.536445 
L 395.842429 220.728542 
L 396.50364 208.332127 
L 397.164851 190.291572 
L 397.826062 211.730604 
L 398.487273 226.762088 
L 398.487273 226.762088 
" style="fill:none;stroke:#0000ff;stroke-linecap:square;stroke-width:1.5;"/>
   </g>
   <g id="line2d_30">
    <path clip-path="url(#pc6550f4abc)" d="M 73.832727 266.387264 
L 74.493938 265.695196 
L 75.155149 272.014702 
L 75.81636 268.853829 
L 77.138782 266.415835 
L 77.799993 265.975072 
L 78.461203 267.132627 
L 79.122414 275.404911 
L 79.783625 281.527777 
L 80.444836 278.03864 
L 81.106047 280.116992 
L 81.767258 269.646857 
L 82.428469 276.236537 
L 83.08968 267.732222 
L 83.750891 270.682418 
L 85.073312 282.916759 
L 85.734523 284.198283 
L 86.395734 272.895296 
L 87.056945 269.010297 
L 87.718156 286.794995 
L 89.040578 272.519754 
L 89.701789 283.98157 
L 90.362999 274.466204 
L 91.02421 286.41552 
L 91.685421 283.817292 
L 92.346632 271.169434 
L 93.007843 276.648759 
L 93.669054 284.152028 
L 94.330265 281.933035 
L 94.991476 277.173053 
L 95.652687 284.868825 
L 96.313897 275.288165 
L 96.975108 281.386211 
L 97.636319 288.636964 
L 98.29753 279.442191 
L 98.958741 288.64307 
L 99.619952 289.447429 
L 100.281163 285.578766 
L 100.942374 287.549332 
L 101.603585 285.910545 
L 102.264795 281.496152 
L 102.926006 283.965424 
L 103.587217 264.369429 
L 104.248428 284.262611 
L 104.909639 268.382679 
L 105.57085 283.737836 
L 106.232061 275.60203 
L 106.893272 289.170686 
L 107.554483 291.753507 
L 108.215693 286.761213 
L 108.876904 291.602897 
L 110.199326 278.550416 
L 110.860537 283.269843 
L 111.521748 289.403595 
L 112.182959 289.712216 
L 112.84417 293.610361 
L 113.50538 286.154671 
L 114.166591 285.456153 
L 114.827802 279.177962 
L 115.489013 278.391298 
L 116.150224 287.981141 
L 116.811435 268.819689 
L 117.472646 275.48622 
L 118.133857 275.495703 
L 118.795068 266.158582 
L 119.456278 283.121589 
L 120.117489 284.322461 
L 120.7787 279.671052 
L 121.439911 277.106684 
L 122.101122 285.67324 
L 122.762333 275.786647 
L 123.423544 282.210236 
L 124.084755 279.187964 
L 124.745966 281.040382 
L 125.407176 281.692474 
L 126.068387 271.178035 
L 126.729598 272.652398 
L 127.390809 282.532998 
L 128.05202 272.593406 
L 128.713231 269.869452 
L 129.374442 282.01038 
L 130.696864 268.363641 
L 131.358074 288.464317 
L 132.019285 282.134156 
L 132.680496 285.596419 
L 133.341707 278.28412 
L 134.002918 275.661489 
L 134.664129 280.996229 
L 135.32534 291.610498 
L 135.986551 266.292345 
L 136.647762 280.974643 
L 137.308972 282.140334 
L 137.970183 284.421354 
L 138.631394 271.227726 
L 139.953816 284.630869 
L 140.615027 279.247921 
L 141.276238 278.341123 
L 141.937449 271.333373 
L 142.59866 271.094598 
L 143.25987 280.600412 
L 143.921081 273.49098 
L 144.582292 270.142798 
L 145.243503 274.003278 
L 145.904714 275.516604 
L 146.565925 271.683578 
L 147.227136 273.941507 
L 147.888347 281.454866 
L 148.549557 284.458856 
L 149.210768 284.406302 
L 149.871979 283.769043 
L 150.53319 266.288286 
L 151.194401 279.407748 
L 151.855612 284.303618 
L 152.516823 266.977489 
L 153.178034 278.141424 
L 153.839245 279.166912 
L 154.500455 277.062359 
L 155.161666 264.788286 
L 155.822877 259.263893 
L 156.484088 278.703859 
L 157.145299 266.628407 
L 157.80651 285.308906 
L 158.467721 278.85487 
L 159.128932 274.552259 
L 159.790143 285.154943 
L 160.451353 278.064764 
L 161.112564 291.242727 
L 161.773775 262.74825 
L 162.434986 279.594947 
L 163.096197 283.457235 
L 163.757408 280.336794 
L 164.418619 287.960482 
L 165.07983 283.180346 
L 165.741041 287.25068 
L 166.402251 274.758195 
L 167.063462 267.193046 
L 167.724673 279.650871 
L 168.385884 280.423453 
L 169.047095 259.037056 
L 169.708306 290.459704 
L 170.369517 287.258128 
L 171.030728 268.430781 
L 171.691939 284.406535 
L 172.353149 268.435936 
L 173.01436 267.425563 
L 174.336782 285.393338 
L 174.997993 277.430941 
L 175.659204 277.103207 
L 176.320415 293.197216 
L 176.981626 283.672436 
L 177.642837 289.659182 
L 178.304047 287.691176 
L 178.965258 287.756602 
L 179.626469 281.84006 
L 180.28768 274.587886 
L 180.948891 276.5269 
L 181.610102 287.569539 
L 182.271313 271.655534 
L 182.932524 273.333993 
L 183.593734 271.684917 
L 184.254945 275.734716 
L 184.916156 265.307468 
L 185.577367 272.603934 
L 186.238578 277.980056 
L 186.899789 273.685441 
L 187.561 266.04636 
L 188.883422 290.216608 
L 189.544632 272.298834 
L 190.205843 269.625783 
L 190.867054 281.057811 
L 191.528265 269.243728 
L 192.189476 281.082 
L 192.850687 278.746133 
L 193.511898 284.19175 
L 194.173109 279.463157 
L 194.83432 268.337909 
L 195.49553 277.37467 
L 196.156741 269.830626 
L 196.817952 288.856501 
L 197.479163 279.261945 
L 198.140374 278.935407 
L 198.801585 282.540243 
L 199.462796 274.797855 
L 200.124007 282.680661 
L 200.785218 286.926638 
L 201.446428 267.94182 
L 202.107639 281.46211 
L 202.76885 276.034697 
L 203.430061 269.205534 
L 204.091272 283.670509 
L 204.752483 279.252178 
L 205.413694 269.858135 
L 206.074905 283.176172 
L 206.736116 279.382138 
L 207.397326 271.52346 
L 208.058537 273.34464 
L 208.719748 258.504598 
L 210.04217 281.106306 
L 210.703381 268.333708 
L 211.364592 271.249738 
L 212.025803 277.978092 
L 212.687014 282.747232 
L 213.348224 281.793532 
L 214.009435 256.962621 
L 214.670646 268.63521 
L 215.331857 267.983802 
L 215.993068 263.112373 
L 216.654279 268.936888 
L 217.31549 276.235279 
L 217.976701 260.475693 
L 218.637911 282.972393 
L 219.299122 265.81515 
L 219.960333 275.739768 
L 220.621544 281.438971 
L 221.282755 281.685846 
L 221.943966 277.665825 
L 222.605177 281.142964 
L 223.266388 277.960292 
L 223.927599 281.71345 
L 224.588809 280.438276 
L 225.25002 283.146246 
L 225.911231 272.347091 
L 226.572442 270.650297 
L 227.233653 281.258459 
L 227.894864 284.345239 
L 228.556075 265.468718 
L 229.217286 292.719586 
L 230.539707 265.694147 
L 231.200918 285.722093 
L 231.862129 285.1555 
L 232.52334 288.531935 
L 233.184551 269.187388 
L 233.845762 277.639854 
L 234.506973 281.286026 
L 235.168184 281.627962 
L 235.829395 275.161147 
L 236.490605 269.995527 
L 237.151816 281.685578 
L 237.813027 267.67794 
L 238.474238 283.53416 
L 239.79666 266.384351 
L 240.457871 284.135007 
L 241.119082 282.908279 
L 241.780293 264.699417 
L 242.441503 284.328916 
L 243.102714 278.031658 
L 243.763925 270.365019 
L 244.425136 282.230054 
L 245.086347 286.637801 
L 245.747558 276.437743 
L 246.408769 268.247114 
L 247.06998 269.272744 
L 247.731191 273.125201 
L 248.392401 288.042144 
L 249.053612 262.2691 
L 249.714823 286.069096 
L 250.376034 280.607894 
L 251.037245 272.390176 
L 251.698456 288.29138 
L 252.359667 278.899564 
L 253.020878 293.299636 
L 253.682089 272.248784 
L 254.343299 276.831031 
L 255.00451 279.54766 
L 255.665721 268.641022 
L 256.326932 279.306039 
L 256.988143 275.595047 
L 258.310565 278.446061 
L 258.971776 277.105614 
L 259.632986 286.846094 
L 260.294197 279.636516 
L 260.955408 286.521637 
L 261.616619 274.674148 
L 262.27783 290.485012 
L 263.600252 284.327485 
L 264.261463 294.462762 
L 264.922674 279.261487 
L 265.583884 275.029035 
L 266.245095 286.536949 
L 266.906306 292.859795 
L 267.567517 259.934133 
L 268.228728 284.833156 
L 268.889939 266.529685 
L 269.55115 275.770735 
L 270.212361 268.561988 
L 270.873572 285.119847 
L 271.534782 264.197644 
L 272.195993 284.62149 
L 272.857204 285.198356 
L 273.518415 280.01598 
L 274.179626 277.521882 
L 274.840837 276.791718 
L 275.502048 268.491053 
L 276.163259 281.100554 
L 276.82447 284.553301 
L 277.48568 268.679036 
L 278.146891 270.891245 
L 278.808102 276.489682 
L 279.469313 271.575727 
L 280.130524 275.208139 
L 280.791735 270.267536 
L 281.452946 276.319232 
L 282.114157 262.324091 
L 282.775368 269.092498 
L 283.436578 290.878422 
L 284.097789 276.251379 
L 284.759 265.252123 
L 285.420211 262.793282 
L 286.081422 288.222226 
L 286.742633 282.441844 
L 288.065055 277.269627 
L 288.726266 277.734897 
L 289.387476 282.272717 
L 290.048687 269.978336 
L 290.709898 255.591122 
L 291.371109 287.283813 
L 292.03232 260.795585 
L 292.693531 272.893678 
L 293.354742 276.096021 
L 294.015953 282.423419 
L 294.677163 276.816191 
L 295.338374 273.783533 
L 296.660796 286.186514 
L 297.983218 262.755256 
L 298.644429 283.789488 
L 299.30564 277.768327 
L 299.966851 290.697142 
L 300.628061 281.221174 
L 301.289272 284.656123 
L 301.950483 266.355916 
L 302.611694 272.081325 
L 303.272905 273.772318 
L 303.934116 271.222056 
L 304.595327 272.691935 
L 305.256538 269.298874 
L 305.917749 272.231716 
L 306.578959 288.774618 
L 307.24017 279.017257 
L 307.901381 285.798781 
L 308.562592 274.00637 
L 309.223803 256.209311 
L 309.885014 275.623798 
L 310.546225 276.222884 
L 311.207436 269.305632 
L 311.868647 289.554506 
L 312.529857 282.236562 
L 313.191068 285.517363 
L 313.852279 266.715034 
L 314.51349 274.252408 
L 315.174701 273.623383 
L 315.835912 267.718609 
L 316.497123 257.438678 
L 317.158334 278.786384 
L 317.819545 269.138597 
L 318.480755 270.458472 
L 319.141966 273.02262 
L 319.803177 268.59012 
L 320.464388 280.788141 
L 321.125599 269.884476 
L 321.78681 263.330745 
L 322.448021 266.286019 
L 323.109232 283.318917 
L 323.770443 286.257906 
L 324.431653 285.464992 
L 325.092864 292.841196 
L 325.754075 282.65974 
L 327.076497 289.003195 
L 327.737708 279.212266 
L 328.398919 262.867359 
L 329.06013 282.769148 
L 329.72134 280.708085 
L 331.043762 288.400553 
L 331.704973 281.527556 
L 332.366184 272.648418 
L 333.027395 279.308456 
L 333.688606 275.060141 
L 334.349817 285.738079 
L 335.011028 283.327505 
L 335.672238 262.490489 
L 336.333449 275.656446 
L 336.99466 283.011554 
L 338.317082 266.633985 
L 338.978293 285.063348 
L 339.639504 270.444939 
L 340.300715 284.233907 
L 340.961926 276.34744 
L 341.623136 260.469541 
L 342.284347 279.814171 
L 342.945558 284.717025 
L 343.606769 279.497922 
L 344.26798 295.488 
L 344.929191 270.911648 
L 345.590402 281.438043 
L 346.251613 284.983652 
L 346.912824 280.414026 
L 348.235245 289.769237 
L 349.557667 274.224066 
L 350.218878 286.897356 
L 350.880089 274.448656 
L 351.5413 275.277736 
L 352.202511 282.111057 
L 352.863722 283.508211 
L 353.524932 272.217089 
L 354.186143 275.96127 
L 354.847354 273.671247 
L 355.508565 266.437975 
L 356.169776 270.337741 
L 356.830987 282.182693 
L 357.492198 276.727251 
L 358.153409 278.024393 
L 358.81462 273.981513 
L 359.47583 276.856985 
L 360.137041 269.700813 
L 360.798252 284.486339 
L 361.459463 265.300911 
L 362.120674 272.645784 
L 362.781885 277.630278 
L 363.443096 277.533464 
L 364.104307 269.580026 
L 364.765517 285.116138 
L 365.426728 278.879272 
L 366.087939 284.996506 
L 366.74915 262.456256 
L 367.410361 279.715586 
L 368.071572 279.95552 
L 368.732783 283.104565 
L 369.393994 287.876987 
L 370.055205 282.683541 
L 370.716415 271.166637 
L 371.377626 272.164281 
L 372.038837 273.963406 
L 372.700048 282.294405 
L 373.361259 285.472201 
L 374.02247 273.731799 
L 374.683681 277.605781 
L 375.344892 265.791759 
L 376.006103 256.969796 
L 376.667313 271.535369 
L 377.328524 275.270288 
L 377.989735 272.904949 
L 378.650946 278.856534 
L 379.312157 269.55587 
L 379.973368 265.226511 
L 380.634579 277.020234 
L 381.29579 275.053579 
L 381.957001 282.050125 
L 382.618211 271.871942 
L 383.279422 276.502533 
L 383.940633 276.680492 
L 384.601844 276.191564 
L 385.263055 275.856935 
L 385.924266 270.138563 
L 386.585477 269.545515 
L 387.246688 278.469718 
L 387.907899 263.338119 
L 388.569109 274.925581 
L 389.23032 274.228194 
L 389.891531 272.391952 
L 390.552742 275.353257 
L 391.213953 267.053092 
L 391.875164 269.653986 
L 392.536375 290.106737 
L 393.858797 258.219152 
L 394.520007 283.67249 
L 395.181218 264.99087 
L 395.842429 260.700964 
L 396.50364 276.399549 
L 397.164851 257.823319 
L 397.826062 275.767841 
L 398.487273 273.183837 
L 398.487273 273.183837 
" style="fill:none;stroke:#008000;stroke-dasharray:9.6,2.4,1.5,2.4;stroke-dashoffset:0;stroke-width:1.5;"/>
   </g>
   <g id="line2d_31">
    <path clip-path="url(#pc6550f4abc)" d="M 73.832727 263.640019 
L 74.493938 263.472551 
L 75.155149 253.460831 
L 75.81636 258.802393 
L 76.477571 257.014005 
L 77.138782 260.675713 
L 77.799993 257.692643 
L 78.461203 260.575125 
L 79.122414 237.658513 
L 79.783625 242.137791 
L 80.444836 234.656922 
L 81.106047 242.963146 
L 81.767258 238.967159 
L 82.428469 247.02467 
L 83.08968 227.353933 
L 83.750891 219.545673 
L 84.412101 231.027799 
L 85.073312 219.979656 
L 85.734523 227.944055 
L 86.395734 211.429833 
L 87.056945 241.141008 
L 87.718156 230.305603 
L 88.379367 232.987183 
L 89.040578 221.796326 
L 89.701789 217.583674 
L 90.362999 218.125793 
L 91.02421 218.963604 
L 91.685421 232.814532 
L 92.346632 223.664801 
L 93.007843 216.379089 
L 93.669054 219.388503 
L 94.330265 215.413251 
L 94.991476 206.49651 
L 95.652687 209.830145 
L 96.313897 208.242555 
L 96.975108 213.129544 
L 97.636319 212.334977 
L 98.29753 207.664802 
L 98.958741 200.565171 
L 99.619952 206.579851 
L 100.942374 213.716755 
L 101.603585 205.36173 
L 102.264795 224.030403 
L 102.926006 203.784969 
L 103.587217 222.397614 
L 104.248428 206.601724 
L 104.909639 198.399602 
L 105.57085 215.007612 
L 106.232061 169.505759 
L 106.893272 202.332755 
L 107.554483 202.193279 
L 108.215693 189.090216 
L 108.876904 186.546595 
L 109.538115 185.404764 
L 110.199326 183.97927 
L 110.860537 167.580594 
L 111.521748 179.052671 
L 112.182959 165.029396 
L 112.84417 172.24654 
L 113.50538 186.398887 
L 114.166591 170.061261 
L 114.827802 183.172088 
L 115.489013 174.995524 
L 116.150224 183.27846 
L 116.811435 210.754014 
L 117.472646 180.790535 
L 118.133857 164.738277 
L 118.795068 192.199381 
L 119.456278 196.095703 
L 120.117489 160.09684 
L 121.439911 186.865822 
L 122.101122 159.390892 
L 122.762333 170.991549 
L 123.423544 198.705374 
L 124.084755 155.869473 
L 124.745966 189.334634 
L 125.407176 188.573757 
L 126.068387 149.129153 
L 126.729598 162.128069 
L 127.390809 160.354023 
L 128.05202 170.707996 
L 128.713231 166.826186 
L 129.374442 173.892788 
L 130.035653 183.608662 
L 130.696864 172.450759 
L 131.358074 200.173525 
L 132.019285 192.146347 
L 132.680496 161.11808 
L 133.341707 188.068035 
L 134.002918 189.844727 
L 134.664129 195.816365 
L 135.32534 178.396656 
L 135.986551 168.100938 
L 136.647762 192.189393 
L 137.308972 188.068643 
L 137.970183 212.429678 
L 138.631394 223.632273 
L 139.292605 198.50416 
L 139.953816 193.12285 
L 140.615027 196.619254 
L 141.276238 197.39365 
L 141.937449 194.223657 
L 142.59866 222.784914 
L 143.25987 205.711456 
L 143.921081 199.071166 
L 144.582292 180.825012 
L 145.243503 176.290358 
L 146.565925 211.672516 
L 147.227136 181.905837 
L 147.888347 192.461354 
L 148.549557 151.668529 
L 149.210768 179.543301 
L 149.871979 154.783795 
L 150.53319 233.771874 
L 151.194401 196.256173 
L 151.855612 171.337609 
L 152.516823 186.014992 
L 153.178034 178.452379 
L 153.839245 200.537761 
L 154.500455 180.965674 
L 155.161666 151.290641 
L 155.822877 200.483214 
L 156.484088 206.844375 
L 157.145299 193.853707 
L 157.80651 194.497394 
L 158.467721 172.052107 
L 159.128932 201.14172 
L 159.790143 185.382533 
L 160.451353 179.495928 
L 161.112564 167.318491 
L 161.773775 175.718706 
L 162.434986 158.053266 
L 163.096197 193.822153 
L 163.757408 130.192718 
L 164.418619 175.410779 
L 165.07983 187.541061 
L 165.741041 182.931816 
L 166.402251 188.089255 
L 167.063462 156.781307 
L 167.724673 174.80232 
L 168.385884 178.296647 
L 169.047095 129.336309 
L 169.708306 167.292791 
L 170.369517 135.587592 
L 171.030728 176.536734 
L 171.691939 167.601879 
L 172.353149 182.366551 
L 173.01436 210.006097 
L 174.336782 185.661577 
L 174.997993 200.549649 
L 175.659204 156.526441 
L 176.320415 167.354109 
L 176.981626 197.348857 
L 177.642837 181.786497 
L 178.304047 161.926138 
L 178.965258 190.714232 
L 179.626469 179.854423 
L 180.28768 191.690553 
L 180.948891 189.873205 
L 181.610102 150.667683 
L 182.271313 141.163451 
L 182.932524 175.995616 
L 183.593734 176.327202 
L 184.254945 157.188551 
L 184.916156 170.623294 
L 185.577367 237.669753 
L 186.238578 180.436594 
L 186.899789 185.818333 
L 187.561 206.252708 
L 188.222211 210.974396 
L 188.883422 163.3019 
L 189.544632 144.422061 
L 190.205843 172.649328 
L 190.867054 161.502142 
L 191.528265 194.286485 
L 192.189476 184.754862 
L 192.850687 202.244287 
L 193.511898 174.174633 
L 194.173109 177.199351 
L 194.83432 124.330992 
L 195.49553 173.348113 
L 196.156741 198.311762 
L 196.817952 154.212113 
L 197.479163 156.29504 
L 198.140374 173.508859 
L 198.801585 161.693184 
L 199.462796 157.281358 
L 200.124007 197.623039 
L 200.785218 143.053048 
L 201.446428 182.745695 
L 202.107639 160.474483 
L 202.76885 150.203365 
L 203.430061 205.57237 
L 204.091272 187.929757 
L 204.752483 162.392415 
L 205.413694 206.575862 
L 206.074905 159.032381 
L 206.736116 179.67505 
L 207.397326 168.161591 
L 208.058537 125.417595 
L 209.380959 165.511626 
L 210.04217 145.472422 
L 210.703381 165.012529 
L 211.364592 215.015611 
L 212.025803 177.046215 
L 213.348224 125.096011 
L 214.009435 118.013853 
L 214.670646 138.219265 
L 215.331857 162.479659 
L 215.993068 138.451049 
L 216.654279 192.378998 
L 217.31549 183.834484 
L 217.976701 160.394739 
L 218.637911 190.270396 
L 219.299122 177.6629 
L 219.960333 133.238142 
L 220.621544 173.407131 
L 221.282755 172.544768 
L 221.943966 159.210165 
L 222.605177 148.284902 
L 223.266388 197.359385 
L 223.927599 154.55063 
L 224.588809 143.955468 
L 225.25002 165.774707 
L 225.911231 207.498937 
L 226.572442 189.964176 
L 227.894864 169.218357 
L 228.556075 251.285488 
L 229.217286 168.446385 
L 229.878497 172.136654 
L 231.862129 150.923218 
L 233.184551 225.089329 
L 233.845762 142.083336 
L 234.506973 139.990199 
L 235.829395 174.813294 
L 236.490605 138.973078 
L 237.151816 182.643338 
L 237.813027 145.863886 
L 238.474238 129.427962 
L 239.135449 148.723781 
L 239.79666 208.69414 
L 240.457871 163.100511 
L 241.119082 132.43564 
L 241.780293 144.412325 
L 242.441503 148.939311 
L 243.102714 150.539534 
L 244.425136 182.705046 
L 245.086347 143.867886 
L 245.747558 157.317528 
L 246.408769 120.80707 
L 247.06998 198.339454 
L 247.731191 216.453765 
L 248.392401 134.951203 
L 249.053612 169.199181 
L 249.714823 166.855282 
L 250.376034 193.154454 
L 251.037245 122.794062 
L 251.698456 184.592108 
L 252.359667 212.55949 
L 253.020878 154.186245 
L 253.682089 207.597594 
L 254.343299 161.083628 
L 255.00451 189.35612 
L 255.665721 161.417249 
L 256.326932 151.90889 
L 256.988143 149.877963 
L 257.649354 170.570764 
L 258.310565 195.004249 
L 258.971776 199.631117 
L 259.632986 170.27556 
L 260.294197 194.158473 
L 260.955408 169.81487 
L 261.616619 164.811942 
L 262.27783 164.386139 
L 262.939041 184.48325 
L 263.600252 162.498661 
L 264.261463 171.329896 
L 264.922674 206.014618 
L 265.583884 149.842071 
L 266.245095 166.968239 
L 266.906306 134.61567 
L 267.567517 186.28225 
L 268.228728 161.986549 
L 268.889939 156.827033 
L 269.55115 156.000996 
L 270.212361 145.676199 
L 270.873572 179.609137 
L 271.534782 129.380175 
L 272.195993 167.61165 
L 272.857204 160.159207 
L 273.518415 167.339056 
L 274.179626 215.587554 
L 274.840837 171.543806 
L 275.502048 213.683755 
L 276.163259 180.407121 
L 276.82447 138.675801 
L 278.146891 224.598795 
L 278.808102 179.336725 
L 279.469313 162.621584 
L 280.130524 139.503621 
L 280.791735 150.805434 
L 281.452946 179.568191 
L 282.114157 159.450732 
L 282.775368 169.584154 
L 283.436578 149.573842 
L 284.097789 146.846977 
L 284.759 127.326601 
L 285.420211 208.714324 
L 286.081422 172.21473 
L 286.742633 180.296106 
L 287.403844 155.041924 
L 288.065055 167.347202 
L 288.726266 144.233338 
L 289.387476 136.996729 
L 290.048687 153.538695 
L 290.709898 148.95885 
L 291.371109 161.768826 
L 292.03232 169.074501 
L 292.693531 145.151554 
L 293.354742 178.865884 
L 294.015953 175.684757 
L 294.677163 185.266771 
L 295.338374 138.7968 
L 295.999585 127.927499 
L 296.660796 157.518533 
L 297.322007 198.295308 
L 297.983218 158.236281 
L 298.644429 170.816144 
L 299.30564 174.91749 
L 299.966851 157.547223 
L 300.628061 186.352274 
L 301.289272 150.503657 
L 301.950483 171.087233 
L 302.611694 179.720257 
L 303.272905 150.40028 
L 303.934116 175.870325 
L 304.595327 189.017329 
L 305.256538 194.374475 
L 305.917749 169.89167 
L 306.578959 165.471813 
L 307.24017 141.186325 
L 307.901381 137.732564 
L 308.562592 167.5805 
L 309.223803 124.135646 
L 309.885014 154.444196 
L 311.207436 173.678199 
L 311.868647 139.599337 
L 312.529857 149.153443 
L 313.191068 165.124544 
L 313.852279 252.384161 
L 314.51349 128.508129 
L 315.174701 210.355369 
L 315.835912 155.419279 
L 316.497123 189.180663 
L 317.158334 162.109604 
L 317.819545 143.580474 
L 318.480755 160.284821 
L 319.141966 128.002607 
L 319.803177 115.003415 
L 320.464388 163.218926 
L 321.125599 145.703646 
L 321.78681 135.396702 
L 322.448021 142.88831 
L 323.109232 192.510326 
L 323.770443 172.782879 
L 324.431653 206.905142 
L 325.092864 197.425543 
L 325.754075 164.65164 
L 326.415286 184.580908 
L 327.076497 140.701115 
L 327.737708 203.518249 
L 328.398919 221.474849 
L 329.06013 177.762348 
L 329.72134 175.502826 
L 330.382551 172.081442 
L 331.043762 155.129152 
L 331.704973 179.137774 
L 332.366184 143.434087 
L 333.027395 185.902548 
L 333.688606 155.215095 
L 334.349817 162.682831 
L 335.011028 134.24076 
L 335.672238 129.789486 
L 336.333449 155.468278 
L 336.99466 190.274266 
L 337.655871 146.045115 
L 338.317082 141.391349 
L 338.978293 182.876194 
L 339.639504 194.360023 
L 340.300715 183.743435 
L 340.961926 157.559893 
L 341.623136 216.64884 
L 342.284347 164.973546 
L 342.945558 169.319639 
L 343.606769 149.696617 
L 344.26798 184.392016 
L 344.929191 235.193895 
L 345.590402 206.761084 
L 346.251613 146.31215 
L 346.912824 196.851596 
L 347.574034 161.971931 
L 348.235245 165.03464 
L 348.896456 183.295219 
L 349.557667 155.933797 
L 350.218878 178.052058 
L 350.880089 184.232797 
L 351.5413 141.458189 
L 352.202511 177.533707 
L 352.863722 172.955996 
L 353.524932 169.547023 
L 354.186143 160.035776 
L 354.847354 184.044748 
L 355.508565 179.13143 
L 356.169776 227.598283 
L 356.830987 186.817493 
L 357.492198 169.278721 
L 358.153409 190.064011 
L 358.81462 158.450079 
L 359.47583 175.813437 
L 360.137041 177.956213 
L 360.798252 184.712133 
L 361.459463 229.887419 
L 362.120674 142.003529 
L 362.781885 181.859898 
L 363.443096 190.832149 
L 364.104307 165.840979 
L 364.765517 194.569212 
L 365.426728 172.063328 
L 366.74915 211.363992 
L 367.410361 181.251117 
L 368.071572 185.938598 
L 368.732783 186.09882 
L 369.393994 201.067167 
L 370.055205 168.804571 
L 370.716415 177.721142 
L 371.377626 150.085989 
L 372.038837 182.08934 
L 372.700048 144.179833 
L 373.361259 159.628066 
L 374.02247 132.293198 
L 374.683681 131.750725 
L 375.344892 164.710349 
L 376.006103 118.750513 
L 376.667313 136.128306 
L 377.328524 149.16926 
L 377.989735 192.111068 
L 378.650946 110.535249 
L 379.312157 142.28406 
L 379.973368 151.294606 
L 380.634579 192.427254 
L 381.29579 184.115971 
L 381.957001 147.686916 
L 382.618211 169.102771 
L 383.279422 166.151175 
L 383.940633 175.876137 
L 384.601844 131.312036 
L 385.263055 137.666284 
L 385.924266 169.812006 
L 386.585477 220.631048 
L 387.246688 159.267241 
L 387.907899 159.179818 
L 388.569109 137.874797 
L 389.23032 133.18022 
L 389.891531 214.888412 
L 390.552742 149.479917 
L 391.213953 117.864234 
L 391.875164 228.148906 
L 392.536375 131.805015 
L 393.197586 132.844105 
L 393.858797 135.506926 
L 394.520007 155.984648 
L 395.181218 144.082021 
L 395.842429 180.75612 
L 396.50364 140.264705 
L 397.164851 122.759824 
L 397.826062 147.693367 
L 398.487273 180.340338 
L 398.487273 180.340338 
" style="fill:none;stroke:#008000;stroke-dasharray:9.6,2.4,1.5,2.4;stroke-dashoffset:0;stroke-width:1.5;"/>
   </g>
   <g id="line2d_32">
    <path clip-path="url(#pc6550f4abc)" d="M 73.832727 255.623509 
L 74.493938 260.418592 
L 75.155149 199.191819 
L 75.81636 230.86084 
L 76.477571 249.540194 
L 77.138782 257.16223 
L 77.799993 256.035027 
L 78.461203 241.953943 
L 79.122414 150.632654 
L 79.783625 124.116558 
L 80.444836 110.661698 
L 81.106047 131.756486 
L 81.767258 193.985217 
L 82.428469 161.314239 
L 83.08968 134.744467 
L 83.750891 155.928716 
L 84.412101 160.705907 
L 85.073312 116.512415 
L 85.734523 145.139778 
L 86.395734 115.921976 
L 87.056945 177.936002 
L 87.718156 95.077677 
L 88.379367 145.569189 
L 89.040578 120.949656 
L 89.701789 115.832515 
L 90.362999 174.840668 
L 91.02421 102.842849 
L 91.685421 135.138093 
L 92.346632 145.157671 
L 93.007843 160.688015 
L 93.669054 159.059834 
L 94.330265 132.221681 
L 94.991476 134.816036 
L 96.313897 163.175017 
L 96.975108 139.145924 
L 97.636319 109.552387 
L 98.29753 161.045857 
L 98.958741 123.382982 
L 99.619952 134.082459 
L 100.281163 153.06598 
L 100.942374 137.857693 
L 101.603585 129.197915 
L 102.264795 115.098939 
L 102.926006 131.649133 
L 103.587217 201.589361 
L 104.248428 134.959172 
L 104.909639 120.913872 
L 105.57085 155.821363 
L 106.232061 105.043578 
L 106.893272 124.545969 
L 107.554483 54.480497 
L 108.215693 102.842849 
L 108.876904 126.370963 
L 109.538115 143.261108 
L 110.199326 132.364818 
L 110.860537 105.562449 
L 111.521748 86.93677 
L 112.182959 104.900441 
L 112.84417 107.029601 
L 113.50538 125.8342 
L 114.166591 88.672304 
L 114.827802 129.376837 
L 115.489013 137.356714 
L 116.150224 72.945147 
L 116.811435 172.568371 
L 117.472646 136.64103 
L 118.133857 131.577565 
L 118.795068 169.795095 
L 119.456278 158.970373 
L 120.117489 121.611664 
L 120.7787 99.353889 
L 121.439911 123.168277 
L 122.101122 78.455914 
L 122.762333 134.923388 
L 123.423544 143.02851 
L 124.084755 86.453684 
L 124.745966 150.525301 
L 125.407176 153.40593 
L 126.068387 110.500669 
L 126.729598 125.601603 
L 127.390809 105.06147 
L 128.05202 96.204879 
L 128.713231 132.507954 
L 129.374442 113.417081 
L 130.035653 131.470212 
L 130.696864 58.631465 
L 131.358074 126.442532 
L 132.019285 135.263338 
L 132.680496 92.179156 
L 133.341707 164.427464 
L 134.002918 131.040802 
L 134.664129 115.95776 
L 135.32534 107.262198 
L 135.986551 129.036887 
L 136.647762 131.845947 
L 137.308972 129.591542 
L 137.970183 129.341052 
L 138.631394 180.423004 
L 139.292605 131.79227 
L 139.953816 130.933449 
L 140.615027 161.528944 
L 141.276238 156.161313 
L 141.937449 167.361769 
L 142.59866 161.600512 
L 143.25987 137.481959 
L 143.921081 174.715423 
L 144.582292 126.710913 
L 145.243503 134.458193 
L 145.904714 97.010024 
L 146.565925 155.606658 
L 147.227136 117.693294 
L 147.888347 72.855686 
L 148.549557 83.626731 
L 149.210768 86.775741 
L 149.871979 118.373194 
L 150.53319 228.2307 
L 151.194401 139.897393 
L 151.855612 109.767093 
L 152.516823 128.392771 
L 153.178034 123.043032 
L 153.839245 166.001969 
L 154.500455 147.000557 
L 155.161666 121.343283 
L 155.822877 196.418543 
L 156.484088 143.046402 
L 157.145299 171.244355 
L 157.80651 132.168004 
L 158.467721 131.810162 
L 159.128932 156.393911 
L 159.790143 118.194273 
L 160.451353 138.00083 
L 161.112564 108.192588 
L 161.773775 160.580663 
L 162.434986 115.61781 
L 163.096197 118.927849 
L 163.757408 99.228645 
L 164.418619 131.02291 
L 165.07983 142.277042 
L 165.741041 94.880864 
L 166.402251 165.894617 
L 167.063462 121.432743 
L 167.724673 104.453138 
L 168.385884 142.116013 
L 169.047095 102.055597 
L 169.708306 105.115146 
L 170.369517 53.568 
L 171.030728 160.526986 
L 171.691939 118.408978 
L 172.353149 152.565001 
L 173.01436 160.401742 
L 173.675571 142.402287 
L 174.336782 121.182254 
L 174.997993 158.039984 
L 175.659204 107.244306 
L 176.320415 106.743327 
L 176.981626 148.396141 
L 177.642837 104.614167 
L 178.304047 113.345513 
L 178.965258 133.849862 
L 179.626469 134.493978 
L 180.28768 102.538683 
L 180.948891 150.024322 
L 181.610102 96.401692 
L 182.271313 75.002738 
L 182.932524 161.367915 
L 183.593734 134.064567 
L 184.254945 93.950474 
L 185.577367 222.254738 
L 186.238578 80.406153 
L 186.899789 171.906363 
L 187.561 196.007025 
L 188.222211 162.083599 
L 188.883422 82.875263 
L 189.544632 120.681275 
L 190.205843 150.811575 
L 190.867054 99.53281 
L 191.528265 147.984623 
L 192.189476 131.559673 
L 192.850687 159.006158 
L 193.511898 121.14647 
L 194.173109 149.791725 
L 194.83432 99.962221 
L 195.49553 121.379067 
L 196.156741 183.303632 
L 196.817952 112.433016 
L 197.479163 134.476086 
L 198.140374 142.455963 
L 198.801585 65.269435 
L 199.462796 98.960263 
L 200.124007 160.938505 
L 200.785218 89.459557 
L 201.446428 161.117426 
L 202.107639 90.908817 
L 202.76885 107.745285 
L 203.430061 196.883738 
L 204.752483 109.784985 
L 205.413694 198.136185 
L 206.074905 93.717877 
L 206.736116 155.052003 
L 207.397326 125.959445 
L 208.058537 102.896525 
L 208.719748 136.658922 
L 209.380959 124.474401 
L 210.04217 91.35612 
L 211.364592 160.705907 
L 212.025803 107.262198 
L 213.348224 91.374012 
L 214.009435 105.634017 
L 214.670646 123.382982 
L 215.331857 157.968416 
L 215.993068 81.247082 
L 216.654279 169.365685 
L 217.31549 150.668438 
L 217.976701 96.920563 
L 218.637911 153.871124 
L 219.299122 163.497075 
L 219.960333 90.76568 
L 220.621544 109.57028 
L 221.282755 97.242621 
L 221.943966 121.057009 
L 222.605177 94.93454 
L 223.266388 78.813756 
L 223.927599 72.247355 
L 224.588809 110.894295 
L 225.25002 121.003333 
L 225.911231 183.518337 
L 226.572442 139.485874 
L 227.233653 134.207704 
L 227.894864 116.154573 
L 228.556075 249.182352 
L 229.217286 88.654412 
L 229.878497 131.505997 
L 230.539707 132.078544 
L 231.200918 92.000235 
L 231.862129 104.954117 
L 232.52334 132.38271 
L 233.184551 212.861385 
L 233.845762 101.375697 
L 234.506973 102.735497 
L 235.168184 125.816308 
L 235.829395 155.570874 
L 236.490605 68.132171 
L 237.151816 94.236748 
L 237.813027 101.822999 
L 238.474238 97.564679 
L 239.135449 120.717059 
L 239.79666 202.215584 
L 240.457871 104.202649 
L 241.119082 94.523022 
L 241.780293 123.776609 
L 242.441503 110.840619 
L 243.102714 107.924206 
L 243.763925 153.889016 
L 244.425136 139.53955 
L 245.086347 74.895386 
L 245.747558 134.959172 
L 246.408769 102.824957 
L 247.06998 185.182303 
L 247.731191 152.904951 
L 248.392401 77.901259 
L 249.053612 126.08469 
L 249.714823 100.409523 
L 250.376034 135.263338 
L 251.037245 105.365636 
L 251.698456 134.547654 
L 252.359667 182.60584 
L 253.020878 104.596275 
L 253.682089 164.338004 
L 254.343299 140.165774 
L 255.665721 129.287376 
L 256.326932 113.685463 
L 256.988143 111.01954 
L 258.971776 179.403154 
L 259.632986 122.864111 
L 260.294197 160.992181 
L 260.955408 109.856553 
L 261.616619 78.205425 
L 262.27783 101.608294 
L 262.939041 140.416263 
L 263.600252 104.578383 
L 264.261463 106.761219 
L 264.922674 125.941553 
L 265.583884 75.879451 
L 266.245095 104.882549 
L 266.906306 81.336542 
L 267.567517 177.363454 
L 268.228728 115.564134 
L 268.889939 99.711731 
L 269.55115 102.699712 
L 270.212361 135.317014 
L 270.873572 108.282048 
L 271.534782 121.629556 
L 272.195993 132.454278 
L 272.857204 116.494523 
L 273.518415 140.112098 
L 274.179626 158.129445 
L 274.840837 129.877815 
L 275.502048 204.291068 
L 276.163259 143.010618 
L 276.82447 105.294067 
L 277.48568 115.385213 
L 278.146891 209.408209 
L 278.808102 145.086102 
L 279.469313 134.637115 
L 280.130524 83.841437 
L 281.452946 153.513282 
L 282.114157 150.328488 
L 282.775368 134.422409 
L 283.436578 94.701943 
L 284.097789 110.321748 
L 284.759 104.703628 
L 285.420211 203.432247 
L 286.081422 126.585669 
L 286.742633 145.426052 
L 287.403844 105.687693 
L 288.065055 131.058694 
L 288.726266 91.642393 
L 289.387476 99.497026 
L 290.048687 133.670941 
L 290.709898 140.004745 
L 291.371109 109.65974 
L 292.03232 155.069895 
L 292.693531 97.153161 
L 293.354742 163.37183 
L 294.015953 119.19623 
L 294.677163 109.767093 
L 295.338374 91.195091 
L 295.999585 88.63652 
L 296.660796 123.579795 
L 297.322007 133.992999 
L 297.983218 108.21048 
L 298.644429 99.1034 
L 299.30564 141.972876 
L 299.966851 94.755619 
L 300.628061 78.062288 
L 301.289272 106.725435 
L 301.950483 155.946608 
L 302.611694 99.729623 
L 303.272905 134.547654 
L 303.934116 148.056191 
L 304.595327 177.810757 
L 305.256538 102.789173 
L 305.917749 134.207704 
L 306.578959 121.701125 
L 307.24017 115.492565 
L 307.901381 102.270302 
L 308.562592 131.183939 
L 309.223803 76.147833 
L 309.885014 123.472443 
L 310.546225 92.21494 
L 311.207436 134.010891 
L 311.868647 94.361993 
L 312.529857 105.669801 
L 313.191068 93.82523 
L 313.852279 249.325489 
L 314.51349 93.467388 
L 315.174701 139.253277 
L 315.835912 149.66648 
L 316.497123 157.717926 
L 317.158334 136.98098 
L 317.819545 89.531125 
L 318.480755 152.887059 
L 319.141966 102.824957 
L 319.803177 86.650497 
L 320.464388 134.386625 
L 321.125599 122.899896 
L 321.78681 101.626186 
L 322.448021 107.995775 
L 323.109232 137.464067 
L 323.770443 106.761219 
L 324.431653 129.770463 
L 325.092864 66.647127 
L 325.754075 131.398644 
L 326.415286 102.807065 
L 327.076497 83.483595 
L 327.737708 129.32316 
L 328.398919 212.288838 
L 329.06013 142.509639 
L 329.72134 88.314462 
L 330.382551 86.811526 
L 331.043762 96.705858 
L 331.704973 81.56914 
L 332.366184 104.864657 
L 333.027395 160.81326 
L 333.688606 125.637387 
L 334.349817 114.884234 
L 335.011028 100.373739 
L 335.672238 93.896798 
L 336.333449 133.796186 
L 336.99466 141.972876 
L 337.655871 115.438889 
L 338.317082 130.969234 
L 338.978293 126.209934 
L 339.639504 182.498488 
L 340.300715 110.08915 
L 340.961926 106.85068 
L 341.623136 211.877319 
L 342.284347 129.734679 
L 342.945558 126.227827 
L 343.606769 99.121292 
L 344.26798 112.647721 
L 344.929191 218.443721 
L 345.590402 174.071308 
L 346.251613 91.606609 
L 346.912824 96.831103 
L 347.574034 72.497844 
L 348.235245 94.075719 
L 348.896456 152.368188 
L 349.557667 122.953572 
L 350.218878 109.588172 
L 350.880089 169.365685 
L 351.5413 93.735769 
L 352.202511 101.590402 
L 352.863722 120.412893 
L 353.524932 158.6841 
L 354.186143 126.496208 
L 354.847354 155.678227 
L 355.508565 161.332131 
L 356.169776 217.083921 
L 356.830987 158.0042 
L 357.492198 128.195958 
L 358.153409 169.902448 
L 358.81462 127.015079 
L 359.47583 150.614762 
L 360.137041 112.361447 
L 360.798252 142.778021 
L 361.459463 222.362091 
L 362.120674 107.083277 
L 362.781885 149.702264 
L 363.443096 153.459606 
L 364.104307 86.024273 
L 364.765517 132.275357 
L 365.426728 137.124117 
L 366.087939 147.054233 
L 366.74915 213.093982 
L 367.410361 107.011709 
L 368.071572 126.281503 
L 368.732783 70.511821 
L 369.393994 121.325391 
L 370.055205 86.918878 
L 370.716415 124.38494 
L 371.377626 132.185897 
L 372.038837 156.197098 
L 372.700048 102.610252 
L 373.361259 119.142554 
L 374.02247 86.990447 
L 374.683681 112.12885 
L 375.344892 155.159356 
L 376.006103 96.992132 
L 376.667313 107.816854 
L 377.328524 86.793634 
L 377.989735 134.762359 
L 378.650946 78.402238 
L 379.312157 132.597415 
L 379.973368 126.209934 
L 380.634579 131.291291 
L 381.29579 158.970373 
L 381.957001 104.882549 
L 382.618211 110.733266 
L 383.279422 136.283188 
L 383.940633 134.565546 
L 384.601844 113.1487 
L 385.263055 112.826642 
L 385.924266 139.002787 
L 386.585477 194.289383 
L 387.246688 89.387988 
L 387.907899 109.695524 
L 388.569109 115.921976 
L 389.23032 96.580613 
L 389.891531 204.147931 
L 390.552742 129.251592 
L 391.213953 69.456187 
L 391.875164 220.089794 
L 392.536375 80.54929 
L 393.197586 86.543144 
L 393.858797 117.907999 
L 394.520007 117.478589 
L 395.181218 126.621453 
L 395.842429 179.510507 
L 396.50364 124.331264 
L 397.164851 105.294067 
L 397.826062 101.91246 
L 398.487273 128.464339 
L 398.487273 128.464339 
" style="fill:none;stroke:#ff0000;stroke-linecap:square;stroke-width:1.5;"/>
   </g>
   <g id="patch_3">
    <path d="M 57.6 307.584 
L 57.6 41.472 
" style="fill:none;stroke:#000000;stroke-linecap:square;stroke-linejoin:miter;stroke-width:0.8;"/>
   </g>
   <g id="patch_4">
    <path d="M 414.72 307.584 
L 414.72 41.472 
" style="fill:none;stroke:#000000;stroke-linecap:square;stroke-linejoin:miter;stroke-width:0.8;"/>
   </g>
   <g id="patch_5">
    <path d="M 57.6 307.584 
L 414.72 307.584 
" style="fill:none;stroke:#000000;stroke-linecap:square;stroke-linejoin:miter;stroke-width:0.8;"/>
   </g>
   <g id="patch_6">
    <path d="M 57.6 41.472 
L 414.72 41.472 
" style="fill:none;stroke:#000000;stroke-linecap:square;stroke-linejoin:miter;stroke-width:0.8;"/>
   </g>
   <g id="text_17">
    <!-- Population's average and best fitness -->
    <defs>
     <path d="M 19.671875 64.796875 
L 19.671875 37.40625 
L 32.078125 37.40625 
Q 38.96875 37.40625 42.71875 40.96875 
Q 46.484375 44.53125 46.484375 51.125 
Q 46.484375 57.671875 42.71875 61.234375 
Q 38.96875 64.796875 32.078125 64.796875 
z
M 9.8125 72.90625 
L 32.078125 72.90625 
Q 44.34375 72.90625 50.609375 67.359375 
Q 56.890625 61.8125 56.890625 51.125 
Q 56.890625 40.328125 50.609375 34.8125 
Q 44.34375 29.296875 32.078125 29.296875 
L 19.671875 29.296875 
L 19.671875 0 
L 9.8125 0 
z
" id="DejaVuSans-50"/>
     <path d="M 18.109375 8.203125 
L 18.109375 -20.796875 
L 9.078125 -20.796875 
L 9.078125 54.6875 
L 18.109375 54.6875 
L 18.109375 46.390625 
Q 20.953125 51.265625 25.265625 53.625 
Q 29.59375 56 35.59375 56 
Q 45.5625 56 51.78125 48.09375 
Q 58.015625 40.1875 58.015625 27.296875 
Q 58.015625 14.40625 51.78125 6.484375 
Q 45.5625 -1.421875 35.59375 -1.421875 
Q 29.59375 -1.421875 25.265625 0.953125 
Q 20.953125 3.328125 18.109375 8.203125 
z
M 48.6875 27.296875 
Q 48.6875 37.203125 44.609375 42.84375 
Q 40.53125 48.484375 33.40625 48.484375 
Q 26.265625 48.484375 22.1875 42.84375 
Q 18.109375 37.203125 18.109375 27.296875 
Q 18.109375 17.390625 22.1875 11.75 
Q 26.265625 6.109375 33.40625 6.109375 
Q 40.53125 6.109375 44.609375 11.75 
Q 48.6875 17.390625 48.6875 27.296875 
z
" id="DejaVuSans-70"/>
     <path d="M 8.5 21.578125 
L 8.5 54.6875 
L 17.484375 54.6875 
L 17.484375 21.921875 
Q 17.484375 14.15625 20.5 10.265625 
Q 23.53125 6.390625 29.59375 6.390625 
Q 36.859375 6.390625 41.078125 11.03125 
Q 45.3125 15.671875 45.3125 23.6875 
L 45.3125 54.6875 
L 54.296875 54.6875 
L 54.296875 0 
L 45.3125 0 
L 45.3125 8.40625 
Q 42.046875 3.421875 37.71875 1 
Q 33.40625 -1.421875 27.6875 -1.421875 
Q 18.265625 -1.421875 13.375 4.4375 
Q 8.5 10.296875 8.5 21.578125 
z
M 31.109375 56 
z
" id="DejaVuSans-75"/>
     <path d="M 9.421875 75.984375 
L 18.40625 75.984375 
L 18.40625 0 
L 9.421875 0 
z
" id="DejaVuSans-6c"/>
     <path d="M 17.921875 72.90625 
L 17.921875 45.796875 
L 9.625 45.796875 
L 9.625 72.90625 
z
" id="DejaVuSans-27"/>
     <path id="DejaVuSans-20"/>
     <path d="M 2.984375 54.6875 
L 12.5 54.6875 
L 29.59375 8.796875 
L 46.6875 54.6875 
L 56.203125 54.6875 
L 35.6875 0 
L 23.484375 0 
z
" id="DejaVuSans-76"/>
     <path d="M 45.40625 27.984375 
Q 45.40625 37.75 41.375 43.109375 
Q 37.359375 48.484375 30.078125 48.484375 
Q 22.859375 48.484375 18.828125 43.109375 
Q 14.796875 37.75 14.796875 27.984375 
Q 14.796875 18.265625 18.828125 12.890625 
Q 22.859375 7.515625 30.078125 7.515625 
Q 37.359375 7.515625 41.375 12.890625 
Q 45.40625 18.265625 45.40625 27.984375 
z
M 54.390625 6.78125 
Q 54.390625 -7.171875 48.1875 -13.984375 
Q 42 -20.796875 29.203125 -20.796875 
Q 24.46875 -20.796875 20.265625 -20.09375 
Q 16.0625 -19.390625 12.109375 -17.921875 
L 12.109375 -9.1875 
Q 16.0625 -11.328125 19.921875 -12.34375 
Q 23.78125 -13.375 27.78125 -13.375 
Q 36.625 -13.375 41.015625 -8.765625 
Q 45.40625 -4.15625 45.40625 5.171875 
L 45.40625 9.625 
Q 42.625 4.78125 38.28125 2.390625 
Q 33.9375 0 27.875 0 
Q 17.828125 0 11.671875 7.65625 
Q 5.515625 15.328125 5.515625 27.984375 
Q 5.515625 40.671875 11.671875 48.328125 
Q 17.828125 56 27.875 56 
Q 33.9375 56 38.28125 53.609375 
Q 42.625 51.21875 45.40625 46.390625 
L 45.40625 54.6875 
L 54.390625 54.6875 
z
" id="DejaVuSans-67"/>
     <path d="M 45.40625 46.390625 
L 45.40625 75.984375 
L 54.390625 75.984375 
L 54.390625 0 
L 45.40625 0 
L 45.40625 8.203125 
Q 42.578125 3.328125 38.25 0.953125 
Q 33.9375 -1.421875 27.875 -1.421875 
Q 17.96875 -1.421875 11.734375 6.484375 
Q 5.515625 14.40625 5.515625 27.296875 
Q 5.515625 40.1875 11.734375 48.09375 
Q 17.96875 56 27.875 56 
Q 33.9375 56 38.25 53.625 
Q 42.578125 51.265625 45.40625 46.390625 
z
M 14.796875 27.296875 
Q 14.796875 17.390625 18.875 11.75 
Q 22.953125 6.109375 30.078125 6.109375 
Q 37.203125 6.109375 41.296875 11.75 
Q 45.40625 17.390625 45.40625 27.296875 
Q 45.40625 37.203125 41.296875 42.84375 
Q 37.203125 48.484375 30.078125 48.484375 
Q 22.953125 48.484375 18.875 42.84375 
Q 14.796875 37.203125 14.796875 27.296875 
z
" id="DejaVuSans-64"/>
     <path d="M 48.6875 27.296875 
Q 48.6875 37.203125 44.609375 42.84375 
Q 40.53125 48.484375 33.40625 48.484375 
Q 26.265625 48.484375 22.1875 42.84375 
Q 18.109375 37.203125 18.109375 27.296875 
Q 18.109375 17.390625 22.1875 11.75 
Q 26.265625 6.109375 33.40625 6.109375 
Q 40.53125 6.109375 44.609375 11.75 
Q 48.6875 17.390625 48.6875 27.296875 
z
M 18.109375 46.390625 
Q 20.953125 51.265625 25.265625 53.625 
Q 29.59375 56 35.59375 56 
Q 45.5625 56 51.78125 48.09375 
Q 58.015625 40.1875 58.015625 27.296875 
Q 58.015625 14.40625 51.78125 6.484375 
Q 45.5625 -1.421875 35.59375 -1.421875 
Q 29.59375 -1.421875 25.265625 0.953125 
Q 20.953125 3.328125 18.109375 8.203125 
L 18.109375 0 
L 9.078125 0 
L 9.078125 75.984375 
L 18.109375 75.984375 
z
" id="DejaVuSans-62"/>
     <path d="M 37.109375 75.984375 
L 37.109375 68.5 
L 28.515625 68.5 
Q 23.6875 68.5 21.796875 66.546875 
Q 19.921875 64.59375 19.921875 59.515625 
L 19.921875 54.6875 
L 34.71875 54.6875 
L 34.71875 47.703125 
L 19.921875 47.703125 
L 19.921875 0 
L 10.890625 0 
L 10.890625 47.703125 
L 2.296875 47.703125 
L 2.296875 54.6875 
L 10.890625 54.6875 
L 10.890625 58.5 
Q 10.890625 67.625 15.140625 71.796875 
Q 19.390625 75.984375 28.609375 75.984375 
z
" id="DejaVuSans-66"/>
    </defs>
    <g transform="translate(123.315 35.472)scale(0.12 -0.12)">
     <use xlink:href="#DejaVuSans-50"/>
     <use x="60.255859" xlink:href="#DejaVuSans-6f"/>
     <use x="121.4375" xlink:href="#DejaVuSans-70"/>
     <use x="184.914062" xlink:href="#DejaVuSans-75"/>
     <use x="248.292969" xlink:href="#DejaVuSans-6c"/>
     <use x="276.076172" xlink:href="#DejaVuSans-61"/>
     <use x="337.355469" xlink:href="#DejaVuSans-74"/>
     <use x="376.564453" xlink:href="#DejaVuSans-69"/>
     <use x="404.347656" xlink:href="#DejaVuSans-6f"/>
     <use x="465.529297" xlink:href="#DejaVuSans-6e"/>
     <use x="528.908203" xlink:href="#DejaVuSans-27"/>
     <use x="556.398438" xlink:href="#DejaVuSans-73"/>
     <use x="608.498047" xlink:href="#DejaVuSans-20"/>
     <use x="640.285156" xlink:href="#DejaVuSans-61"/>
     <use x="701.564453" xlink:href="#DejaVuSans-76"/>
     <use x="760.744141" xlink:href="#DejaVuSans-65"/>
     <use x="822.267578" xlink:href="#DejaVuSans-72"/>
     <use x="863.380859" xlink:href="#DejaVuSans-61"/>
     <use x="924.660156" xlink:href="#DejaVuSans-67"/>
     <use x="988.136719" xlink:href="#DejaVuSans-65"/>
     <use x="1049.660156" xlink:href="#DejaVuSans-20"/>
     <use x="1081.447266" xlink:href="#DejaVuSans-61"/>
     <use x="1142.726562" xlink:href="#DejaVuSans-6e"/>
     <use x="1206.105469" xlink:href="#DejaVuSans-64"/>
     <use x="1269.582031" xlink:href="#DejaVuSans-20"/>
     <use x="1301.369141" xlink:href="#DejaVuSans-62"/>
     <use x="1364.845703" xlink:href="#DejaVuSans-65"/>
     <use x="1426.369141" xlink:href="#DejaVuSans-73"/>
     <use x="1478.46875" xlink:href="#DejaVuSans-74"/>
     <use x="1517.677734" xlink:href="#DejaVuSans-20"/>
     <use x="1549.464844" xlink:href="#DejaVuSans-66"/>
     <use x="1584.669922" xlink:href="#DejaVuSans-69"/>
     <use x="1612.453125" xlink:href="#DejaVuSans-74"/>
     <use x="1651.662109" xlink:href="#DejaVuSans-6e"/>
     <use x="1715.041016" xlink:href="#DejaVuSans-65"/>
     <use x="1776.564453" xlink:href="#DejaVuSans-73"/>
     <use x="1828.664062" xlink:href="#DejaVuSans-73"/>
    </g>
   </g>
   <g id="legend_1">
    <g id="patch_7">
     <path d="M 64.6 108.1845 
L 137.540625 108.1845 
Q 139.540625 108.1845 139.540625 106.1845 
L 139.540625 48.472 
Q 139.540625 46.472 137.540625 46.472 
L 64.6 46.472 
Q 62.6 46.472 62.6 48.472 
L 62.6 106.1845 
Q 62.6 108.1845 64.6 108.1845 
z
" style="fill:#ffffff;opacity:0.8;stroke:#cccccc;stroke-linejoin:miter;"/>
    </g>
    <g id="line2d_33">
     <path d="M 66.6 54.570438 
L 86.6 54.570438 
" style="fill:none;stroke:#0000ff;stroke-linecap:square;stroke-width:1.5;"/>
    </g>
    <g id="line2d_34"/>
    <g id="text_18">
     <!-- average -->
     <g transform="translate(94.6 58.070438)scale(0.1 -0.1)">
      <use xlink:href="#DejaVuSans-61"/>
      <use x="61.279297" xlink:href="#DejaVuSans-76"/>
      <use x="120.458984" xlink:href="#DejaVuSans-65"/>
      <use x="181.982422" xlink:href="#DejaVuSans-72"/>
      <use x="223.095703" xlink:href="#DejaVuSans-61"/>
      <use x="284.375" xlink:href="#DejaVuSans-67"/>
      <use x="347.851562" xlink:href="#DejaVuSans-65"/>
     </g>
    </g>
    <g id="line2d_35">
     <path d="M 66.6 69.248563 
L 86.6 69.248563 
" style="fill:none;stroke:#008000;stroke-dasharray:9.6,2.4,1.5,2.4;stroke-dashoffset:0;stroke-width:1.5;"/>
    </g>
    <g id="line2d_36"/>
    <g id="text_19">
     <!-- -1 sd -->
     <defs>
      <path d="M 4.890625 31.390625 
L 31.203125 31.390625 
L 31.203125 23.390625 
L 4.890625 23.390625 
z
" id="DejaVuSans-2d"/>
     </defs>
     <g transform="translate(94.6 72.748563)scale(0.1 -0.1)">
      <use xlink:href="#DejaVuSans-2d"/>
      <use x="36.083984" xlink:href="#DejaVuSans-31"/>
      <use x="99.707031" xlink:href="#DejaVuSans-20"/>
      <use x="131.494141" xlink:href="#DejaVuSans-73"/>
      <use x="183.59375" xlink:href="#DejaVuSans-64"/>
     </g>
    </g>
    <g id="line2d_37">
     <path d="M 66.6 83.926688 
L 86.6 83.926688 
" style="fill:none;stroke:#008000;stroke-dasharray:9.6,2.4,1.5,2.4;stroke-dashoffset:0;stroke-width:1.5;"/>
    </g>
    <g id="line2d_38"/>
    <g id="text_20">
     <!-- +1 sd -->
     <defs>
      <path d="M 46 62.703125 
L 46 35.5 
L 73.1875 35.5 
L 73.1875 27.203125 
L 46 27.203125 
L 46 0 
L 37.796875 0 
L 37.796875 27.203125 
L 10.59375 27.203125 
L 10.59375 35.5 
L 37.796875 35.5 
L 37.796875 62.703125 
z
" id="DejaVuSans-2b"/>
     </defs>
     <g transform="translate(94.6 87.426688)scale(0.1 -0.1)">
      <use xlink:href="#DejaVuSans-2b"/>
      <use x="83.789062" xlink:href="#DejaVuSans-31"/>
      <use x="147.412109" xlink:href="#DejaVuSans-20"/>
      <use x="179.199219" xlink:href="#DejaVuSans-73"/>
      <use x="231.298828" xlink:href="#DejaVuSans-64"/>
     </g>
    </g>
    <g id="line2d_39">
     <path d="M 66.6 98.604813 
L 86.6 98.604813 
" style="fill:none;stroke:#ff0000;stroke-linecap:square;stroke-width:1.5;"/>
    </g>
    <g id="line2d_40"/>
    <g id="text_21">
     <!-- best -->
     <g transform="translate(94.6 102.104813)scale(0.1 -0.1)">
      <use xlink:href="#DejaVuSans-62"/>
      <use x="63.476562" xlink:href="#DejaVuSans-65"/>
      <use x="125" xlink:href="#DejaVuSans-73"/>
      <use x="177.099609" xlink:href="#DejaVuSans-74"/>
     </g>
    </g>
   </g>
  </g>
 </g>
 <defs>
  <clipPath id="pc6550f4abc">
   <rect height="266.112" width="357.12" x="57.6" y="41.472"/>
  </clipPath>
 </defs>
</svg>
