<?xml version="1.0" encoding="UTF-8" standalone="no"?>
<!DOCTYPE svg PUBLIC "-//W3C//DTD SVG 1.1//EN"
 "http://www.w3.org/Graphics/SVG/1.1/DTD/svg11.dtd">
<!-- Generated by graphviz version 2.40.1 (20161225.0304)
 -->
<!-- Title: %3 Pages: 1 -->
<svg width="366pt" height="228pt"
 viewBox="0.00 0.00 365.75 228.49" xmlns="http://www.w3.org/2000/svg" xmlns:xlink="http://www.w3.org/1999/xlink">
<g id="graph0" class="graph" transform="scale(1 1) rotate(0) translate(4 224.4924)">
<title>%3</title>
<polygon fill="#ffffff" stroke="transparent" points="-4,4 -4,-224.4924 361.7487,-224.4924 361.7487,4 -4,4"/>
<!-- &#45;1 -->
<g id="node1" class="node">
<title>&#45;1</title>
<polygon fill="#d3d3d3" stroke="#000000" points="24,-204.7437 0,-204.7437 0,-186.7437 24,-186.7437 24,-204.7437"/>
<text text-anchor="middle" x="12" y="-193.5437" font-family="Times,serif" font-size="9.00" fill="#000000">&#45;1</text>
</g>
<!-- 0 -->
<g id="node8" class="node">
<title>0</title>
<ellipse fill="#add8e6" stroke="#000000" cx="38" cy="-110.2462" rx="14.7" ry="14.7"/>
<text text-anchor="middle" x="38" y="-108.0462" font-family="Times,serif" font-size="9.00" fill="#000000">0</text>
</g>
<!-- &#45;1&#45;&gt;0 -->
<g id="edge10" class="edge">
<title>&#45;1&#45;&gt;0</title>
<path fill="none" stroke="#ff0000" stroke-width=".2245" d="M14.7825,-186.594C18.5144,-174.3221 25.2811,-152.0707 30.5501,-134.7441"/>
<polygon fill="#ff0000" stroke="#ff0000" stroke-width=".2245" points="34.0359,-135.3112 33.5968,-124.7255 27.3387,-133.2746 34.0359,-135.3112"/>
</g>
<!-- &#45;2 -->
<g id="node2" class="node">
<title>&#45;2</title>
<polygon fill="#d3d3d3" stroke="#000000" points="66,-204.7437 42,-204.7437 42,-186.7437 66,-186.7437 66,-204.7437"/>
<text text-anchor="middle" x="54" y="-193.5437" font-family="Times,serif" font-size="9.00" fill="#000000">&#45;2</text>
</g>
<!-- &#45;2&#45;&gt;0 -->
<g id="edge2" class="edge">
<title>&#45;2&#45;&gt;0</title>
<path fill="none" stroke="#ff0000" stroke-width=".6108" d="M52.2877,-186.594C50.0045,-174.3934 45.8754,-152.3291 42.6412,-135.0468"/>
<polygon fill="#ff0000" stroke="#ff0000" stroke-width=".6108" points="46.0474,-134.2206 40.7676,-125.035 39.1669,-135.5082 46.0474,-134.2206"/>
</g>
<!-- 4203 -->
<g id="node11" class="node">
<title>4203</title>
<ellipse fill="#ffffff" stroke="#000000" cx="96" cy="-110.2462" rx="25" ry="25"/>
<text text-anchor="middle" x="96" y="-108.0462" font-family="Times,serif" font-size="9.00" fill="#000000">4203</text>
</g>
<!-- &#45;2&#45;&gt;4203 -->
<g id="edge6" class="edge">
<title>&#45;2&#45;&gt;4203</title>
<path fill="none" stroke="#00ff00" stroke-width=".1332" d="M58.4947,-186.594C63.731,-175.9348 72.6657,-157.7468 80.5012,-141.7965"/>
<polygon fill="#00ff00" stroke="#00ff00" stroke-width=".1332" points="83.6835,-143.2563 84.9513,-132.7376 77.4006,-140.1699 83.6835,-143.2563"/>
</g>
<!-- &#45;3 -->
<g id="node3" class="node">
<title>&#45;3</title>
<polygon fill="#d3d3d3" stroke="#000000" points="150,-204.7437 126,-204.7437 126,-186.7437 150,-186.7437 150,-204.7437"/>
<text text-anchor="middle" x="138" y="-193.5437" font-family="Times,serif" font-size="9.00" fill="#000000">&#45;3</text>
</g>
<!-- &#45;3&#45;&gt;0 -->
<g id="edge5" class="edge">
<title>&#45;3&#45;&gt;0</title>
<path fill="none" stroke="#00ff00" stroke-width=".3145" d="M131.1856,-186.4784C127.3283,-181.571 122.2377,-175.62 117,-170.9949 95.1007,-151.6572 84.5292,-153.5951 62,-134.9949 59.75,-133.1373 57.4866,-131.0897 55.2965,-128.9918"/>
<polygon fill="#00ff00" stroke="#00ff00" stroke-width=".3145" points="57.7769,-126.5225 48.2588,-121.8688 52.7974,-131.4423 57.7769,-126.5225"/>
</g>
<!-- 1 -->
<g id="node9" class="node">
<title>1</title>
<ellipse fill="#add8e6" stroke="#000000" cx="167" cy="-110.2462" rx="14.7" ry="14.7"/>
<text text-anchor="middle" x="167" y="-108.0462" font-family="Times,serif" font-size="9.00" fill="#000000">1</text>
</g>
<!-- &#45;3&#45;&gt;1 -->
<g id="edge7" class="edge">
<title>&#45;3&#45;&gt;1</title>
<path fill="none" stroke="#00ff00" stroke-width=".1655" d="M141.1035,-186.594C145.3297,-174.1343 153.0453,-151.3874 158.9591,-133.9522"/>
<polygon fill="#00ff00" stroke="#00ff00" stroke-width=".1655" points="162.2952,-135.0127 162.1929,-124.4183 155.6662,-132.7641 162.2952,-135.0127"/>
</g>
<!-- &#45;4 -->
<g id="node4" class="node">
<title>&#45;4</title>
<polygon fill="#d3d3d3" stroke="#000000" points="108,-204.7437 84,-204.7437 84,-186.7437 108,-186.7437 108,-204.7437"/>
<text text-anchor="middle" x="96" y="-193.5437" font-family="Times,serif" font-size="9.00" fill="#000000">&#45;4</text>
</g>
<!-- &#45;4&#45;&gt;4203 -->
<g id="edge3" class="edge">
<title>&#45;4&#45;&gt;4203</title>
<path fill="none" stroke="#00ff00" stroke-width=".2613" d="M96,-186.594C96,-176.7237 96,-160.3977 96,-145.3707"/>
<polygon fill="#00ff00" stroke="#00ff00" stroke-width=".2613" points="99.5001,-145.2702 96,-135.2702 92.5001,-145.2702 99.5001,-145.2702"/>
</g>
<!-- &#45;5 -->
<g id="node5" class="node">
<title>&#45;5</title>
<polygon fill="#d3d3d3" stroke="#000000" points="192,-204.7437 168,-204.7437 168,-186.7437 192,-186.7437 192,-204.7437"/>
<text text-anchor="middle" x="180" y="-193.5437" font-family="Times,serif" font-size="9.00" fill="#000000">&#45;5</text>
</g>
<!-- &#45;5&#45;&gt;1 -->
<g id="edge1" class="edge">
<title>&#45;5&#45;&gt;1</title>
<path fill="none" stroke="#00ff00" stroke-width="1.2011" stroke-dasharray="1,5" d="M178.6088,-186.594C176.7537,-174.3934 173.3988,-152.3291 170.771,-135.0468"/>
<polygon fill="#00ff00" stroke="#00ff00" stroke-width="1.2011" points="174.2122,-134.3952 169.2487,-125.035 167.2917,-135.4476 174.2122,-134.3952"/>
</g>
<!-- &#45;6 -->
<g id="node6" class="node">
<title>&#45;6</title>
<polygon fill="#d3d3d3" stroke="#000000" points="248,-204.7437 224,-204.7437 224,-186.7437 248,-186.7437 248,-204.7437"/>
<text text-anchor="middle" x="236" y="-193.5437" font-family="Times,serif" font-size="9.00" fill="#000000">&#45;6</text>
</g>
<!-- 4328 -->
<g id="node10" class="node">
<title>4328</title>
<ellipse fill="#ffffff" stroke="#000000" cx="249" cy="-24.7487" rx="25" ry="25"/>
<text text-anchor="middle" x="249" y="-22.5487" font-family="Times,serif" font-size="9.00" fill="#000000">4328</text>
</g>
<!-- &#45;6&#45;&gt;4328 -->
<g id="edge8" class="edge">
<title>&#45;6&#45;&gt;4328</title>
<path fill="none" stroke="#00ff00" stroke-width=".2541" d="M236.3114,-186.5836C236.9957,-167.6697 238.8274,-122.9331 242,-85.4975 242.7138,-77.0743 243.6608,-68.014 244.6269,-59.5277"/>
<polygon fill="#00ff00" stroke="#00ff00" stroke-width=".2541" points="248.1092,-59.8825 245.8003,-49.5423 241.157,-59.0655 248.1092,-59.8825"/>
</g>
<!-- 4250 -->
<g id="node13" class="node">
<title>4250</title>
<ellipse fill="#ffffff" stroke="#000000" cx="276" cy="-110.2462" rx="25" ry="25"/>
<text text-anchor="middle" x="276" y="-108.0462" font-family="Times,serif" font-size="9.00" fill="#000000">4250</text>
</g>
<!-- &#45;6&#45;&gt;4250 -->
<g id="edge4" class="edge">
<title>&#45;6&#45;&gt;4250</title>
<path fill="none" stroke="#00ff00" stroke-width=".2722" d="M240.2807,-186.594C245.2676,-175.9348 253.7768,-157.7468 261.2392,-141.7965"/>
<polygon fill="#00ff00" stroke="#00ff00" stroke-width=".2722" points="264.4099,-143.2785 265.4774,-132.7376 258.0695,-140.3121 264.4099,-143.2785"/>
</g>
<!-- &#45;7 -->
<g id="node7" class="node">
<title>&#45;7</title>
<polygon fill="#d3d3d3" stroke="#000000" points="290,-204.7437 266,-204.7437 266,-186.7437 290,-186.7437 290,-204.7437"/>
<text text-anchor="middle" x="278" y="-193.5437" font-family="Times,serif" font-size="9.00" fill="#000000">&#45;7</text>
</g>
<!-- 4078 -->
<g id="node12" class="node">
<title>4078</title>
<ellipse fill="#ffffff" stroke="#000000" cx="333" cy="-195.7437" rx="25" ry="25"/>
<text text-anchor="middle" x="333" y="-193.5437" font-family="Times,serif" font-size="9.00" fill="#000000">4078</text>
</g>
<!-- 4250&#45;&gt;4328 -->
<g id="edge9" class="edge">
<title>4250&#45;&gt;4328</title>
<path fill="none" stroke="#ff0000" stroke-width=".2589" d="M268.479,-86.4304C265.6996,-77.6292 262.4965,-67.4863 259.5008,-58.0004"/>
<polygon fill="#ff0000" stroke="#ff0000" stroke-width=".2589" points="262.8297,-56.9186 256.4807,-48.4368 256.1546,-59.0266 262.8297,-56.9186"/>
</g>
</g>
</svg>
