<?xml version="1.0" encoding="UTF-8" standalone="no"?>
<!DOCTYPE svg PUBLIC "-//W3C//DTD SVG 1.1//EN"
 "http://www.w3.org/Graphics/SVG/1.1/DTD/svg11.dtd">
<!-- Generated by graphviz version 2.40.1 (20161225.0304)
 -->
<!-- Title: %3 Pages: 1 -->
<svg width="402pt" height="282pt"
 viewBox="0.00 0.00 401.60 282.49" xmlns="http://www.w3.org/2000/svg" xmlns:xlink="http://www.w3.org/1999/xlink">
<g id="graph0" class="graph" transform="scale(1 1) rotate(0) translate(4 278.4924)">
<title>%3</title>
<polygon fill="#ffffff" stroke="transparent" points="-4,4 -4,-278.4924 397.598,-278.4924 397.598,4 -4,4"/>
<!-- &#45;1 -->
<g id="node1" class="node">
<title>&#45;1</title>
<polygon fill="#d3d3d3" stroke="#000000" points="219.8492,-204.7437 195.8492,-204.7437 195.8492,-186.7437 219.8492,-186.7437 219.8492,-204.7437"/>
<text text-anchor="middle" x="207.8492" y="-193.5437" font-family="Times,serif" font-size="9.00" fill="#000000">&#45;1</text>
</g>
<!-- 0 -->
<g id="node8" class="node">
<title>0</title>
<ellipse fill="#add8e6" stroke="#000000" cx="207.8492" cy="-110.2462" rx="14.7" ry="14.7"/>
<text text-anchor="middle" x="207.8492" y="-108.0462" font-family="Times,serif" font-size="9.00" fill="#000000">0</text>
</g>
<!-- &#45;1&#45;&gt;0 -->
<g id="edge2" class="edge">
<title>&#45;1&#45;&gt;0</title>
<path fill="none" stroke="#ff0000" stroke-width="1.2042" d="M207.8492,-186.594C207.8492,-174.4648 207.8492,-152.5869 207.8492,-135.3505"/>
<polygon fill="#ff0000" stroke="#ff0000" stroke-width="1.2042" points="211.3493,-135.3469 207.8492,-125.3469 204.3493,-135.3469 211.3493,-135.3469"/>
</g>
<!-- &#45;2 -->
<g id="node2" class="node">
<title>&#45;2</title>
<polygon fill="#d3d3d3" stroke="#000000" points="139.8492,-204.7437 115.8492,-204.7437 115.8492,-186.7437 139.8492,-186.7437 139.8492,-204.7437"/>
<text text-anchor="middle" x="127.8492" y="-193.5437" font-family="Times,serif" font-size="9.00" fill="#000000">&#45;2</text>
</g>
<!-- &#45;2&#45;&gt;0 -->
<g id="edge3" class="edge">
<title>&#45;2&#45;&gt;0</title>
<path fill="none" stroke="#ff0000" stroke-width=".6783" d="M136.4106,-186.594C149.274,-172.8466 173.8554,-146.576 190.5501,-128.7341"/>
<polygon fill="#ff0000" stroke="#ff0000" stroke-width=".6783" points="193.3184,-130.8982 197.5952,-121.2049 188.2071,-126.1155 193.3184,-130.8982"/>
</g>
<!-- 1803 -->
<g id="node11" class="node">
<title>1803</title>
<ellipse fill="#ffffff" stroke="#000000" cx="127.8492" cy="-110.2462" rx="25" ry="25"/>
<text text-anchor="middle" x="127.8492" y="-108.0462" font-family="Times,serif" font-size="9.00" fill="#000000">1803</text>
</g>
<!-- &#45;2&#45;&gt;1803 -->
<g id="edge7" class="edge">
<title>&#45;2&#45;&gt;1803</title>
<path fill="none" stroke="#ff0000" stroke-width=".2603" d="M127.8492,-186.594C127.8492,-176.7237 127.8492,-160.3977 127.8492,-145.3707"/>
<polygon fill="#ff0000" stroke="#ff0000" stroke-width=".2603" points="131.3493,-145.2702 127.8492,-135.2702 124.3493,-145.2702 131.3493,-145.2702"/>
</g>
<!-- 1535 -->
<g id="node15" class="node">
<title>1535</title>
<ellipse fill="#ffffff" stroke="#000000" cx="37.8492" cy="-110.2462" rx="25" ry="25"/>
<text text-anchor="middle" x="37.8492" y="-108.0462" font-family="Times,serif" font-size="9.00" fill="#000000">1535</text>
</g>
<!-- &#45;2&#45;&gt;1535 -->
<g id="edge8" class="edge">
<title>&#45;2&#45;&gt;1535</title>
<path fill="none" stroke="#ff0000" stroke-width=".1643" stroke-dasharray="1,5" d="M120.3774,-186.2959C116.4972,-181.5594 111.5869,-175.8198 106.8492,-170.9949 93.6997,-157.6032 78.0714,-143.6963 65.0163,-132.5732"/>
<polygon fill="#ff0000" stroke="#ff0000" stroke-width=".1643" points="67.1662,-129.8079 57.2652,-126.0367 62.6535,-135.1591 67.1662,-129.8079"/>
</g>
<!-- &#45;3 -->
<g id="node3" class="node">
<title>&#45;3</title>
<polygon fill="#d3d3d3" stroke="#000000" points="279.8492,-274.4924 255.8492,-274.4924 255.8492,-256.4924 279.8492,-256.4924 279.8492,-274.4924"/>
<text text-anchor="middle" x="267.8492" y="-263.2924" font-family="Times,serif" font-size="9.00" fill="#000000">&#45;3</text>
</g>
<!-- &#45;3&#45;&gt;0 -->
<g id="edge10" class="edge">
<title>&#45;3&#45;&gt;0</title>
<path fill="none" stroke="#00ff00" stroke-width="4.8786" d="M276.0674,-256.293C283.1345,-247.7187 292.8081,-234.2233 296.8492,-220.4924 303.0604,-199.3886 307.1234,-190.4472 296.8492,-170.9949 283.1972,-145.1473 253.0539,-128.2209 231.6368,-118.9548"/>
<polygon fill="#00ff00" stroke="#00ff00" stroke-width="4.8786" points="233.0895,-114.9374 222.2181,-115.1238 229.8728,-122.8457 233.0895,-114.9374"/>
</g>
<!-- 2104 -->
<g id="node13" class="node">
<title>2104</title>
<ellipse fill="#ffffff" stroke="#000000" cx="262.8492" cy="-195.7437" rx="25" ry="25"/>
<text text-anchor="middle" x="262.8492" y="-193.5437" font-family="Times,serif" font-size="9.00" fill="#000000">2104</text>
</g>
<!-- &#45;3&#45;&gt;2104 -->
<g id="edge12" class="edge">
<title>&#45;3&#45;&gt;2104</title>
<path fill="none" stroke="#00ff00" stroke-width=".1804" d="M267.1956,-256.374C266.7174,-249.703 266.0355,-240.1913 265.3533,-230.674"/>
<polygon fill="#00ff00" stroke="#00ff00" stroke-width=".1804" points="268.8285,-230.2028 264.6224,-220.4787 261.8465,-230.7034 268.8285,-230.2028"/>
</g>
<!-- &#45;4 -->
<g id="node4" class="node">
<title>&#45;4</title>
<polygon fill="#d3d3d3" stroke="#000000" points="327.8492,-274.4924 303.8492,-274.4924 303.8492,-256.4924 327.8492,-256.4924 327.8492,-274.4924"/>
<text text-anchor="middle" x="315.8492" y="-263.2924" font-family="Times,serif" font-size="9.00" fill="#000000">&#45;4</text>
</g>
<!-- &#45;5 -->
<g id="node5" class="node">
<title>&#45;5</title>
<polygon fill="#d3d3d3" stroke="#000000" points="380.8492,-274.4924 356.8492,-274.4924 356.8492,-256.4924 380.8492,-256.4924 380.8492,-274.4924"/>
<text text-anchor="middle" x="368.8492" y="-263.2924" font-family="Times,serif" font-size="9.00" fill="#000000">&#45;5</text>
</g>
<!-- 1932 -->
<g id="node12" class="node">
<title>1932</title>
<ellipse fill="#ffffff" stroke="#000000" cx="368.8492" cy="-195.7437" rx="25" ry="25"/>
<text text-anchor="middle" x="368.8492" y="-193.5437" font-family="Times,serif" font-size="9.00" fill="#000000">1932</text>
</g>
<!-- &#45;5&#45;&gt;1932 -->
<g id="edge6" class="edge">
<title>&#45;5&#45;&gt;1932</title>
<path fill="none" stroke="#ff0000" stroke-width="1.1487" stroke-dasharray="1,5" d="M368.8492,-256.374C368.8492,-249.7573 368.8492,-240.3458 368.8492,-230.9061"/>
<polygon fill="#ff0000" stroke="#ff0000" stroke-width="1.1487" points="372.3493,-230.7829 368.8492,-220.783 365.3493,-230.783 372.3493,-230.7829"/>
</g>
<!-- &#45;6 -->
<g id="node6" class="node">
<title>&#45;6</title>
<polygon fill="#d3d3d3" stroke="#000000" points="205.8492,-274.4924 181.8492,-274.4924 181.8492,-256.4924 205.8492,-256.4924 205.8492,-274.4924"/>
<text text-anchor="middle" x="193.8492" y="-263.2924" font-family="Times,serif" font-size="9.00" fill="#000000">&#45;6</text>
</g>
<!-- &#45;6&#45;&gt;0 -->
<g id="edge4" class="edge">
<title>&#45;6&#45;&gt;0</title>
<path fill="none" stroke="#ff0000" stroke-width=".1364" d="M191.9805,-256.2334C190.2529,-247.1697 187.8122,-232.9475 186.8492,-220.4924 185.1535,-198.559 183.2052,-192.6899 186.8492,-170.9949 189.0004,-158.188 193.5354,-144.4711 197.8425,-133.318"/>
<polygon fill="#ff0000" stroke="#ff0000" stroke-width=".1364" points="201.1486,-134.4784 201.6589,-123.8959 194.6606,-131.8504 201.1486,-134.4784"/>
</g>
<!-- &#45;6&#45;&gt;2104 -->
<g id="edge1" class="edge">
<title>&#45;6&#45;&gt;2104</title>
<path fill="none" stroke="#00ff00" stroke-width=".2905" d="M202.8698,-256.374C211.7637,-247.3836 225.7618,-233.2336 237.9987,-220.8639"/>
<polygon fill="#00ff00" stroke="#00ff00" stroke-width=".2905" points="240.7843,-223.0248 245.3289,-213.4541 235.8079,-218.1018 240.7843,-223.0248"/>
</g>
<!-- &#45;7 -->
<g id="node7" class="node">
<title>&#45;7</title>
<polygon fill="#d3d3d3" stroke="#000000" points="55.8492,-274.4924 31.8492,-274.4924 31.8492,-256.4924 55.8492,-256.4924 55.8492,-274.4924"/>
<text text-anchor="middle" x="43.8492" y="-263.2924" font-family="Times,serif" font-size="9.00" fill="#000000">&#45;7</text>
</g>
<!-- 1 -->
<g id="node9" class="node">
<title>1</title>
<ellipse fill="#add8e6" stroke="#000000" cx="14.8492" cy="-195.7437" rx="14.7" ry="14.7"/>
<text text-anchor="middle" x="14.8492" y="-193.5437" font-family="Times,serif" font-size="9.00" fill="#000000">1</text>
</g>
<!-- &#45;7&#45;&gt;1 -->
<g id="edge11" class="edge">
<title>&#45;7&#45;&gt;1</title>
<path fill="none" stroke="#ff0000" stroke-width=".1076" d="M40.058,-256.374C36.1571,-246.9918 29.9199,-231.9906 24.6258,-219.2576"/>
<polygon fill="#ff0000" stroke="#ff0000" stroke-width=".1076" points="27.7159,-217.5729 20.6449,-209.6829 21.2523,-220.2603 27.7159,-217.5729"/>
</g>
<!-- 2148 -->
<g id="node10" class="node">
<title>2148</title>
<ellipse fill="#ffffff" stroke="#000000" cx="72.8492" cy="-195.7437" rx="25" ry="25"/>
<text text-anchor="middle" x="72.8492" y="-193.5437" font-family="Times,serif" font-size="9.00" fill="#000000">2148</text>
</g>
<!-- &#45;7&#45;&gt;2148 -->
<g id="edge9" class="edge">
<title>&#45;7&#45;&gt;2148</title>
<path fill="none" stroke="#00ff00" stroke-width=".4106" d="M47.6405,-256.374C50.6732,-249.0799 55.118,-238.3895 59.434,-228.0091"/>
<polygon fill="#00ff00" stroke="#00ff00" stroke-width=".4106" points="62.7097,-229.247 63.3172,-218.6696 56.2461,-226.5595 62.7097,-229.247"/>
</g>
<!-- 1&#45;&gt;1535 -->
<g id="edge14" class="edge">
<title>1&#45;&gt;1535</title>
<path fill="none" stroke="#00ff00" stroke-width=".6005" d="M18.7509,-181.2402C21.4814,-171.0902 25.2463,-157.0949 28.712,-144.2118"/>
<polygon fill="#00ff00" stroke="#00ff00" stroke-width=".6005" points="32.1838,-144.779 31.4018,-134.213 25.4241,-142.9605 32.1838,-144.779"/>
</g>
<!-- 2201 -->
<g id="node14" class="node">
<title>2201</title>
<ellipse fill="#ffffff" stroke="#000000" cx="127.8492" cy="-24.7487" rx="25" ry="25"/>
<text text-anchor="middle" x="127.8492" y="-22.5487" font-family="Times,serif" font-size="9.00" fill="#000000">2201</text>
</g>
<!-- 1803&#45;&gt;2201 -->
<g id="edge13" class="edge">
<title>1803&#45;&gt;2201</title>
<path fill="none" stroke="#00ff00" stroke-width=".1175" d="M127.8492,-85.0566C127.8492,-77.1423 127.8492,-68.2563 127.8492,-59.7877"/>
<polygon fill="#00ff00" stroke="#00ff00" stroke-width=".1175" points="131.3493,-59.7583 127.8492,-49.7583 124.3493,-59.7584 131.3493,-59.7583"/>
</g>
<!-- 2104&#45;&gt;0 -->
<g id="edge5" class="edge">
<title>2104&#45;&gt;0</title>
<path fill="none" stroke="#00ff00" stroke-width=".2835" d="M249.2537,-174.6095C240.7762,-161.4311 229.9062,-144.5338 221.4312,-131.3594"/>
<polygon fill="#00ff00" stroke="#00ff00" stroke-width=".2835" points="224.3591,-129.4415 216.0054,-122.9249 218.4721,-133.2286 224.3591,-129.4415"/>
</g>
</g>
</svg>
